KumbhSans-Light.ufo
<glyph name="exclam" format="1">
  <unicode hex="0021"/>
  <advance width="536" height="1706.48"/>
  <outline>
    <contour>
      <point x="306" y="391" type="line"/>
      <point x="320" y="618"/>
      <point x="325" y="750"/>
      <point x="325" y="983" type="curve" smooth="yes"/>
      <point x="325" y="1500" type="line"/>
      <point x="211" y="1500" type="line"/>
      <point x="211" y="983" type="line" smooth="yes"/>
      <point x="211" y="744"/>
      <point x="215" y="629"/>
      <point x="231" y="391" type="curve"/>
    </contour>
    <contour>
      <point x="170" y="78" type="curve" smooth="yes"/>
      <point x="170" y="19"/>
      <point x="209" y="-20"/>
      <point x="268" y="-20" type="curve" smooth="yes"/>
      <point x="327" y="-20"/>
      <point x="366" y="19"/>
      <point x="366" y="78" type="curve" smooth="yes"/>
      <point x="366" y="137"/>
      <point x="327" y="176"/>
      <point x="268" y="176" type="curve" smooth="yes"/>
      <point x="209" y="176"/>
      <point x="170" y="137"/>
    </contour>
  </outline>
</glyph>
<glyph name="quotedbl" format="1">
  <unicode hex="0022"/>
  <advance width="663" height="1706.48"/>
  <outline>
    <contour>
      <point x="445" y="1085" type="line"/>
      <point x="526" y="1085" type="line"/>
      <point x="553" y="1519" type="line"/>
      <point x="418" y="1519" type="line"/>
    </contour>
    <contour>
      <point x="137" y="1085" type="line"/>
      <point x="218" y="1085" type="line"/>
      <point x="245" y="1519" type="line"/>
      <point x="110" y="1519" type="line"/>
    </contour>
  </outline>
</glyph>
<glyph name="numbersign" format="1">
  <unicode hex="0023"/>
  <advance width="1437" height="1706.48"/>
  <outline>
    <contour>
      <point x="412" y="476" type="line"/>
      <point x="328" y="0" type="line"/>
      <point x="428" y="0" type="line"/>
      <point x="512" y="476" type="line"/>
      <point x="856" y="476" type="line"/>
      <point x="772" y="0" type="line"/>
      <point x="872" y="0" type="line"/>
      <point x="956" y="476" type="line"/>
      <point x="1195" y="476" type="line"/>
      <point x="1205" y="566" type="line"/>
      <point x="972" y="566" type="line"/>
      <point x="1033" y="910" type="line"/>
      <point x="1267" y="910" type="line"/>
      <point x="1277" y="1000" type="line"/>
      <point x="1049" y="1000" type="line"/>
      <point x="1137" y="1501" type="line"/>
      <point x="1037" y="1501" type="line"/>
      <point x="949" y="1000" type="line"/>
      <point x="605" y="1000" type="line"/>
      <point x="693" y="1501" type="line"/>
      <point x="593" y="1501" type="line"/>
      <point x="505" y="1000" type="line"/>
      <point x="241" y="1000" type="line"/>
      <point x="232" y="910" type="line"/>
      <point x="489" y="910" type="line"/>
      <point x="428" y="566" type="line"/>
      <point x="169" y="566" type="line"/>
      <point x="160" y="476" type="line"/>
    </contour>
    <contour>
      <point x="528" y="566" type="line"/>
      <point x="589" y="910" type="line"/>
      <point x="933" y="910" type="line"/>
      <point x="872" y="566" type="line"/>
    </contour>
  </outline>
</glyph>
<glyph name="dollar" format="1">
  <unicode hex="0024"/>
  <advance width="1102" height="1706.48"/>
  <outline>
    <contour>
      <point x="100" y="199" type="line"/>
      <point x="214" y="118"/>
      <point x="350" y="70"/>
      <point x="483" y="62" type="curve"/>
      <point x="483" y="-120" type="line"/>
      <point x="585" y="-120" type="line"/>
      <point x="585" y="65" type="line"/>
      <point x="807" y="89"/>
      <point x="962" y="238"/>
      <point x="962" y="440" type="curve" smooth="yes"/>
      <point x="962" y="604"/>
      <point x="860" y="710"/>
      <point x="585" y="825" type="curve" smooth="yes"/>
      <point x="581" y="827"/>
      <point x="578" y="828"/>
      <point x="574" y="830" type="curve" smooth="yes"/>
      <point x="541" y="844"/>
      <point x="510" y="857"/>
      <point x="483" y="870" type="curve" smooth="yes"/>
      <point x="321" y="947"/>
      <point x="264" y="1012"/>
      <point x="264" y="1105" type="curve" smooth="yes"/>
      <point x="264" y="1263"/>
      <point x="418" y="1323"/>
      <point x="553" y="1323" type="curve" smooth="yes"/>
      <point x="649" y="1323"/>
      <point x="743" y="1296"/>
      <point x="828" y="1251" type="curve"/>
      <point x="889" y="1358" type="line"/>
      <point x="790" y="1404"/>
      <point x="685" y="1432"/>
      <point x="585" y="1439" type="curve"/>
      <point x="585" y="1620" type="line"/>
      <point x="483" y="1620" type="line"/>
      <point x="483" y="1437" type="line"/>
      <point x="270" y="1417"/>
      <point x="130" y="1288"/>
      <point x="130" y="1099" type="curve" smooth="yes"/>
      <point x="130" y="889"/>
      <point x="338" y="799"/>
      <point x="504" y="728" type="curve" smooth="yes"/>
      <point x="532" y="716"/>
      <point x="559" y="705"/>
      <point x="585" y="693" type="curve" smooth="yes"/>
      <point x="719" y="633"/>
      <point x="828" y="565"/>
      <point x="828" y="427" type="curve" smooth="yes"/>
      <point x="828" y="260"/>
      <point x="677" y="176"/>
      <point x="527" y="176" type="curve" smooth="yes"/>
      <point x="395" y="176"/>
      <point x="264" y="234"/>
      <point x="164" y="318" type="curve"/>
    </contour>
  </outline>
</glyph>
<glyph name="percent" format="1">
  <unicode hex="0025"/>
  <advance width="1832" height="1706.48"/>
  <outline>
    <contour>
      <point x="394" y="0" type="line"/>
      <point x="511" y="0" type="line"/>
      <point x="1438" y="1500" type="line"/>
      <point x="1321" y="1500" type="line"/>
    </contour>
    <contour>
      <point x="150" y="1187" type="curve" smooth="yes"/>
      <point x="150" y="993"/>
      <point x="280" y="864"/>
      <point x="474" y="864" type="curve" smooth="yes"/>
      <point x="668" y="864"/>
      <point x="798" y="993"/>
      <point x="798" y="1187" type="curve" smooth="yes"/>
      <point x="798" y="1382"/>
      <point x="669" y="1511"/>
      <point x="474" y="1511" type="curve" smooth="yes"/>
      <point x="280" y="1511"/>
      <point x="150" y="1382"/>
    </contour>
    <contour>
      <point x="263" y="1187" type="curve" smooth="yes"/>
      <point x="263" y="1323"/>
      <point x="347" y="1414"/>
      <point x="474" y="1414" type="curve" smooth="yes"/>
      <point x="600" y="1414"/>
      <point x="685" y="1323"/>
      <point x="685" y="1187" type="curve" smooth="yes"/>
      <point x="685" y="1052"/>
      <point x="600" y="961"/>
      <point x="474" y="961" type="curve" smooth="yes"/>
      <point x="347" y="961"/>
      <point x="263" y="1051"/>
    </contour>
    <contour>
      <point x="1034" y="314" type="curve" smooth="yes"/>
      <point x="1034" y="120"/>
      <point x="1164" y="-10"/>
      <point x="1358" y="-10" type="curve" smooth="yes"/>
      <point x="1553" y="-10"/>
      <point x="1682" y="120"/>
      <point x="1682" y="314" type="curve" smooth="yes"/>
      <point x="1682" y="508"/>
      <point x="1552" y="637"/>
      <point x="1358" y="637" type="curve" smooth="yes"/>
      <point x="1164" y="637"/>
      <point x="1034" y="508"/>
    </contour>
    <contour>
      <point x="1147" y="314" type="curve" smooth="yes"/>
      <point x="1147" y="450"/>
      <point x="1231" y="540"/>
      <point x="1358" y="540" type="curve" smooth="yes"/>
      <point x="1484" y="540"/>
      <point x="1569" y="449"/>
      <point x="1569" y="314" type="curve" smooth="yes"/>
      <point x="1569" y="178"/>
      <point x="1484" y="87"/>
      <point x="1358" y="87" type="curve" smooth="yes"/>
      <point x="1231" y="87"/>
      <point x="1147" y="178"/>
    </contour>
  </outline>
</glyph>
<glyph name="ampersand" format="1">
  <unicode hex="0026"/>
  <advance width="1585" height="1686.78"/>
  <outline>
    <contour>
      <point x="637" y="-20" type="curve" smooth="yes"/>
      <point x="795" y="-20"/>
      <point x="943" y="50"/>
      <point x="1071" y="183" type="curve"/>
      <point x="1160" y="112"/>
      <point x="1254" y="41"/>
      <point x="1353" y="-28" type="curve"/>
      <point x="1420" y="68" type="line"/>
      <point x="1324" y="134"/>
      <point x="1233" y="203"/>
      <point x="1148" y="272" type="curve"/>
      <point x="1241" y="394"/>
      <point x="1323" y="553"/>
      <point x="1389" y="745" type="curve"/>
      <point x="1274" y="782" type="line"/>
      <point x="1219" y="605"/>
      <point x="1146" y="457"/>
      <point x="1060" y="344" type="curve"/>
      <point x="879" y="498"/>
      <point x="728" y="653"/>
      <point x="620" y="795" type="curve"/>
      <point x="780" y="894"/>
      <point x="941" y="998"/>
      <point x="941" y="1209" type="curve" smooth="yes"/>
      <point x="941" y="1396"/>
      <point x="815" y="1520"/>
      <point x="635" y="1520" type="curve" smooth="yes"/>
      <point x="445" y="1520"/>
      <point x="304" y="1385"/>
      <point x="304" y="1210" type="curve" smooth="yes"/>
      <point x="304" y="1100"/>
      <point x="360" y="965"/>
      <point x="460" y="817" type="curve"/>
      <point x="308" y="720"/>
      <point x="165" y="611"/>
      <point x="165" y="410" type="curve" smooth="yes"/>
      <point x="165" y="170"/>
      <point x="374" y="-20"/>
    </contour>
    <contour>
      <point x="984" y="256" type="curve"/>
      <point x="881" y="152"/>
      <point x="764" y="95"/>
      <point x="642" y="95" type="curve" smooth="yes"/>
      <point x="451" y="95"/>
      <point x="305" y="234"/>
      <point x="305" y="415" type="curve" smooth="yes"/>
      <point x="305" y="563"/>
      <point x="402" y="653"/>
      <point x="521" y="732" type="curve"/>
      <point x="637" y="580"/>
      <point x="795" y="417"/>
    </contour>
    <contour>
      <point x="560" y="878" type="curve"/>
      <point x="479" y="998"/>
      <point x="434" y="1106"/>
      <point x="434" y="1189" type="curve" smooth="yes"/>
      <point x="434" y="1311"/>
      <point x="528" y="1410"/>
      <point x="640" y="1410" type="curve" smooth="yes"/>
      <point x="743" y="1410"/>
      <point x="819" y="1325"/>
      <point x="819" y="1205" type="curve" smooth="yes"/>
      <point x="819" y="1053"/>
      <point x="698" y="964"/>
    </contour>
  </outline>
</glyph>
<glyph name="quotesingle" format="1">
  <unicode hex="0027"/>
  <advance width="355" height="1660"/>
  <outline>
    <contour>
      <point x="137" y="1085" type="line"/>
      <point x="218" y="1085" type="line"/>
      <point x="245" y="1519" type="line"/>
      <point x="110" y="1519" type="line"/>
    </contour>
  </outline>
</glyph>
<glyph name="parenleft" format="1">
  <unicode hex="0028"/>
  <advance width="651" height="1660"/>
  <outline>
    <contour>
      <point x="561" y="-289" type="line" name="av02"/>
      <point x="370" y="-39"/>
      <point x="250" y="280"/>
      <point x="250" y="626" type="curve" smooth="yes" name="dh02"/>
      <point x="250" y="972"/>
      <point x="369" y="1290"/>
      <point x="561" y="1540" type="curve" name="av01"/>
      <point x="431" y="1540" type="line"/>
      <point x="242" y="1284"/>
      <point x="130" y="968"/>
      <point x="130" y="625" type="curve" smooth="yes" name="dh01"/>
      <point x="130" y="282"/>
      <point x="242" y="-34"/>
      <point x="431" y="-289" type="curve"/>
    </contour>
  </outline>
</glyph>
<glyph name="parenright" format="1">
  <unicode hex="0029"/>
  <advance width="651" height="1660"/>
  <outline>
    <contour>
      <point x="90" y="-289" type="line" name="av02"/>
      <point x="281" y="-39"/>
      <point x="401" y="280"/>
      <point x="401" y="626" type="curve" smooth="yes" name="dh01"/>
      <point x="401" y="972"/>
      <point x="282" y="1290"/>
      <point x="90" y="1540" type="curve" name="av01"/>
      <point x="220" y="1540" type="line"/>
      <point x="409" y="1284"/>
      <point x="521" y="968"/>
      <point x="521" y="625" type="curve" smooth="yes" name="dh02"/>
      <point x="521" y="282"/>
      <point x="409" y="-34"/>
      <point x="220" y="-289" type="curve"/>
    </contour>
  </outline>
</glyph>
<glyph name="asterisk" format="1">
  <unicode hex="002A"/>
  <advance width="1206" height="1660"/>
  <outline>
    <contour>
      <point x="665" y="1077" type="line"/>
      <point x="1036" y="1173" type="line"/>
      <point x="998" y="1294" type="line"/>
      <point x="643" y="1153" type="line"/>
      <point x="665" y="1540" type="line"/>
      <point x="541" y="1540" type="line"/>
      <point x="563" y="1153" type="line"/>
      <point x="208" y="1294" type="line"/>
      <point x="170" y="1173" type="line"/>
      <point x="538" y="1075" type="line"/>
      <point x="296" y="775" type="line"/>
      <point x="397" y="700" type="line"/>
      <point x="603" y="1027" type="line"/>
      <point x="808" y="700" type="line"/>
      <point x="909" y="775" type="line"/>
    </contour>
  </outline>
</glyph>
<glyph name="plus" format="1">
  <unicode hex="002B"/>
  <advance width="1110" height="1660"/>
  <outline>
    <contour>
      <point x="610" y="555" type="line"/>
      <point x="610" y="908" type="line"/>
      <point x="500" y="908" type="line"/>
      <point x="500" y="555" type="line"/>
      <point x="160" y="555" type="line"/>
      <point x="160" y="455" type="line"/>
      <point x="500" y="455" type="line"/>
      <point x="500" y="102" type="line"/>
      <point x="610" y="102" type="line"/>
      <point x="610" y="455" type="line"/>
      <point x="950" y="455" type="line"/>
      <point x="950" y="555" type="line"/>
    </contour>
  </outline>
</glyph>
<glyph name="comma" format="1">
  <unicode hex="002C"/>
  <advance width="466" height="1660"/>
  <outline>
    <contour>
      <point x="216" y="225" type="line" name="av01"/>
      <point x="351" y="225" type="line"/>
      <point x="192" y="-225" type="line"/>
      <point x="115" y="-225" type="line"/>
    </contour>
  </outline>
</glyph>
<glyph name="hyphen" format="1">
  <unicode hex="002D"/>
  <advance width="1120" height="1660"/>
  <outline>
    <contour>
      <point x="160" y="450" type="line" name="dv01"/>
      <point x="160" y="560" type="line" name="dv02"/>
      <point x="960" y="560" type="line"/>
      <point x="960" y="450" type="line"/>
    </contour>
  </outline>
</glyph>
<glyph name="period" format="1">
  <unicode hex="002E"/>
  <advance width="535" height="1660"/>
  <outline>
    <contour>
      <point x="170" y="78" type="curve" smooth="yes"/>
      <point x="170" y="23"/>
      <point x="212" y="-20"/>
      <point x="267" y="-20" type="curve" smooth="yes"/>
      <point x="322" y="-20"/>
      <point x="365" y="23"/>
      <point x="365" y="78" type="curve" smooth="yes"/>
      <point x="365" y="134"/>
      <point x="322" y="176"/>
      <point x="267" y="176" type="curve" smooth="yes"/>
      <point x="212" y="176"/>
      <point x="170" y="134"/>
    </contour>
  </outline>
</glyph>
<glyph name="slash" format="1">
  <unicode hex="002F"/>
  <advance width="787" height="1660"/>
  <outline>
    <contour>
      <point x="777" y="1520" type="line" name="at01"/>
      <point x="140" y="-20" type="line" name="av01"/>
      <point x="10" y="-20" type="line"/>
      <point x="647" y="1520" type="line"/>
    </contour>
  </outline>
</glyph>
<glyph name="zero" format="1">
  <unicode hex="0030"/>
  <advance width="1264" height="1660"/>
  <outline>
    <contour>
      <point x="280" y="750" type="curve" smooth="yes"/>
      <point x="280" y="1160"/>
      <point x="412" y="1405"/>
      <point x="632" y="1405" type="curve" smooth="yes"/>
      <point x="852" y="1405"/>
      <point x="984" y="1160"/>
      <point x="984" y="750" type="curve" smooth="yes"/>
      <point x="984" y="340"/>
      <point x="852" y="94"/>
      <point x="632" y="94" type="curve" smooth="yes"/>
      <point x="412" y="94"/>
      <point x="280" y="340"/>
    </contour>
    <contour>
      <point x="140" y="750" type="curve" smooth="yes"/>
      <point x="140" y="252"/>
      <point x="318" y="-31"/>
      <point x="632" y="-31" type="curve" smooth="yes"/>
      <point x="946" y="-31"/>
      <point x="1124" y="252"/>
      <point x="1124" y="750" type="curve" smooth="yes"/>
      <point x="1124" y="1247"/>
      <point x="945" y="1530"/>
      <point x="632" y="1530" type="curve" smooth="yes"/>
      <point x="319" y="1530"/>
      <point x="140" y="1247"/>
    </contour>
  </outline>
</glyph>
<glyph name="one" format="1">
  <unicode hex="0031"/>
  <advance width="822" height="1660"/>
  <outline>
    <contour>
      <point x="175" y="1246" type="line"/>
      <point x="427" y="1340" type="line"/>
      <point x="427" y="0" type="line"/>
      <point x="562" y="0" type="line"/>
      <point x="562" y="1500" type="line"/>
      <point x="478" y="1500" type="line"/>
      <point x="130" y="1371" type="line"/>
    </contour>
  </outline>
</glyph>
<glyph name="two" format="1">
  <unicode hex="0032"/>
  <advance width="1280" height="1660"/>
  <outline>
    <contour>
      <point x="284" y="1156" type="line"/>
      <point x="376" y="1315"/>
      <point x="505" y="1402"/>
      <point x="651" y="1402" type="curve" smooth="yes"/>
      <point x="823" y="1402"/>
      <point x="935" y="1281"/>
      <point x="935" y="1093" type="curve" smooth="yes"/>
      <point x="935" y="833"/>
      <point x="718" y="535"/>
      <point x="227" y="125" type="curve"/>
      <point x="227" y="0" type="line"/>
      <point x="1120" y="0" type="line"/>
      <point x="1120" y="125" type="line"/>
      <point x="401" y="125" type="line"/>
      <point x="830" y="454"/>
      <point x="1070" y="806"/>
      <point x="1070" y="1104" type="curve" smooth="yes"/>
      <point x="1070" y="1357"/>
      <point x="900" y="1530"/>
      <point x="657" y="1530" type="curve" smooth="yes"/>
      <point x="466" y="1530"/>
      <point x="287" y="1420"/>
      <point x="180" y="1238" type="curve"/>
    </contour>
  </outline>
</glyph>
<glyph name="three" format="1">
  <unicode hex="0033"/>
  <advance width="1217" height="1660"/>
  <outline>
    <contour>
      <point x="140" y="175" type="line"/>
      <point x="288" y="28"/>
      <point x="417" y="-30"/>
      <point x="595" y="-30" type="curve" smooth="yes"/>
      <point x="899" y="-30"/>
      <point x="1097" y="137"/>
      <point x="1097" y="394" type="curve" smooth="yes"/>
      <point x="1097" y="599"/>
      <point x="969" y="747"/>
      <point x="753" y="793" type="curve"/>
      <point x="916" y="841"/>
      <point x="1032" y="993"/>
      <point x="1032" y="1162" type="curve" smooth="yes"/>
      <point x="1032" y="1373"/>
      <point x="850" y="1530"/>
      <point x="605" y="1530" type="curve" smooth="yes"/>
      <point x="450" y="1530"/>
      <point x="317" y="1467"/>
      <point x="196" y="1337" type="curve"/>
      <point x="289" y="1244" type="line"/>
      <point x="392" y="1355"/>
      <point x="491" y="1405"/>
      <point x="608" y="1405" type="curve" smooth="yes"/>
      <point x="777" y="1405"/>
      <point x="892" y="1301"/>
      <point x="892" y="1149" type="curve" smooth="yes"/>
      <point x="892" y="973"/>
      <point x="740" y="853"/>
      <point x="516" y="853" type="curve" smooth="yes"/>
      <point x="454" y="853" type="line"/>
      <point x="454" y="728" type="line"/>
      <point x="516" y="728" type="line" smooth="yes"/>
      <point x="791" y="728"/>
      <point x="957" y="607"/>
      <point x="957" y="406" type="curve" smooth="yes"/>
      <point x="957" y="222"/>
      <point x="816" y="95"/>
      <point x="612" y="95" type="curve" smooth="yes"/>
      <point x="470" y="95"/>
      <point x="346" y="156"/>
      <point x="231" y="281" type="curve"/>
    </contour>
  </outline>
</glyph>
<glyph name="four" format="1">
  <unicode hex="0034"/>
  <advance width="1249" height="1660"/>
  <outline>
    <contour>
      <point x="110" y="349" type="line"/>
      <point x="859" y="349" type="line"/>
      <point x="859" y="0" type="line"/>
      <point x="989" y="0" type="line"/>
      <point x="989" y="349" type="line"/>
      <point x="1169" y="349" type="line"/>
      <point x="1169" y="474" type="line"/>
      <point x="989" y="474" type="line"/>
      <point x="989" y="1500" type="line"/>
      <point x="858" y="1500" type="line"/>
      <point x="110" y="464" type="line"/>
    </contour>
    <contour>
      <point x="273" y="474" type="line"/>
      <point x="723" y="1099" type="line" smooth="yes"/>
      <point x="787" y="1188"/>
      <point x="838" y="1265"/>
      <point x="873" y="1328" type="curve"/>
      <point x="864" y="1253"/>
      <point x="859" y="1150"/>
      <point x="859" y="1050" type="curve" smooth="yes"/>
      <point x="859" y="474" type="line"/>
    </contour>
  </outline>
</glyph>
<glyph name="five" format="1">
  <unicode hex="0035"/>
  <advance width="1124" height="1660"/>
  <outline>
    <contour>
      <point x="508" y="-30" type="curve" smooth="yes"/>
      <point x="793" y="-30"/>
      <point x="994" y="168"/>
      <point x="994" y="451" type="curve" smooth="yes"/>
      <point x="994" y="729"/>
      <point x="798" y="927"/>
      <point x="521" y="927" type="curve" smooth="yes"/>
      <point x="458" y="927"/>
      <point x="398" y="917"/>
      <point x="343" y="897" type="curve"/>
      <point x="391" y="1374" type="line"/>
      <point x="929" y="1374" type="line"/>
      <point x="929" y="1499" type="line"/>
      <point x="280" y="1499" type="line"/>
      <point x="212" y="821" type="line"/>
      <point x="286" y="754" type="line"/>
      <point x="345" y="786"/>
      <point x="412" y="802"/>
      <point x="484" y="802" type="curve" smooth="yes"/>
      <point x="701" y="802"/>
      <point x="854" y="658"/>
      <point x="854" y="452" type="curve" smooth="yes"/>
      <point x="854" y="246"/>
      <point x="704" y="95"/>
      <point x="499" y="95" type="curve" smooth="yes"/>
      <point x="394" y="95"/>
      <point x="273" y="135"/>
      <point x="183" y="200" type="curve"/>
      <point x="130" y="79" type="line"/>
      <point x="244" y="10"/>
      <point x="381" y="-30"/>
    </contour>
  </outline>
</glyph>
<glyph name="six" format="1">
  <unicode hex="0036"/>
  <advance width="1189" height="1702.05"/>
  <outline>
    <contour>
      <point x="613" y="-31" type="curve" smooth="yes"/>
      <point x="893" y="-31"/>
      <point x="1089" y="162"/>
      <point x="1089" y="440" type="curve" smooth="yes"/>
      <point x="1089" y="715"/>
      <point x="896" y="915"/>
      <point x="632" y="915" type="curve" smooth="yes"/>
      <point x="495" y="915"/>
      <point x="380" y="861"/>
      <point x="301" y="764" type="curve"/>
      <point x="382" y="1018"/>
      <point x="579" y="1268"/>
      <point x="828" y="1414" type="curve"/>
      <point x="751" y="1520" type="line"/>
      <point x="389" y="1307"/>
      <point x="130" y="883"/>
      <point x="130" y="504" type="curve" smooth="yes"/>
      <point x="130" y="179"/>
      <point x="319" y="-31"/>
    </contour>
    <contour>
      <point x="613" y="790" type="curve" smooth="yes"/>
      <point x="805" y="790"/>
      <point x="944" y="644"/>
      <point x="944" y="443" type="curve" smooth="yes"/>
      <point x="944" y="242"/>
      <point x="804" y="94"/>
      <point x="613" y="94" type="curve" smooth="yes"/>
      <point x="422" y="94"/>
      <point x="279" y="243"/>
      <point x="279" y="442" type="curve" smooth="yes"/>
      <point x="279" y="641"/>
      <point x="422" y="790"/>
    </contour>
  </outline>
</glyph>
<glyph name="seven" format="1">
  <unicode hex="0037"/>
  <advance width="1169" height="1702.05"/>
  <outline>
    <contour>
      <point x="90" y="1374" type="line"/>
      <point x="882" y="1374" type="line"/>
      <point x="343" y="0" type="line"/>
      <point x="488" y="0" type="line"/>
      <point x="1034" y="1391" type="line"/>
      <point x="1034" y="1499" type="line"/>
      <point x="90" y="1499" type="line"/>
    </contour>
  </outline>
</glyph>
<glyph name="eight" format="1">
  <unicode hex="0038"/>
  <advance width="1235" height="1702.05"/>
  <outline>
    <contour>
      <point x="617" y="-30" type="curve" smooth="yes"/>
      <point x="904" y="-30"/>
      <point x="1095" y="142"/>
      <point x="1095" y="401" type="curve" smooth="yes"/>
      <point x="1095" y="594"/>
      <point x="989" y="739"/>
      <point x="816" y="801" type="curve"/>
      <point x="957" y="859"/>
      <point x="1041" y="982"/>
      <point x="1041" y="1146" type="curve" smooth="yes"/>
      <point x="1041" y="1378"/>
      <point x="874" y="1530"/>
      <point x="617" y="1530" type="curve" smooth="yes"/>
      <point x="360" y="1530"/>
      <point x="193" y="1378"/>
      <point x="193" y="1146" type="curve" smooth="yes"/>
      <point x="193" y="982"/>
      <point x="277" y="859"/>
      <point x="418" y="801" type="curve"/>
      <point x="246" y="739"/>
      <point x="140" y="594"/>
      <point x="140" y="401" type="curve" smooth="yes"/>
      <point x="140" y="142"/>
      <point x="330" y="-30"/>
    </contour>
    <contour>
      <point x="617" y="734" type="curve" smooth="yes"/>
      <point x="818" y="734"/>
      <point x="955" y="605"/>
      <point x="955" y="414" type="curve" smooth="yes"/>
      <point x="955" y="224"/>
      <point x="818" y="95"/>
      <point x="617" y="95" type="curve" smooth="yes"/>
      <point x="416" y="95"/>
      <point x="280" y="224"/>
      <point x="280" y="414" type="curve" smooth="yes"/>
      <point x="280" y="605"/>
      <point x="416" y="734"/>
    </contour>
    <contour>
      <point x="333" y="1131" type="curve" smooth="yes"/>
      <point x="333" y="1294"/>
      <point x="448" y="1405"/>
      <point x="617" y="1405" type="curve" smooth="yes"/>
      <point x="786" y="1405"/>
      <point x="901" y="1294"/>
      <point x="901" y="1131" type="curve" smooth="yes"/>
      <point x="901" y="969"/>
      <point x="786" y="858"/>
      <point x="617" y="858" type="curve" smooth="yes"/>
      <point x="448" y="858"/>
      <point x="333" y="968"/>
    </contour>
  </outline>
</glyph>
<glyph name="nine" format="1">
  <unicode hex="0039"/>
  <advance width="1189" height="1702.05"/>
  <outline>
    <contour>
      <point x="100" y="1049" type="curve" smooth="yes"/>
      <point x="100" y="774"/>
      <point x="293" y="574"/>
      <point x="557" y="574" type="curve" smooth="yes"/>
      <point x="694" y="574"/>
      <point x="809" y="628"/>
      <point x="888" y="725" type="curve"/>
      <point x="807" y="471"/>
      <point x="610" y="221"/>
      <point x="361" y="75" type="curve"/>
      <point x="438" y="-31" type="line"/>
      <point x="800" y="182"/>
      <point x="1059" y="606"/>
      <point x="1059" y="985" type="curve" smooth="yes"/>
      <point x="1059" y="1310"/>
      <point x="870" y="1520"/>
      <point x="576" y="1520" type="curve" smooth="yes"/>
      <point x="296" y="1520"/>
      <point x="100" y="1327"/>
    </contour>
    <contour>
      <point x="245" y="1046" type="curve" smooth="yes"/>
      <point x="245" y="1247"/>
      <point x="385" y="1395"/>
      <point x="576" y="1395" type="curve" smooth="yes"/>
      <point x="767" y="1395"/>
      <point x="910" y="1246"/>
      <point x="910" y="1047" type="curve" smooth="yes"/>
      <point x="910" y="848"/>
      <point x="767" y="699"/>
      <point x="576" y="699" type="curve" smooth="yes"/>
      <point x="384" y="699"/>
      <point x="245" y="845"/>
    </contour>
  </outline>
</glyph>
<glyph name="colon" format="1">
  <unicode hex="003A"/>
  <advance width="536" height="1660"/>
  <outline>
    <contour>
      <point x="170" y="882" type="curve" smooth="yes"/>
      <point x="170" y="940"/>
      <point x="209" y="980"/>
      <point x="268" y="980" type="curve" smooth="yes"/>
      <point x="327" y="980"/>
      <point x="366" y="940"/>
      <point x="366" y="882" type="curve" smooth="yes"/>
      <point x="366" y="823"/>
      <point x="327" y="784"/>
      <point x="268" y="784" type="curve" smooth="yes"/>
      <point x="209" y="784"/>
      <point x="170" y="823"/>
    </contour>
    <contour>
      <point x="170" y="78" type="curve" smooth="yes"/>
      <point x="170" y="136"/>
      <point x="209" y="176"/>
      <point x="268" y="176" type="curve" smooth="yes"/>
      <point x="327" y="176"/>
      <point x="366" y="136"/>
      <point x="366" y="78" type="curve" smooth="yes"/>
      <point x="366" y="19"/>
      <point x="327" y="-20"/>
      <point x="268" y="-20" type="curve" smooth="yes"/>
      <point x="209" y="-20"/>
      <point x="170" y="19"/>
    </contour>
  </outline>
</glyph>
<glyph name="semicolon" format="1">
  <unicode hex="003B"/>
  <advance width="592" height="1660"/>
  <outline>
    <contour>
      <point x="226" y="882" type="curve" smooth="yes"/>
      <point x="226" y="940"/>
      <point x="265" y="980"/>
      <point x="324" y="980" type="curve" smooth="yes"/>
      <point x="383" y="980"/>
      <point x="422" y="940"/>
      <point x="422" y="882" type="curve" smooth="yes"/>
      <point x="422" y="823"/>
      <point x="383" y="784"/>
      <point x="324" y="784" type="curve" smooth="yes"/>
      <point x="265" y="784"/>
      <point x="226" y="823"/>
    </contour>
    <contour>
      <point x="271" y="225" type="line" name="av01"/>
      <point x="406" y="225" type="line"/>
      <point x="247" y="-225" type="line"/>
      <point x="170" y="-225" type="line"/>
    </contour>
  </outline>
</glyph>
<glyph name="less" format="1">
  <unicode hex="003C"/>
  <advance width="1288" height="1702.05"/>
  <outline>
    <contour>
      <point x="160" y="555" type="line"/>
      <point x="160" y="425" type="line"/>
      <point x="1113" y="-20" type="line"/>
      <point x="1113" y="102" type="line"/>
      <point x="282" y="490" type="line"/>
      <point x="1113" y="878" type="line"/>
      <point x="1113" y="1000" type="line"/>
    </contour>
  </outline>
</glyph>
<glyph name="equal" format="1">
  <unicode hex="003D"/>
  <advance width="1275" height="1702.05"/>
  <outline>
    <contour>
      <point x="160" y="173" type="line"/>
      <point x="1115" y="173" type="line"/>
      <point x="1115" y="283" type="line"/>
      <point x="160" y="283" type="line"/>
    </contour>
    <contour>
      <point x="160" y="660" type="line"/>
      <point x="1115" y="660" type="line"/>
      <point x="1115" y="770" type="line"/>
      <point x="160" y="770" type="line"/>
    </contour>
  </outline>
</glyph>
<glyph name="greater" format="1">
  <unicode hex="003E"/>
  <advance width="1288" height="1660"/>
  <outline>
    <contour>
      <point x="160" y="102" type="line"/>
      <point x="991" y="490" type="line"/>
      <point x="160" y="878" type="line"/>
      <point x="160" y="1000" type="line"/>
      <point x="1113" y="555" type="line"/>
      <point x="1113" y="425" type="line"/>
      <point x="160" y="-20" type="line"/>
    </contour>
  </outline>
</glyph>
<glyph name="question" format="1">
  <unicode hex="003F"/>
  <advance width="933" height="1702.05"/>
  <outline>
    <contour>
      <point x="68" y="1297" type="line"/>
      <point x="189" y="1382"/>
      <point x="275" y="1415"/>
      <point x="378" y="1415" type="curve" smooth="yes"/>
      <point x="547" y="1415"/>
      <point x="643" y="1327"/>
      <point x="643" y="1185" type="curve" smooth="yes"/>
      <point x="643" y="913"/>
      <point x="286" y="882"/>
      <point x="286" y="379" type="curve"/>
      <point x="396" y="379" type="line"/>
      <point x="396" y="851"/>
      <point x="763" y="856"/>
      <point x="763" y="1188" type="curve" smooth="yes"/>
      <point x="763" y="1393"/>
      <point x="623" y="1530"/>
      <point x="389" y="1530" type="curve" smooth="yes"/>
      <point x="262" y="1530"/>
      <point x="130" y="1484"/>
      <point x="10" y="1398" type="curve"/>
    </contour>
    <contour>
      <point x="242" y="78" type="curve" smooth="yes"/>
      <point x="242" y="19"/>
      <point x="281" y="-20"/>
      <point x="340" y="-20" type="curve" smooth="yes"/>
      <point x="399" y="-20"/>
      <point x="438" y="19"/>
      <point x="438" y="78" type="curve" smooth="yes"/>
      <point x="438" y="137"/>
      <point x="399" y="176"/>
      <point x="340" y="176" type="curve" smooth="yes"/>
      <point x="281" y="176"/>
      <point x="242" y="137"/>
    </contour>
  </outline>
</glyph>
<glyph name="A" format="1">
  <unicode hex="0041"/>
  <advance width="1401" height="1660"/>
  <outline>
    <contour>
      <point x="40" y="0" type="line" name="ab01"/>
      <point x="185" y="0" type="line"/>
      <point x="342" y="401" type="line" name="dv01"/>
      <point x="1064" y="401" type="line"/>
      <point x="1221" y="0" type="line" name="ab02"/>
      <point x="1361" y="0" type="line"/>
      <point x="775" y="1500" type="line" name="at02"/>
      <point x="626" y="1500" type="line"/>
    </contour>
    <contour>
      <point x="618" y="1109" type="line" smooth="yes"/>
      <point x="645" y="1179"/>
      <point x="676" y="1273"/>
      <point x="702" y="1356" type="curve"/>
      <point x="729" y="1268"/>
      <point x="761" y="1179"/>
      <point x="788" y="1109" type="curve" smooth="yes"/>
      <point x="1016" y="526" type="line"/>
      <point x="390" y="526" type="line"/>
    </contour>
    <contour>
      <point x="705" y="1520" type="move" name="top"/>
    </contour>
    <contour>
      <point x="1319" y="0" type="move" name="bottom"/>
    </contour>
  </outline>
</glyph>
<glyph name="B" format="1">
  <unicode hex="0042"/>
  <advance width="1279" height="1660"/>
  <outline>
    <contour>
      <point x="180" y="0" type="line"/>
      <point x="625" y="0" type="line" smooth="yes"/>
      <point x="962" y="0"/>
      <point x="1154" y="147"/>
      <point x="1154" y="405" type="curve" smooth="yes"/>
      <point x="1154" y="590"/>
      <point x="1057" y="723"/>
      <point x="873" y="788" type="curve"/>
      <point x="1024" y="856"/>
      <point x="1096" y="962"/>
      <point x="1096" y="1119" type="curve" smooth="yes"/>
      <point x="1096" y="1364"/>
      <point x="922" y="1500"/>
      <point x="607" y="1500" type="curve" smooth="yes"/>
      <point x="180" y="1500" type="line"/>
    </contour>
    <contour>
      <point x="315" y="719" type="line"/>
      <point x="636" y="719" type="line" smooth="yes"/>
      <point x="882" y="719"/>
      <point x="1014" y="615"/>
      <point x="1014" y="420" type="curve" smooth="yes"/>
      <point x="1014" y="229"/>
      <point x="885" y="125"/>
      <point x="649" y="125" type="curve" smooth="yes"/>
      <point x="315" y="125" type="line"/>
    </contour>
    <contour>
      <point x="629" y="1375" type="line" smooth="yes"/>
      <point x="842" y="1375"/>
      <point x="956" y="1283"/>
      <point x="956" y="1111" type="curve" smooth="yes"/>
      <point x="956" y="938"/>
      <point x="840" y="844"/>
      <point x="629" y="844" type="curve" smooth="yes"/>
      <point x="315" y="844" type="line"/>
      <point x="315" y="1375" type="line"/>
    </contour>
  </outline>
</glyph>
<glyph name="C" format="1">
  <unicode hex="0043"/>
  <advance width="1510" height="1660"/>
  <outline>
    <contour>
      <point x="1299" y="265" type="line"/>
      <point x="1194" y="157"/>
      <point x="1037" y="95"/>
      <point x="868" y="95" type="curve" smooth="yes"/>
      <point x="508" y="95"/>
      <point x="240" y="376"/>
      <point x="240" y="754" type="curve" smooth="yes"/>
      <point x="240" y="1128"/>
      <point x="504" y="1405"/>
      <point x="862" y="1405" type="curve" smooth="yes"/>
      <point x="1034" y="1405"/>
      <point x="1195" y="1343"/>
      <point x="1299" y="1235" type="curve"/>
      <point x="1390" y="1326" type="line"/>
      <point x="1253" y="1458"/>
      <point x="1067" y="1530"/>
      <point x="863" y="1530" type="curve" smooth="yes"/>
      <point x="424" y="1530"/>
      <point x="100" y="1199"/>
      <point x="100" y="750" type="curve" smooth="yes"/>
      <point x="100" y="301"/>
      <point x="424" y="-30"/>
      <point x="863" y="-30" type="curve" smooth="yes"/>
      <point x="1066" y="-30"/>
      <point x="1252" y="42"/>
      <point x="1390" y="174" type="curve"/>
    </contour>
    <contour>
      <point x="863" y="-43" type="move" name="bottom"/>
    </contour>
    <contour>
      <point x="863" y="1544" type="move" name="top"/>
    </contour>
  </outline>
</glyph>
<glyph name="D" format="1">
  <unicode hex="0044"/>
  <advance width="1587" height="1706.48"/>
  <outline>
    <contour>
      <point x="565" y="-2" type="line" smooth="yes"/>
      <point x="1154" y="-2"/>
      <point x="1487" y="270"/>
      <point x="1487" y="750" type="curve" smooth="yes"/>
      <point x="1487" y="1228"/>
      <point x="1154" y="1498"/>
      <point x="565" y="1498" type="curve" smooth="yes"/>
      <point x="180" y="1498" type="line"/>
      <point x="180" y="-2" type="line"/>
    </contour>
    <contour>
      <point x="315" y="123" type="line"/>
      <point x="315" y="1373" type="line"/>
      <point x="575" y="1373" type="line" smooth="yes"/>
      <point x="1072" y="1373"/>
      <point x="1347" y="1151"/>
      <point x="1347" y="750" type="curve" smooth="yes"/>
      <point x="1347" y="346"/>
      <point x="1073" y="123"/>
      <point x="575" y="123" type="curve" smooth="yes"/>
    </contour>
    <contour>
      <point x="836" y="1542" type="move" name="top"/>
    </contour>
  </outline>
</glyph>
<glyph name="E" format="1">
  <unicode hex="0045"/>
  <advance width="1224" height="1706.48"/>
  <outline>
    <contour>
      <point x="180" y="1500" type="line"/>
      <point x="180" y="0" type="line"/>
      <point x="1054" y="0" type="line"/>
      <point x="1054" y="125" type="line"/>
      <point x="315" y="125" type="line"/>
      <point x="315" y="707" type="line"/>
      <point x="982" y="707" type="line"/>
      <point x="982" y="832" type="line"/>
      <point x="315" y="832" type="line"/>
      <point x="315" y="1375" type="line"/>
      <point x="1023" y="1375" type="line"/>
      <point x="1023" y="1500" type="line"/>
    </contour>
    <contour>
      <point x="617" y="1542" type="move" name="top"/>
    </contour>
    <contour>
      <point x="905" y="-21" type="move" name="bottom"/>
    </contour>
  </outline>
</glyph>
<glyph name="F" format="1">
  <unicode hex="0046"/>
  <advance width="1173" height="1706.48"/>
  <outline>
    <contour>
      <point x="180" y="1500" type="line"/>
      <point x="180" y="0" type="line"/>
      <point x="315" y="0" type="line"/>
      <point x="315" y="698" type="line"/>
      <point x="984" y="698" type="line"/>
      <point x="984" y="823" type="line"/>
      <point x="315" y="823" type="line"/>
      <point x="315" y="1375" type="line"/>
      <point x="1023" y="1375" type="line"/>
      <point x="1023" y="1500" type="line"/>
    </contour>
  </outline>
</glyph>
<glyph name="G" format="1">
  <unicode hex="0047"/>
  <advance width="1691" height="1706.48"/>
  <outline>
    <contour>
      <point x="100" y="750" type="curve" smooth="yes"/>
      <point x="100" y="297"/>
      <point x="423" y="-30"/>
      <point x="862" y="-30" type="curve" smooth="yes"/>
      <point x="1293" y="-30"/>
      <point x="1591" y="270"/>
      <point x="1591" y="704" type="curve" smooth="yes"/>
      <point x="1591" y="732"/>
      <point x="1590" y="759"/>
      <point x="1588" y="785" type="curve"/>
      <point x="876" y="785" type="line"/>
      <point x="876" y="660" type="line"/>
      <point x="1453" y="660" type="line"/>
      <point x="1438" y="336"/>
      <point x="1188" y="95"/>
      <point x="862" y="95" type="curve" smooth="yes"/>
      <point x="503" y="95"/>
      <point x="235" y="372"/>
      <point x="235" y="750" type="curve" smooth="yes"/>
      <point x="235" y="1131"/>
      <point x="506" y="1405"/>
      <point x="874" y="1405" type="curve" smooth="yes"/>
      <point x="1043" y="1405"/>
      <point x="1198" y="1344"/>
      <point x="1312" y="1232" type="curve"/>
      <point x="1414" y="1325" type="line"/>
      <point x="1273" y="1458"/>
      <point x="1083" y="1530"/>
      <point x="873" y="1530" type="curve" smooth="yes"/>
      <point x="424" y="1530"/>
      <point x="100" y="1206"/>
    </contour>
    <contour>
      <point x="841" y="1542" type="move" name="top"/>
    </contour>
    <contour>
      <point x="841" y="-41" type="move" name="bottom"/>
    </contour>
  </outline>
</glyph>
<glyph name="H" format="1">
  <unicode hex="0048"/>
  <advance width="1519" height="1660"/>
  <outline>
    <contour>
      <point x="180" y="1500" type="line"/>
      <point x="180" y="0" type="line"/>
      <point x="315" y="0" type="line"/>
      <point x="315" y="680" type="line"/>
      <point x="1204" y="680" type="line"/>
      <point x="1204" y="0" type="line"/>
      <point x="1339" y="0" type="line"/>
      <point x="1339" y="1500" type="line"/>
      <point x="1204" y="1500" type="line"/>
      <point x="1204" y="805" type="line"/>
      <point x="315" y="805" type="line"/>
      <point x="315" y="1500" type="line"/>
    </contour>
    <contour>
      <point x="760" y="1544" type="move" name="top"/>
    </contour>
  </outline>
</glyph>
<glyph name="J" format="1">
  <unicode hex="004A"/>
  <advance width="506" height="1706.48"/>
  <outline>
    <contour>
      <point x="-95" y="-397" type="line"/>
      <point x="188" y="-397"/>
      <point x="326" y="-258"/>
      <point x="326" y="27" type="curve" smooth="yes"/>
      <point x="326" y="1500" type="line"/>
      <point x="191" y="1500" type="line"/>
      <point x="191" y="38" type="line" smooth="yes"/>
      <point x="191" y="-167"/>
      <point x="99" y="-268"/>
      <point x="-95" y="-275" type="curve"/>
    </contour>
    <contour>
      <point x="376" y="1542" type="move" name="top"/>
    </contour>
  </outline>
</glyph>
<glyph name="K" format="1">
  <unicode hex="004B"/>
  <advance width="1360" height="1706.48"/>
  <outline>
    <contour>
      <point x="315" y="0" type="line"/>
      <point x="315" y="392" type="line"/>
      <point x="615" y="750" type="line"/>
      <point x="1153" y="0" type="line"/>
      <point x="1320" y="0" type="line"/>
      <point x="704" y="858" type="line"/>
      <point x="1242" y="1500" type="line"/>
      <point x="1068" y="1500" type="line"/>
      <point x="457" y="771" type="line" smooth="yes"/>
      <point x="407" y="712"/>
      <point x="357" y="644"/>
      <point x="315" y="581" type="curve"/>
      <point x="315" y="1500" type="line"/>
      <point x="180" y="1500" type="line"/>
      <point x="180" y="0" type="line"/>
    </contour>
    <contour>
      <point x="774" y="-41" type="move" name="bottom"/>
    </contour>
  </outline>
</glyph>
<glyph name="L" format="1">
  <unicode hex="004C"/>
  <advance width="1164" height="1706.48"/>
  <outline>
    <contour>
      <point x="1044" y="0" type="line"/>
      <point x="1044" y="125" type="line"/>
      <point x="315" y="125" type="line"/>
      <point x="315" y="1500" type="line"/>
      <point x="180" y="1500" type="line"/>
      <point x="180" y="0" type="line"/>
    </contour>
    <contour>
      <point x="250" y="1542" type="move" name="top"/>
    </contour>
    <contour>
      <point x="612" y="-41" type="move" name="bottom"/>
    </contour>
  </outline>
</glyph>
<glyph name="M" format="1">
  <unicode hex="004D"/>
  <advance width="1826" height="1706.48"/>
  <outline>
    <contour>
      <point x="180" y="0" type="line"/>
      <point x="315" y="0" type="line"/>
      <point x="315" y="1352" type="line"/>
      <point x="829" y="252" type="line"/>
      <point x="1000" y="252" type="line"/>
      <point x="1511" y="1348" type="line"/>
      <point x="1511" y="0" type="line"/>
      <point x="1646" y="0" type="line"/>
      <point x="1646" y="1500" type="line"/>
      <point x="1435" y="1500" type="line"/>
      <point x="916" y="386" type="line"/>
      <point x="396" y="1500" type="line"/>
      <point x="180" y="1500" type="line"/>
    </contour>
  </outline>
</glyph>
<glyph name="N" format="1">
  <unicode hex="004E"/>
  <advance width="1631" height="1706.48"/>
  <outline>
    <contour>
      <point x="180" y="1500" type="line"/>
      <point x="180" y="0" type="line"/>
      <point x="315" y="0" type="line"/>
      <point x="315" y="1283" type="line"/>
      <point x="1316" y="0" type="line"/>
      <point x="1451" y="0" type="line"/>
      <point x="1451" y="1500" type="line"/>
      <point x="1316" y="1500" type="line"/>
      <point x="1316" y="217" type="line"/>
      <point x="315" y="1500" type="line"/>
    </contour>
    <contour>
      <point x="815" y="1542" type="move" name="top"/>
    </contour>
    <contour>
      <point x="815" y="-41" type="move" name="bottom"/>
    </contour>
  </outline>
</glyph>
<glyph name="O" format="1">
  <unicode hex="004F"/>
  <advance width="1755" height="1706.48"/>
  <outline>
    <contour>
      <point x="240" y="750" type="curve" smooth="yes"/>
      <point x="240" y="1129"/>
      <point x="508" y="1405"/>
      <point x="877" y="1405" type="curve" smooth="yes"/>
      <point x="1247" y="1405"/>
      <point x="1515" y="1128"/>
      <point x="1515" y="750" type="curve" smooth="yes"/>
      <point x="1515" y="372"/>
      <point x="1247" y="95"/>
      <point x="877" y="95" type="curve" smooth="yes"/>
      <point x="508" y="95"/>
      <point x="240" y="371"/>
    </contour>
    <contour>
      <point x="100" y="750" type="curve" smooth="yes"/>
      <point x="100" y="299"/>
      <point x="427" y="-30"/>
      <point x="877" y="-30" type="curve" smooth="yes"/>
      <point x="1328" y="-30"/>
      <point x="1655" y="300"/>
      <point x="1655" y="750" type="curve" smooth="yes"/>
      <point x="1655" y="1201"/>
      <point x="1328" y="1530"/>
      <point x="877" y="1530" type="curve" smooth="yes"/>
      <point x="427" y="1530"/>
      <point x="100" y="1201"/>
    </contour>
    <contour>
      <point x="877" y="1542" type="move" name="top"/>
    </contour>
  </outline>
</glyph>
<glyph name="P" format="1">
  <unicode hex="0050"/>
  <advance width="1270" height="1706.48"/>
  <outline>
    <contour>
      <point x="180" y="0" type="line"/>
      <point x="315" y="0" type="line"/>
      <point x="315" y="616" type="line"/>
      <point x="676" y="616" type="line" smooth="yes"/>
      <point x="996" y="616"/>
      <point x="1190" y="783"/>
      <point x="1190" y="1058" type="curve" smooth="yes"/>
      <point x="1190" y="1333"/>
      <point x="996" y="1500"/>
      <point x="676" y="1500" type="curve" smooth="yes"/>
      <point x="180" y="1500" type="line"/>
    </contour>
    <contour>
      <point x="670" y="1375" type="line" smooth="yes"/>
      <point x="903" y="1375"/>
      <point x="1050" y="1252"/>
      <point x="1050" y="1058" type="curve" smooth="yes"/>
      <point x="1050" y="864"/>
      <point x="903" y="741"/>
      <point x="670" y="741" type="curve" smooth="yes"/>
      <point x="315" y="741" type="line"/>
      <point x="315" y="1375" type="line"/>
    </contour>
  </outline>
</glyph>
<glyph name="Q" format="1">
  <unicode hex="0051"/>
  <advance width="1795" height="1706.48"/>
  <outline>
    <contour>
      <point x="897" y="-30" type="curve" smooth="yes"/>
      <point x="911" y="-30"/>
      <point x="925" y="-30"/>
      <point x="938" y="-29" type="curve"/>
      <point x="1194" y="-136"/>
      <point x="1368" y="-183"/>
      <point x="1628" y="-218" type="curve"/>
      <point x="1650" y="-75" type="line"/>
      <point x="1453" y="-65"/>
      <point x="1319" y="-45"/>
      <point x="1146" y="6" type="curve"/>
      <point x="1463" y="104"/>
      <point x="1675" y="388"/>
      <point x="1675" y="750" type="curve" smooth="yes"/>
      <point x="1675" y="1201"/>
      <point x="1348" y="1530"/>
      <point x="897" y="1530" type="curve" smooth="yes"/>
      <point x="447" y="1530"/>
      <point x="120" y="1201"/>
      <point x="120" y="750" type="curve" smooth="yes"/>
      <point x="120" y="299"/>
      <point x="447" y="-30"/>
    </contour>
    <contour>
      <point x="897" y="1405" type="curve" smooth="yes"/>
      <point x="1267" y="1405"/>
      <point x="1535" y="1128"/>
      <point x="1535" y="750" type="curve" smooth="yes"/>
      <point x="1535" y="372"/>
      <point x="1267" y="95"/>
      <point x="897" y="95" type="curve" smooth="yes"/>
      <point x="528" y="95"/>
      <point x="260" y="371"/>
      <point x="260" y="750" type="curve" smooth="yes"/>
      <point x="260" y="1129"/>
      <point x="528" y="1405"/>
    </contour>
  </outline>
</glyph>
<glyph name="R" format="1">
  <unicode hex="0052"/>
  <advance width="1290" height="1706.48"/>
  <outline>
    <contour>
      <point x="315" y="0" type="line"/>
      <point x="315" y="657" type="line"/>
      <point x="640" y="657" type="line" smooth="yes"/>
      <point x="649" y="657"/>
      <point x="657" y="657"/>
      <point x="665" y="657" type="curve"/>
      <point x="1045" y="0" type="line"/>
      <point x="1200" y="0" type="line"/>
      <point x="810" y="675" type="line"/>
      <point x="1026" y="723"/>
      <point x="1151" y="869"/>
      <point x="1151" y="1081" type="curve" smooth="yes"/>
      <point x="1151" y="1343"/>
      <point x="959" y="1500"/>
      <point x="640" y="1500" type="curve" smooth="yes"/>
      <point x="180" y="1500" type="line"/>
      <point x="180" y="0" type="line"/>
    </contour>
    <contour>
      <point x="605" y="1375" type="line" smooth="yes"/>
      <point x="869" y="1375"/>
      <point x="1011" y="1274"/>
      <point x="1011" y="1080" type="curve" smooth="yes"/>
      <point x="1011" y="885"/>
      <point x="868" y="782"/>
      <point x="605" y="782" type="curve" smooth="yes"/>
      <point x="315" y="782" type="line"/>
      <point x="315" y="1375" type="line"/>
    </contour>
    <contour>
      <point x="628" y="1542" type="move" name="top"/>
    </contour>
    <contour>
      <point x="628" y="-41" type="move" name="bottom"/>
    </contour>
  </outline>
</glyph>
<glyph name="S" format="1">
  <unicode hex="0053"/>
  <advance width="1182" height="1683.12"/>
  <outline>
    <contour>
      <point x="100" y="118" type="line"/>
      <point x="225" y="22"/>
      <point x="378" y="-30"/>
      <point x="534" y="-30" type="curve" smooth="yes"/>
      <point x="828" y="-30"/>
      <point x="1042" y="148"/>
      <point x="1042" y="391" type="curve" smooth="yes"/>
      <point x="1042" y="845"/>
      <point x="290" y="816"/>
      <point x="290" y="1156" type="curve" smooth="yes"/>
      <point x="290" y="1302"/>
      <point x="432" y="1405"/>
      <point x="633" y="1405" type="curve" smooth="yes"/>
      <point x="730" y="1405"/>
      <point x="828" y="1380"/>
      <point x="912" y="1335" type="curve"/>
      <point x="967" y="1450" type="line"/>
      <point x="849" y="1503"/>
      <point x="729" y="1530"/>
      <point x="615" y="1530" type="curve" smooth="yes"/>
      <point x="344" y="1530"/>
      <point x="155" y="1374"/>
      <point x="155" y="1152" type="curve" smooth="yes"/>
      <point x="155" y="708"/>
      <point x="907" y="764"/>
      <point x="907" y="389" type="curve" smooth="yes"/>
      <point x="907" y="218"/>
      <point x="752" y="95"/>
      <point x="536" y="95" type="curve" smooth="yes"/>
      <point x="397" y="95"/>
      <point x="264" y="147"/>
      <point x="169" y="238" type="curve"/>
    </contour>
    <contour>
      <point x="574" y="1542" type="move" name="top"/>
    </contour>
    <contour>
      <point x="574" y="-41" type="move" name="bottom"/>
    </contour>
  </outline>
</glyph>
<glyph name="T" format="1">
  <unicode hex="0054"/>
  <advance width="1209" height="1706.48"/>
  <outline>
    <contour>
      <point x="60" y="1375" type="line"/>
      <point x="537" y="1375" type="line"/>
      <point x="537" y="0" type="line"/>
      <point x="672" y="0" type="line"/>
      <point x="672" y="1375" type="line"/>
      <point x="1149" y="1375" type="line"/>
      <point x="1149" y="1500" type="line"/>
      <point x="60" y="1500" type="line"/>
    </contour>
    <contour>
      <point x="604" y="1542" type="move" name="top"/>
    </contour>
    <contour>
      <point x="604" y="-41" type="move" name="bottom"/>
    </contour>
  </outline>
</glyph>
<glyph name="U" format="1">
  <unicode hex="0055"/>
  <advance width="1573" height="1706.48"/>
  <outline>
    <contour>
      <point x="180" y="657" type="line" smooth="yes"/>
      <point x="180" y="232"/>
      <point x="411" y="-30"/>
      <point x="787" y="-30" type="curve" smooth="yes"/>
      <point x="1162" y="-30"/>
      <point x="1393" y="232"/>
      <point x="1393" y="657" type="curve" smooth="yes"/>
      <point x="1393" y="1500" type="line"/>
      <point x="1258" y="1500" type="line"/>
      <point x="1258" y="657" type="line" smooth="yes"/>
      <point x="1258" y="313"/>
      <point x="1065" y="95"/>
      <point x="787" y="95" type="curve" smooth="yes"/>
      <point x="508" y="95"/>
      <point x="315" y="313"/>
      <point x="315" y="658" type="curve" smooth="yes"/>
      <point x="315" y="1500" type="line"/>
      <point x="180" y="1500" type="line"/>
    </contour>
    <contour>
      <point x="787" y="1542" type="move" name="top"/>
    </contour>
    <contour>
      <point x="787" y="-41" type="move" name="bottom"/>
    </contour>
  </outline>
</glyph>
<glyph name="V" format="1">
  <unicode hex="0056"/>
  <advance width="1562" height="1706.48"/>
  <outline>
    <contour>
      <point x="80" y="1500" type="line"/>
      <point x="693" y="0" type="line"/>
      <point x="868" y="0" type="line"/>
      <point x="1482" y="1500" type="line"/>
      <point x="1336" y="1500" type="line"/>
      <point x="781" y="143" type="line"/>
      <point x="226" y="1500" type="line"/>
    </contour>
  </outline>
</glyph>
<glyph name="W" format="1">
  <unicode hex="0057"/>
  <advance width="2183" height="1706.48"/>
  <outline>
    <contour>
      <point x="100" y="1500" type="line"/>
      <point x="530" y="0" type="line"/>
      <point x="716" y="0" type="line"/>
      <point x="1003" y="998" type="line" smooth="yes"/>
      <point x="1044" y="1142"/>
      <point x="1070" y="1239"/>
      <point x="1092" y="1333" type="curve"/>
      <point x="1117" y="1225"/>
      <point x="1144" y="1124"/>
      <point x="1180" y="998" type="curve" smooth="yes"/>
      <point x="1466" y="0" type="line"/>
      <point x="1652" y="0" type="line"/>
      <point x="2083" y="1500" type="line"/>
      <point x="1943" y="1500" type="line"/>
      <point x="1560" y="166" type="line"/>
      <point x="1177" y="1500" type="line"/>
      <point x="1007" y="1500" type="line"/>
      <point x="624" y="166" type="line"/>
      <point x="241" y="1500" type="line"/>
    </contour>
    <contour>
      <point x="1069" y="1542" type="move" name="top"/>
    </contour>
  </outline>
</glyph>
<glyph name="X" format="1">
  <unicode hex="0058"/>
  <advance width="1474" height="1706.48"/>
  <outline>
    <contour>
      <point x="215" y="0" type="line"/>
      <point x="735" y="689" type="line"/>
      <point x="1254" y="0" type="line"/>
      <point x="1424" y="0" type="line"/>
      <point x="830" y="788" type="line"/>
      <point x="1368" y="1500" type="line"/>
      <point x="1202" y="1500" type="line"/>
      <point x="742" y="890" type="line"/>
      <point x="732" y="880" type="line"/>
      <point x="272" y="1501" type="line"/>
      <point x="101" y="1501" type="line"/>
      <point x="638" y="780" type="line"/>
      <point x="50" y="0" type="line"/>
    </contour>
  </outline>
</glyph>
<glyph name="Y" format="1">
  <unicode hex="0059"/>
  <advance width="1357" height="1706.48"/>
  <outline>
    <contour>
      <point x="40" y="1500" type="line"/>
      <point x="607" y="641" type="line"/>
      <point x="607" y="0" type="line"/>
      <point x="742" y="0" type="line"/>
      <point x="742" y="641" type="line"/>
      <point x="1317" y="1500" type="line"/>
      <point x="1165" y="1500" type="line"/>
      <point x="679" y="775" type="line"/>
      <point x="201" y="1500" type="line"/>
    </contour>
    <contour>
      <point x="678" y="1542" type="move" name="top"/>
    </contour>
  </outline>
</glyph>
<glyph name="Z" format="1">
  <unicode hex="005A"/>
  <advance width="1353" height="1706.48"/>
  <outline>
    <contour>
      <point x="1222" y="1364" type="line"/>
      <point x="1222" y="1500" type="line"/>
      <point x="140" y="1500" type="line"/>
      <point x="140" y="1375" type="line"/>
      <point x="1060" y="1375" type="line"/>
      <point x="110" y="136" type="line"/>
      <point x="110" y="0" type="line"/>
      <point x="1253" y="0" type="line"/>
      <point x="1253" y="125" type="line"/>
      <point x="272" y="125" type="line"/>
    </contour>
    <contour>
      <point x="682" y="1542" type="move" name="top"/>
    </contour>
  </outline>
</glyph>
<glyph name="backslash" format="1">
  <unicode hex="005C"/>
  <advance width="787" height="1660"/>
  <outline>
    <contour>
      <point x="10" y="1520" type="line" name="at01"/>
      <point x="647" y="-20" type="line" name="av01"/>
      <point x="777" y="-20" type="line"/>
      <point x="140" y="1520" type="line"/>
    </contour>
  </outline>
</glyph>
<glyph name="bracketright" format="1">
  <unicode hex="005D"/>
  <advance width="660" height="1660"/>
  <outline>
    <contour>
      <point x="490" y="1540" type="line" name="dv04"/>
      <point x="490" y="-290" type="line" name="dv01"/>
      <point x="110" y="-290" type="line" name="sh01"/>
      <point x="110" y="-180" type="line"/>
      <point x="370" y="-180" type="line" name="dv02"/>
      <point x="370" y="1430" type="line" name="dv03"/>
      <point x="110" y="1430" type="line" name="sh02"/>
      <point x="110" y="1540" type="line"/>
    </contour>
  </outline>
</glyph>
<glyph name="underscore" format="1">
  <unicode hex="005F"/>
  <advance width="1220" height="1660"/>
  <outline>
    <contour>
      <point x="100" y="110" type="line" name="sv01"/>
      <point x="1120" y="110" type="line"/>
      <point x="1120" y="0" type="line" name="ab01"/>
      <point x="100" y="0" type="line"/>
    </contour>
  </outline>
</glyph>
<glyph name="grave" format="1">
  <unicode hex="0060"/>
  <advance width="590" height="1660"/>
  <outline>
    <contour>
      <point x="115" y="1500" type="line"/>
      <point x="275" y="1500" type="line"/>
      <point x="475" y="1170" type="line"/>
      <point x="365" y="1170" type="line"/>
    </contour>
    <contour>
      <point x="430" y="1020" type="move" name="_top"/>
    </contour>
  </outline>
</glyph>
<glyph name="a" format="1">
  <unicode hex="0061"/>
  <advance width="1112" height="1660"/>
  <outline>
    <contour>
      <point x="138" y="291" type="curve" smooth="yes"/>
      <point x="138" y="106"/>
      <point x="279" y="-20"/>
      <point x="495" y="-20" type="curve" smooth="yes"/>
      <point x="653" y="-20"/>
      <point x="774" y="47"/>
      <point x="838" y="162" type="curve"/>
      <point x="848" y="0" type="line"/>
      <point x="962" y="0" type="line"/>
      <point x="962" y="600" type="line" smooth="yes"/>
      <point x="962" y="867"/>
      <point x="795" y="1020"/>
      <point x="557" y="1020" type="curve" smooth="yes"/>
      <point x="458" y="1020"/>
      <point x="342" y="993"/>
      <point x="222" y="929" type="curve"/>
      <point x="268" y="819" type="line"/>
      <point x="365" y="874"/>
      <point x="459" y="900"/>
      <point x="542" y="900" type="curve" smooth="yes"/>
      <point x="711" y="900"/>
      <point x="832" y="791"/>
      <point x="832" y="599" type="curve" smooth="yes"/>
      <point x="832" y="562" type="line"/>
      <point x="742" y="597"/>
      <point x="642" y="617"/>
      <point x="546" y="617" type="curve" smooth="yes"/>
      <point x="300" y="617"/>
      <point x="138" y="488"/>
    </contour>
    <contour>
      <point x="563" y="497" type="curve" smooth="yes"/>
      <point x="650" y="497"/>
      <point x="748" y="478"/>
      <point x="832" y="446" type="curve"/>
      <point x="832" y="387" type="line"/>
      <point x="823" y="222"/>
      <point x="685" y="100"/>
      <point x="505" y="100" type="curve" smooth="yes"/>
      <point x="364" y="100"/>
      <point x="274" y="174"/>
      <point x="274" y="290" type="curve" smooth="yes"/>
      <point x="274" y="419"/>
      <point x="383" y="497"/>
    </contour>
    <contour>
      <point x="551" y="1039" type="move" name="top"/>
    </contour>
    <contour>
      <point x="911" y="-18" type="move" name="bottom"/>
    </contour>
  </outline>
</glyph>
<glyph name="b" format="1">
  <unicode hex="0062"/>
  <advance width="1280" height="1660"/>
  <outline>
    <contour>
      <point x="180" y="0" type="line"/>
      <point x="294" y="0" type="line"/>
      <point x="305" y="173" type="line"/>
      <point x="392" y="53"/>
      <point x="530" y="-20"/>
      <point x="692" y="-20" type="curve" smooth="yes"/>
      <point x="973" y="-20"/>
      <point x="1180" y="200"/>
      <point x="1180" y="500" type="curve" smooth="yes"/>
      <point x="1180" y="800"/>
      <point x="974" y="1020"/>
      <point x="692" y="1020" type="curve" smooth="yes"/>
      <point x="533" y="1020"/>
      <point x="397" y="950"/>
      <point x="310" y="834" type="curve"/>
      <point x="310" y="1500" type="line"/>
      <point x="180" y="1500" type="line"/>
    </contour>
    <contour>
      <point x="310" y="500" type="curve" smooth="yes"/>
      <point x="310" y="731"/>
      <point x="465" y="900"/>
      <point x="677" y="900" type="curve" smooth="yes"/>
      <point x="889" y="900"/>
      <point x="1044" y="731"/>
      <point x="1044" y="500" type="curve" smooth="yes"/>
      <point x="1044" y="269"/>
      <point x="889" y="100"/>
      <point x="677" y="100" type="curve" smooth="yes"/>
      <point x="465" y="100"/>
      <point x="310" y="269"/>
    </contour>
  </outline>
</glyph>
<glyph name="c" format="1">
  <unicode hex="0063"/>
  <advance width="1066" height="1660"/>
  <outline>
    <contour>
      <point x="876" y="207" type="line"/>
      <point x="810" y="137"/>
      <point x="721" y="100"/>
      <point x="620" y="100" type="curve" smooth="yes"/>
      <point x="403" y="100"/>
      <point x="236" y="274"/>
      <point x="236" y="500" type="curve" smooth="yes"/>
      <point x="236" y="727"/>
      <point x="403" y="900"/>
      <point x="620" y="900" type="curve" smooth="yes"/>
      <point x="721" y="900"/>
      <point x="810" y="863"/>
      <point x="876" y="793" type="curve"/>
      <point x="966" y="886" type="line"/>
      <point x="874" y="974"/>
      <point x="755" y="1020"/>
      <point x="621" y="1020" type="curve" smooth="yes"/>
      <point x="324" y="1020"/>
      <point x="100" y="796"/>
      <point x="100" y="500" type="curve" smooth="yes"/>
      <point x="100" y="204"/>
      <point x="324" y="-20"/>
      <point x="621" y="-20" type="curve" smooth="yes"/>
      <point x="757" y="-20"/>
      <point x="875" y="26"/>
      <point x="966" y="115" type="curve"/>
    </contour>
    <contour>
      <point x="627" y="-38" type="move" name="bottom"/>
    </contour>
    <contour>
      <point x="627" y="1039" type="move" name="top"/>
    </contour>
  </outline>
</glyph>
<glyph name="d" format="1">
  <unicode hex="0064"/>
  <advance width="1280" height="1660"/>
  <outline>
    <contour>
      <point x="588" y="-20" type="curve" smooth="yes"/>
      <point x="750" y="-20"/>
      <point x="888" y="53"/>
      <point x="975" y="173" type="curve"/>
      <point x="986" y="0" type="line"/>
      <point x="1100" y="0" type="line"/>
      <point x="1100" y="1500" type="line"/>
      <point x="970" y="1500" type="line"/>
      <point x="970" y="834" type="line"/>
      <point x="882" y="950"/>
      <point x="747" y="1021"/>
      <point x="588" y="1021" type="curve" smooth="yes"/>
      <point x="307" y="1021"/>
      <point x="100" y="800"/>
      <point x="100" y="500" type="curve" smooth="yes"/>
      <point x="100" y="200"/>
      <point x="307" y="-20"/>
    </contour>
    <contour>
      <point x="236" y="500" type="curve" smooth="yes"/>
      <point x="236" y="731"/>
      <point x="391" y="900"/>
      <point x="603" y="900" type="curve" smooth="yes"/>
      <point x="815" y="900"/>
      <point x="970" y="731"/>
      <point x="970" y="500" type="curve" smooth="yes"/>
      <point x="970" y="269"/>
      <point x="815" y="100"/>
      <point x="603" y="100" type="curve" smooth="yes"/>
      <point x="391" y="100"/>
      <point x="236" y="269"/>
    </contour>
    <contour>
      <point x="493" y="1696" type="move" name="top"/>
    </contour>
  </outline>
</glyph>
<glyph name="e" format="1">
  <unicode hex="0065"/>
  <advance width="1197" height="1660"/>
  <outline>
    <contour>
      <point x="645" y="-20" type="curve" smooth="yes"/>
      <point x="792" y="-20"/>
      <point x="934" y="32"/>
      <point x="1053" y="129" type="curve"/>
      <point x="978" y="229" type="line"/>
      <point x="886" y="145"/>
      <point x="772" y="100"/>
      <point x="654" y="100" type="curve" smooth="yes"/>
      <point x="448" y="100"/>
      <point x="260" y="238"/>
      <point x="236" y="459" type="curve"/>
      <point x="1097" y="459" type="line"/>
      <point x="1097" y="518" type="line" smooth="yes"/>
      <point x="1097" y="808"/>
      <point x="891" y="1020"/>
      <point x="609" y="1020" type="curve" smooth="yes"/>
      <point x="319" y="1020"/>
      <point x="100" y="798"/>
      <point x="100" y="505" type="curve" smooth="yes"/>
      <point x="100" y="206"/>
      <point x="335" y="-20"/>
    </contour>
    <contour>
      <point x="237" y="569" type="line"/>
      <point x="263" y="762"/>
      <point x="410" y="898"/>
      <point x="603" y="898" type="curve" smooth="yes"/>
      <point x="792" y="898"/>
      <point x="932" y="767"/>
      <point x="961" y="569" type="curve"/>
    </contour>
    <contour>
      <point x="604" y="1039" type="move" name="top"/>
    </contour>
    <contour>
      <point x="838" y="-38" type="move" name="bottom"/>
    </contour>
  </outline>
</glyph>
<glyph name="f" format="1">
  <unicode hex="0066"/>
  <advance width="822" height="1660"/>
  <outline>
    <contour>
      <point x="120" y="1001" type="line"/>
      <point x="120" y="881" type="line"/>
      <point x="285" y="881" type="line"/>
      <point x="285" y="0" type="line"/>
      <point x="415" y="0" type="line"/>
      <point x="415" y="881" type="line"/>
      <point x="683" y="881" type="line"/>
      <point x="683" y="1001" type="line"/>
      <point x="415" y="1001" type="line"/>
      <point x="415" y="1224" type="line" smooth="yes"/>
      <point x="415" y="1334"/>
      <point x="482" y="1409"/>
      <point x="580" y="1409" type="curve" smooth="yes"/>
      <point x="618" y="1409"/>
      <point x="657" y="1398"/>
      <point x="695" y="1376" type="curve"/>
      <point x="742" y="1482" type="line"/>
      <point x="684" y="1514"/>
      <point x="625" y="1530"/>
      <point x="566" y="1530" type="curve" smooth="yes"/>
      <point x="402" y="1530"/>
      <point x="285" y="1404"/>
      <point x="285" y="1226" type="curve" smooth="yes"/>
      <point x="285" y="1001" type="line"/>
    </contour>
  </outline>
</glyph>
<glyph name="g" format="1">
  <unicode hex="0067"/>
  <advance width="1280" height="1660"/>
  <outline>
    <contour>
      <point x="588" y="-22" type="curve" smooth="yes"/>
      <point x="747" y="-22"/>
      <point x="882" y="49"/>
      <point x="970" y="165" type="curve"/>
      <point x="970" y="74" type="line" smooth="yes"/>
      <point x="970" y="-238"/>
      <point x="814" y="-420"/>
      <point x="548" y="-420" type="curve" smooth="yes"/>
      <point x="432" y="-420"/>
      <point x="333" y="-387"/>
      <point x="255" y="-322" type="curve"/>
      <point x="192" y="-431" type="line"/>
      <point x="289" y="-504"/>
      <point x="406" y="-540"/>
      <point x="550" y="-540" type="curve" smooth="yes"/>
      <point x="899" y="-540"/>
      <point x="1100" y="-315"/>
      <point x="1100" y="75" type="curve" smooth="yes"/>
      <point x="1100" y="1000" type="line"/>
      <point x="986" y="1000" type="line"/>
      <point x="975" y="827" type="line"/>
      <point x="888" y="946"/>
      <point x="750" y="1020"/>
      <point x="588" y="1020" type="curve" smooth="yes"/>
      <point x="307" y="1020"/>
      <point x="100" y="799"/>
      <point x="100" y="499" type="curve" smooth="yes"/>
      <point x="100" y="199"/>
      <point x="307" y="-22"/>
    </contour>
    <contour>
      <point x="603" y="900" type="curve" smooth="yes"/>
      <point x="815" y="900"/>
      <point x="970" y="730"/>
      <point x="970" y="499" type="curve" smooth="yes"/>
      <point x="970" y="268"/>
      <point x="815" y="98"/>
      <point x="603" y="98" type="curve" smooth="yes"/>
      <point x="391" y="98"/>
      <point x="236" y="268"/>
      <point x="236" y="499" type="curve" smooth="yes"/>
      <point x="236" y="730"/>
      <point x="391" y="900"/>
    </contour>
    <contour>
      <point x="601" y="1039" type="move" name="top"/>
    </contour>
  </outline>
</glyph>
<glyph name="h" format="1">
  <unicode hex="0068"/>
  <advance width="1174" height="1660"/>
  <outline>
    <contour>
      <point x="180" y="0" type="line"/>
      <point x="310" y="0" type="line"/>
      <point x="310" y="573" type="line"/>
      <point x="317" y="764"/>
      <point x="451" y="900"/>
      <point x="631" y="900" type="curve" smooth="yes"/>
      <point x="811" y="900"/>
      <point x="924" y="763"/>
      <point x="924" y="545" type="curve" smooth="yes"/>
      <point x="924" y="0" type="line"/>
      <point x="1054" y="0" type="line"/>
      <point x="1054" y="551" type="line" smooth="yes"/>
      <point x="1054" y="830"/>
      <point x="892" y="1020"/>
      <point x="654" y="1020" type="curve" smooth="yes"/>
      <point x="511" y="1020"/>
      <point x="388" y="953"/>
      <point x="310" y="842" type="curve"/>
      <point x="310" y="1500" type="line"/>
      <point x="180" y="1500" type="line"/>
    </contour>
    <contour>
      <point x="244" y="1557" type="move" name="top"/>
    </contour>
  </outline>
</glyph>
<glyph name="i" format="1">
  <unicode hex="0069"/>
  <advance width="492" height="1660"/>
  <outline>
    <contour>
      <point x="181" y="0" type="line"/>
      <point x="311" y="0" type="line"/>
      <point x="311" y="1000" type="line"/>
      <point x="181" y="1000" type="line"/>
    </contour>
    <contour>
      <point x="148" y="1422" type="curve" smooth="yes"/>
      <point x="148" y="1363"/>
      <point x="188" y="1324"/>
      <point x="246" y="1324" type="curve" smooth="yes"/>
      <point x="305" y="1324"/>
      <point x="344" y="1363"/>
      <point x="344" y="1422" type="curve" smooth="yes"/>
      <point x="344" y="1481"/>
      <point x="305" y="1520"/>
      <point x="246" y="1520" type="curve" smooth="yes"/>
      <point x="188" y="1520"/>
      <point x="148" y="1481"/>
    </contour>
    <contour>
      <point x="244" y="1039" type="move" name="top"/>
    </contour>
    <contour>
      <point x="244" y="-18" type="move" name="bottom"/>
    </contour>
  </outline>
</glyph>
<glyph name="j" format="1">
  <unicode hex="006A"/>
  <advance width="504" height="1729.72"/>
  <outline>
    <contour>
      <point x="193" y="-190" type="line" smooth="yes"/>
      <point x="193" y="-328"/>
      <point x="122" y="-403"/>
      <point x="-7" y="-403" type="curve" smooth="yes"/>
      <point x="-33" y="-403"/>
      <point x="-61" y="-400"/>
      <point x="-91" y="-394" type="curve"/>
      <point x="-91" y="-500" type="line"/>
      <point x="-45" y="-513"/>
      <point x="-2" y="-520"/>
      <point x="39" y="-520" type="curve" smooth="yes"/>
      <point x="214" y="-520"/>
      <point x="323" y="-394"/>
      <point x="323" y="-190" type="curve" smooth="yes"/>
      <point x="323" y="1000" type="line"/>
      <point x="193" y="1000" type="line"/>
    </contour>
    <contour>
      <point x="160" y="1422" type="curve" smooth="yes"/>
      <point x="160" y="1363"/>
      <point x="200" y="1324"/>
      <point x="258" y="1324" type="curve" smooth="yes"/>
      <point x="317" y="1324"/>
      <point x="356" y="1363"/>
      <point x="356" y="1422" type="curve" smooth="yes"/>
      <point x="356" y="1481"/>
      <point x="317" y="1520"/>
      <point x="258" y="1520" type="curve" smooth="yes"/>
      <point x="200" y="1520"/>
      <point x="160" y="1481"/>
    </contour>
    <contour>
      <point x="257" y="1042" type="move" name="top"/>
    </contour>
  </outline>
</glyph>
<glyph name="k" format="1">
  <unicode hex="006B"/>
  <advance width="1017" height="1729.72"/>
  <outline>
    <contour>
      <point x="180" y="1500" type="line"/>
      <point x="180" y="0" type="line"/>
      <point x="310" y="0" type="line"/>
      <point x="310" y="319" type="line"/>
      <point x="425" y="451" type="line"/>
      <point x="805" y="0" type="line"/>
      <point x="967" y="0" type="line"/>
      <point x="511" y="550" type="line"/>
      <point x="901" y="1000" type="line"/>
      <point x="751" y="1000" type="line"/>
      <point x="378" y="575" type="line"/>
      <point x="350" y="541"/>
      <point x="330" y="514"/>
      <point x="310" y="486" type="curve"/>
      <point x="310" y="1500" type="line"/>
    </contour>
    <contour>
      <point x="585" y="-42" type="move" name="bottom"/>
    </contour>
  </outline>
</glyph>
<glyph name="l" format="1">
  <unicode hex="006C"/>
  <advance width="490" height="1660"/>
  <outline>
    <contour>
      <point x="310" y="1540" type="line" name="av01"/>
      <point x="180" y="1540" type="line" name="dh01"/>
      <point x="180" y="0" type="line" name="ab01"/>
      <point x="310" y="0" type="line"/>
    </contour>
    <contour>
      <point x="235" y="1520" type="move" name="top"/>
    </contour>
    <contour>
      <point x="235" y="-20" type="move" name="bottom"/>
    </contour>
  </outline>
</glyph>
<glyph name="m" format="1">
  <unicode hex="006D"/>
  <advance width="1919" height="1729.72"/>
  <outline>
    <contour>
      <point x="180" y="1000" type="line"/>
      <point x="180" y="0" type="line"/>
      <point x="310" y="0" type="line"/>
      <point x="310" y="571" type="line"/>
      <point x="311" y="571" type="line"/>
      <point x="320" y="791"/>
      <point x="463" y="900"/>
      <point x="607" y="900" type="curve" smooth="yes"/>
      <point x="800" y="900"/>
      <point x="902" y="730"/>
      <point x="902" y="553" type="curve" smooth="yes"/>
      <point x="902" y="0" type="line"/>
      <point x="1035" y="0" type="line"/>
      <point x="1035" y="571" type="line"/>
      <point x="1044" y="791"/>
      <point x="1188" y="900"/>
      <point x="1331" y="900" type="curve" smooth="yes"/>
      <point x="1479" y="900"/>
      <point x="1627" y="784"/>
      <point x="1627" y="553" type="curve" smooth="yes"/>
      <point x="1627" y="0" type="line"/>
      <point x="1759" y="0" type="line"/>
      <point x="1759" y="583" type="line" smooth="yes"/>
      <point x="1759" y="843"/>
      <point x="1586" y="1020"/>
      <point x="1356" y="1020" type="curve" smooth="yes"/>
      <point x="1197" y="1020"/>
      <point x="1060" y="935"/>
      <point x="988" y="799" type="curve"/>
      <point x="922" y="936"/>
      <point x="790" y="1020"/>
      <point x="632" y="1020" type="curve" smooth="yes"/>
      <point x="498" y="1020"/>
      <point x="380" y="960"/>
      <point x="303" y="860" type="curve"/>
      <point x="294" y="1000" type="line"/>
    </contour>
  </outline>
</glyph>
<glyph name="n" format="1">
  <unicode hex="006E"/>
  <advance width="1214" height="1660"/>
  <outline>
    <contour>
      <point x="180" y="0" type="line"/>
      <point x="180" y="1000" type="line"/>
      <point x="294" y="1000" type="line"/>
      <point x="305" y="834" type="line"/>
      <point x="383" y="949"/>
      <point x="508" y="1020"/>
      <point x="654" y="1020" type="curve" smooth="yes"/>
      <point x="892" y="1020"/>
      <point x="1054" y="830"/>
      <point x="1054" y="551" type="curve" smooth="yes"/>
      <point x="1054" y="0" type="line"/>
      <point x="924" y="0" type="line"/>
      <point x="924" y="545" type="line" smooth="yes"/>
      <point x="924" y="763"/>
      <point x="811" y="900"/>
      <point x="631" y="900" type="curve" smooth="yes"/>
      <point x="451" y="900"/>
      <point x="317" y="764"/>
      <point x="310" y="573" type="curve"/>
      <point x="310" y="0" type="line"/>
    </contour>
    <contour>
      <point x="617" y="1039" type="move" name="top"/>
    </contour>
    <contour>
      <point x="617" y="-38" type="move" name="bottom"/>
    </contour>
  </outline>
</glyph>
<glyph name="o" format="1">
  <unicode hex="006F"/>
  <advance width="1226" height="1660"/>
  <outline>
    <contour>
      <point x="236" y="500" type="curve" smooth="yes"/>
      <point x="236" y="731"/>
      <point x="395" y="900"/>
      <point x="613" y="900" type="curve" smooth="yes"/>
      <point x="831" y="900"/>
      <point x="990" y="731"/>
      <point x="990" y="500" type="curve" smooth="yes"/>
      <point x="990" y="269"/>
      <point x="831" y="100"/>
      <point x="613" y="100" type="curve" smooth="yes"/>
      <point x="395" y="100"/>
      <point x="236" y="269"/>
    </contour>
    <contour>
      <point x="100" y="500" type="curve" smooth="yes"/>
      <point x="100" y="200"/>
      <point x="317" y="-20"/>
      <point x="613" y="-20" type="curve" smooth="yes"/>
      <point x="909" y="-20"/>
      <point x="1126" y="200"/>
      <point x="1126" y="500" type="curve" smooth="yes"/>
      <point x="1126" y="800"/>
      <point x="909" y="1020"/>
      <point x="613" y="1020" type="curve" smooth="yes"/>
      <point x="317" y="1020"/>
      <point x="100" y="800"/>
    </contour>
    <contour>
      <point x="613" y="1039" type="move" name="top"/>
    </contour>
  </outline>
</glyph>
<glyph name="p" format="1">
  <unicode hex="0070"/>
  <advance width="1314" height="1729.72"/>
  <outline>
    <contour>
      <point x="180" y="-500" type="line"/>
      <point x="310" y="-500" type="line"/>
      <point x="310" y="174" type="line"/>
      <point x="400" y="54"/>
      <point x="542" y="-20"/>
      <point x="710" y="-20" type="curve" smooth="yes"/>
      <point x="1000" y="-20"/>
      <point x="1214" y="201"/>
      <point x="1214" y="500" type="curve" smooth="yes"/>
      <point x="1214" y="799"/>
      <point x="1000" y="1020"/>
      <point x="710" y="1020" type="curve" smooth="yes"/>
      <point x="540" y="1020"/>
      <point x="395" y="944"/>
      <point x="306" y="820" type="curve"/>
      <point x="294" y="1000" type="line"/>
      <point x="180" y="1000" type="line"/>
    </contour>
    <contour>
      <point x="695" y="900" type="curve" smooth="yes"/>
      <point x="918" y="900"/>
      <point x="1081" y="731"/>
      <point x="1081" y="500" type="curve" smooth="yes"/>
      <point x="1081" y="269"/>
      <point x="917" y="100"/>
      <point x="695" y="100" type="curve" smooth="yes"/>
      <point x="473" y="100"/>
      <point x="310" y="269"/>
      <point x="310" y="500" type="curve" smooth="yes"/>
      <point x="310" y="731"/>
      <point x="472" y="900"/>
    </contour>
  </outline>
</glyph>
<glyph name="q" format="1">
  <unicode hex="0071"/>
  <advance width="1314" height="1660"/>
  <outline>
    <contour>
      <point x="604" y="1020" type="curve" smooth="yes"/>
      <point x="774" y="1020"/>
      <point x="919" y="944"/>
      <point x="1008" y="820" type="curve"/>
      <point x="1020" y="1000" type="line"/>
      <point x="1134" y="1000" type="line"/>
      <point x="1134" y="-510" type="line"/>
      <point x="1004" y="-510" type="line"/>
      <point x="1004" y="174" type="line"/>
      <point x="914" y="54"/>
      <point x="772" y="-20"/>
      <point x="604" y="-20" type="curve" smooth="yes"/>
      <point x="314" y="-20"/>
      <point x="100" y="201"/>
      <point x="100" y="500" type="curve" smooth="yes"/>
      <point x="100" y="799"/>
      <point x="314" y="1020"/>
    </contour>
    <contour>
      <point x="233" y="500" type="curve" smooth="yes"/>
      <point x="233" y="269"/>
      <point x="397" y="100"/>
      <point x="619" y="100" type="curve" smooth="yes"/>
      <point x="841" y="100"/>
      <point x="1004" y="269"/>
      <point x="1004" y="500" type="curve" smooth="yes"/>
      <point x="1004" y="731"/>
      <point x="842" y="900"/>
      <point x="619" y="900" type="curve" smooth="yes"/>
      <point x="396" y="900"/>
      <point x="233" y="731"/>
    </contour>
  </outline>
</glyph>
<glyph name="r" format="1">
  <unicode hex="0072"/>
  <advance width="750" height="1729.72"/>
  <outline>
    <contour>
      <point x="180" y="1000" type="line"/>
      <point x="180" y="0" type="line"/>
      <point x="310" y="0" type="line"/>
      <point x="310" y="534" type="line"/>
      <point x="319" y="756"/>
      <point x="449" y="900"/>
      <point x="639" y="900" type="curve" smooth="yes"/>
      <point x="662" y="900"/>
      <point x="686" y="898"/>
      <point x="711" y="893" type="curve"/>
      <point x="730" y="1014" type="line"/>
      <point x="703" y="1018"/>
      <point x="677" y="1020"/>
      <point x="652" y="1020" type="curve" smooth="yes"/>
      <point x="500" y="1020"/>
      <point x="377" y="944"/>
      <point x="306" y="817" type="curve"/>
      <point x="294" y="1000" type="line"/>
    </contour>
    <contour>
      <point x="457" y="1042" type="move" name="top"/>
    </contour>
    <contour>
      <point x="245" y="-42" type="move" name="bottom"/>
    </contour>
  </outline>
</glyph>
<glyph name="s" format="1">
  <unicode hex="0073"/>
  <advance width="871" height="1406.15"/>
  <outline>
    <contour>
      <point x="110" y="85" type="line"/>
      <point x="206" y="17"/>
      <point x="316" y="-20"/>
      <point x="425" y="-20" type="curve" smooth="yes"/>
      <point x="629" y="-20"/>
      <point x="761" y="90"/>
      <point x="761" y="260" type="curve" smooth="yes"/>
      <point x="761" y="577"/>
      <point x="269" y="562"/>
      <point x="269" y="764" type="curve" smooth="yes"/>
      <point x="269" y="845"/>
      <point x="348" y="900"/>
      <point x="465" y="900" type="curve" smooth="yes"/>
      <point x="531" y="900"/>
      <point x="600" y="883"/>
      <point x="663" y="851" type="curve"/>
      <point x="716" y="951" type="line"/>
      <point x="637" y="996"/>
      <point x="550" y="1020"/>
      <point x="464" y="1020" type="curve" smooth="yes"/>
      <point x="275" y="1020"/>
      <point x="139" y="909"/>
      <point x="139" y="756" type="curve" smooth="yes"/>
      <point x="139" y="455"/>
      <point x="631" y="512"/>
      <point x="631" y="260" type="curve" smooth="yes"/>
      <point x="631" y="162"/>
      <point x="558" y="100"/>
      <point x="443" y="100" type="curve" smooth="yes"/>
      <point x="347" y="100"/>
      <point x="225" y="137"/>
      <point x="163" y="186" type="curve"/>
    </contour>
    <contour>
      <point x="433" y="1042" type="move" name="top"/>
    </contour>
    <contour>
      <point x="433" y="-42" type="move" name="bottom"/>
    </contour>
  </outline>
</glyph>
<glyph name="t" format="1">
  <unicode hex="0074"/>
  <advance width="826" height="1729.72"/>
  <outline>
    <contour>
      <point x="282" y="880" type="line"/>
      <point x="282" y="292" type="line" smooth="yes"/>
      <point x="282" y="90"/>
      <point x="383" y="-21"/>
      <point x="568" y="-21" type="curve" smooth="yes"/>
      <point x="621" y="-21"/>
      <point x="662" y="-12"/>
      <point x="696" y="1" type="curve"/>
      <point x="696" y="106" type="line"/>
      <point x="665" y="97"/>
      <point x="634" y="94"/>
      <point x="606" y="94" type="curve" smooth="yes"/>
      <point x="474" y="94"/>
      <point x="412" y="159"/>
      <point x="412" y="306" type="curve" smooth="yes"/>
      <point x="412" y="880" type="line"/>
      <point x="696" y="880" type="line"/>
      <point x="696" y="1000" type="line"/>
      <point x="412" y="1000" type="line"/>
      <point x="412" y="1250" type="line"/>
      <point x="282" y="1250" type="line"/>
      <point x="282" y="1000" type="line"/>
      <point x="110" y="1000" type="line"/>
      <point x="110" y="880" type="line"/>
    </contour>
    <contour>
      <point x="641" y="1042" type="move" name="top"/>
    </contour>
    <contour>
      <point x="403" y="-42" type="move" name="bottom"/>
    </contour>
  </outline>
</glyph>
<glyph name="u" format="1">
  <unicode hex="0075"/>
  <advance width="1214" height="1660"/>
  <outline>
    <contour>
      <point x="160" y="1000" type="line"/>
      <point x="160" y="449" type="line" smooth="yes"/>
      <point x="160" y="170"/>
      <point x="322" y="-20"/>
      <point x="560" y="-20" type="curve" smooth="yes"/>
      <point x="706" y="-20"/>
      <point x="831" y="51"/>
      <point x="909" y="166" type="curve"/>
      <point x="920" y="0" type="line"/>
      <point x="1034" y="0" type="line"/>
      <point x="1034" y="1000" type="line"/>
      <point x="904" y="1000" type="line"/>
      <point x="904" y="427" type="line"/>
      <point x="897" y="236"/>
      <point x="763" y="100"/>
      <point x="583" y="100" type="curve" smooth="yes"/>
      <point x="403" y="100"/>
      <point x="290" y="237"/>
      <point x="290" y="455" type="curve" smooth="yes"/>
      <point x="290" y="1000" type="line"/>
    </contour>
    <contour>
      <point x="597" y="1039" type="move" name="top"/>
    </contour>
    <contour>
      <point x="597" y="-38" type="move" name="bottom"/>
    </contour>
  </outline>
</glyph>
<glyph name="v" format="1">
  <unicode hex="0076"/>
  <advance width="1054" height="1729.72"/>
  <outline>
    <contour>
      <point x="40" y="1000" type="line"/>
      <point x="455" y="0" type="line"/>
      <point x="599" y="0" type="line"/>
      <point x="1014" y="1000" type="line"/>
      <point x="879" y="1000" type="line"/>
      <point x="608" y="345" type="line" smooth="yes"/>
      <point x="581" y="280"/>
      <point x="553" y="202"/>
      <point x="530" y="127" type="curve"/>
      <point x="512" y="189"/>
      <point x="483" y="272"/>
      <point x="453" y="344" type="curve" smooth="yes"/>
      <point x="182" y="1000" type="line"/>
    </contour>
  </outline>
</glyph>
<glyph name="w" format="1">
  <unicode hex="0077"/>
  <advance width="1641" height="1729.72"/>
  <outline>
    <contour>
      <point x="63" y="1000" type="line"/>
      <point x="399" y="0" type="line"/>
      <point x="539" y="0" type="line"/>
      <point x="792" y="754" type="line" smooth="yes"/>
      <point x="803" y="787"/>
      <point x="812" y="817"/>
      <point x="820" y="845" type="curve"/>
      <point x="828" y="817"/>
      <point x="838" y="787"/>
      <point x="849" y="754" type="curve" smooth="yes"/>
      <point x="1102" y="0" type="line"/>
      <point x="1243" y="0" type="line"/>
      <point x="1578" y="1000" type="line"/>
      <point x="1447" y="1000" type="line"/>
      <point x="1170" y="172" type="line"/>
      <point x="892" y="1000" type="line"/>
      <point x="750" y="1000" type="line"/>
      <point x="475" y="180" type="line"/>
      <point x="200" y="1000" type="line"/>
    </contour>
    <contour>
      <point x="825" y="1042" type="move" name="top"/>
    </contour>
  </outline>
</glyph>
<glyph name="x" format="1">
  <unicode hex="0078"/>
  <advance width="1104" height="1729.72"/>
  <outline>
    <contour>
      <point x="226" y="0" type="line"/>
      <point x="547" y="419" type="line"/>
      <point x="870" y="0" type="line"/>
      <point x="1034" y="0" type="line"/>
      <point x="640" y="512" type="line"/>
      <point x="1015" y="1000" type="line"/>
      <point x="859" y="1000" type="line"/>
      <point x="562" y="614" type="line"/>
      <point x="265" y="1000" type="line"/>
      <point x="101" y="1000" type="line"/>
      <point x="469" y="521" type="line"/>
      <point x="70" y="0" type="line"/>
    </contour>
  </outline>
</glyph>
<glyph name="y" format="1">
  <unicode hex="0079"/>
  <advance width="1136" height="1729.72"/>
  <outline>
    <contour>
      <point x="100" y="1000" type="line"/>
      <point x="549" y="11" type="line"/>
      <point x="329" y="-520" type="line"/>
      <point x="466" y="-520" type="line"/>
      <point x="1096" y="1000" type="line"/>
      <point x="959" y="1000" type="line"/>
      <point x="606" y="147" type="line"/>
      <point x="578" y="239"/>
      <point x="543" y="326"/>
      <point x="487" y="448" type="curve" smooth="yes"/>
      <point x="235" y="1000" type="line"/>
    </contour>
    <contour>
      <point x="597" y="1042" type="move" name="top"/>
    </contour>
  </outline>
</glyph>
<glyph name="z" format="1">
  <unicode hex="007A"/>
  <advance width="1067" height="1683.75"/>
  <outline>
    <contour>
      <point x="909" y="886" type="line"/>
      <point x="909" y="1000" type="line"/>
      <point x="164" y="1000" type="line"/>
      <point x="164" y="880" type="line"/>
      <point x="742" y="880" type="line"/>
      <point x="135" y="114" type="line"/>
      <point x="135" y="0" type="line"/>
      <point x="932" y="0" type="line"/>
      <point x="932" y="120" type="line"/>
      <point x="302" y="120" type="line"/>
    </contour>
    <contour>
      <point x="534" y="1042" type="move" name="top"/>
    </contour>
  </outline>
</glyph>
<glyph name="braceleft" format="1">
  <unicode hex="007B"/>
  <advance width="654" height="1697.63"/>
  <outline>
    <contour>
      <point x="254" y="389" type="curve" smooth="yes"/>
      <point x="254" y="-31" type="line" smooth="yes"/>
      <point x="254" y="-207"/>
      <point x="348" y="-297"/>
      <point x="534" y="-297" type="curve"/>
      <point x="534" y="-198" type="line"/>
      <point x="419" y="-193"/>
      <point x="374" y="-147"/>
      <point x="374" y="-31" type="curve" smooth="yes"/>
      <point x="374" y="319" type="line" smooth="yes"/>
      <point x="374" y="438"/>
      <point x="347" y="568"/>
      <point x="228" y="621" type="curve"/>
      <point x="237" y="626"/>
      <point x="246" y="630"/>
      <point x="254" y="635" type="curve" smooth="yes"/>
      <point x="335" y="686"/>
      <point x="374" y="780"/>
      <point x="374" y="924" type="curve" smooth="yes"/>
      <point x="374" y="1274" type="line" smooth="yes"/>
      <point x="374" y="1391"/>
      <point x="418" y="1436"/>
      <point x="534" y="1441" type="curve"/>
      <point x="534" y="1540" type="line"/>
      <point x="348" y="1540"/>
      <point x="254" y="1450"/>
      <point x="254" y="1274" type="curve" smooth="yes"/>
      <point x="254" y="854" type="line" smooth="yes"/>
      <point x="254" y="747"/>
      <point x="188" y="668"/>
      <point x="90" y="661" type="curve"/>
      <point x="90" y="582" type="line"/>
      <point x="188" y="575"/>
      <point x="254" y="496"/>
    </contour>
  </outline>
</glyph>
<glyph name="braceright" format="1">
  <unicode hex="007D"/>
  <advance width="654" height="1660"/>
  <outline>
    <contour>
      <point x="280" y="-31" type="curve" smooth="yes"/>
      <point x="280" y="319" type="line" smooth="yes"/>
      <point x="280" y="438"/>
      <point x="307" y="568"/>
      <point x="426" y="621" type="curve"/>
      <point x="417" y="626"/>
      <point x="408" y="630"/>
      <point x="400" y="635" type="curve" smooth="yes"/>
      <point x="319" y="686"/>
      <point x="280" y="780"/>
      <point x="280" y="924" type="curve" smooth="yes"/>
      <point x="280" y="1274" type="line" smooth="yes"/>
      <point x="280" y="1391"/>
      <point x="236" y="1436"/>
      <point x="120" y="1441" type="curve"/>
      <point x="120" y="1540" type="line"/>
      <point x="306" y="1540"/>
      <point x="400" y="1450"/>
      <point x="400" y="1274" type="curve" smooth="yes"/>
      <point x="400" y="854" type="line" smooth="yes"/>
      <point x="400" y="747"/>
      <point x="466" y="668"/>
      <point x="564" y="661" type="curve"/>
      <point x="564" y="582" type="line"/>
      <point x="466" y="575"/>
      <point x="400" y="496"/>
      <point x="400" y="389" type="curve" smooth="yes"/>
      <point x="400" y="-31" type="line" smooth="yes"/>
      <point x="400" y="-207"/>
      <point x="306" y="-297"/>
      <point x="120" y="-297" type="curve"/>
      <point x="120" y="-198" type="line"/>
      <point x="235" y="-193"/>
      <point x="280" y="-147"/>
    </contour>
  </outline>
</glyph>
<glyph name="exclamdown" format="1">
  <unicode hex="00A1"/>
  <advance width="551"/>
  <outline>
    <contour>
      <point x="316" y="609" type="line"/>
      <point x="330" y="382"/>
      <point x="335" y="250"/>
      <point x="335" y="17" type="curve" smooth="yes"/>
      <point x="335" y="-500" type="line"/>
      <point x="221" y="-500" type="line"/>
      <point x="221" y="17" type="line" smooth="yes"/>
      <point x="221" y="256"/>
      <point x="225" y="371"/>
      <point x="241" y="609" type="curve"/>
    </contour>
    <contour>
      <point x="180" y="922" type="curve" smooth="yes"/>
      <point x="180" y="981"/>
      <point x="219" y="1020"/>
      <point x="278" y="1020" type="curve" smooth="yes"/>
      <point x="337" y="1020"/>
      <point x="376" y="981"/>
      <point x="376" y="922" type="curve" smooth="yes"/>
      <point x="376" y="863"/>
      <point x="337" y="824"/>
      <point x="278" y="824" type="curve" smooth="yes"/>
      <point x="219" y="824"/>
      <point x="180" y="863"/>
    </contour>
  </outline>
</glyph>
<glyph name="cent" format="1">
  <unicode hex="00A2"/>
  <advance width="1066"/>
  <outline>
    <contour>
      <point x="562" y="133" type="curve"/>
      <point x="562" y="-60" type="line" name="av01"/>
      <point x="682" y="-60" type="line"/>
      <point x="682" y="133" type="line"/>
      <point x="792" y="145"/>
      <point x="889" y="190"/>
      <point x="966" y="265" type="curve"/>
      <point x="876" y="357" type="line"/>
      <point x="809" y="286"/>
      <point x="717" y="250"/>
      <point x="620" y="250" type="curve" smooth="yes"/>
      <point x="398" y="250"/>
      <point x="236" y="430"/>
      <point x="236" y="650" type="curve" smooth="yes"/>
      <point x="236" y="871"/>
      <point x="397" y="1050"/>
      <point x="620" y="1050" type="curve" smooth="yes"/>
      <point x="717" y="1050"/>
      <point x="809" y="1014"/>
      <point x="876" y="943" type="curve"/>
      <point x="966" y="1036" type="line"/>
      <point x="888" y="1110"/>
      <point x="791" y="1155"/>
      <point x="682" y="1167" type="curve"/>
      <point x="682" y="1360" type="line" name="av02"/>
      <point x="562" y="1360" type="line" name="sh02"/>
      <point x="562" y="1167" type="line"/>
      <point x="295" y="1139"/>
      <point x="100" y="926"/>
      <point x="100" y="650" type="curve" smooth="yes"/>
      <point x="100" y="374"/>
      <point x="295" y="161"/>
    </contour>
  </outline>
</glyph>
<glyph name="sterling" format="1">
  <unicode hex="00A3"/>
  <advance width="1212"/>
  <outline>
    <contour>
      <point x="472" y="796" type="line"/>
      <point x="442" y="899"/>
      <point x="409" y="995"/>
      <point x="409" y="1092" type="curve" smooth="yes"/>
      <point x="409" y="1275"/>
      <point x="527" y="1400"/>
      <point x="687" y="1400" type="curve" smooth="yes"/>
      <point x="785" y="1400"/>
      <point x="879" y="1353"/>
      <point x="954" y="1265" type="curve"/>
      <point x="1036" y="1344" type="line"/>
      <point x="960" y="1457"/>
      <point x="834" y="1520"/>
      <point x="685" y="1520" type="curve" smooth="yes"/>
      <point x="444" y="1520"/>
      <point x="279" y="1355"/>
      <point x="279" y="1109" type="curve" smooth="yes"/>
      <point x="279" y="1002"/>
      <point x="310" y="899"/>
      <point x="339" y="796" type="curve"/>
      <point x="170" y="796" type="line"/>
      <point x="170" y="696" type="line"/>
      <point x="366" y="696" type="line"/>
      <point x="381" y="636"/>
      <point x="391" y="576"/>
      <point x="391" y="516" type="curve" smooth="yes"/>
      <point x="391" y="369"/>
      <point x="329" y="233"/>
      <point x="190" y="75" type="curve"/>
      <point x="190" y="0" type="line"/>
      <point x="1042" y="0" type="line"/>
      <point x="1042" y="120" type="line"/>
      <point x="355" y="120" type="line"/>
      <point x="465" y="242"/>
      <point x="518" y="373"/>
      <point x="518" y="524" type="curve" smooth="yes"/>
      <point x="518" y="584"/>
      <point x="510" y="641"/>
      <point x="498" y="696" type="curve"/>
      <point x="861" y="696" type="line"/>
      <point x="861" y="796" type="line"/>
    </contour>
  </outline>
</glyph>
<glyph name="currency" format="1">
  <unicode hex="00A4"/>
  <advance width="1340"/>
  <outline>
    <contour>
      <point x="160" y="1181" type="line"/>
      <point x="313" y="1028" type="line"/>
      <point x="257" y="953"/>
      <point x="224" y="858"/>
      <point x="224" y="750" type="curve" smooth="yes"/>
      <point x="224" y="641"/>
      <point x="257" y="545"/>
      <point x="314" y="470" type="curve"/>
      <point x="160" y="318" type="line"/>
      <point x="238" y="240" type="line"/>
      <point x="391" y="393" type="line"/>
      <point x="466" y="335"/>
      <point x="562" y="302"/>
      <point x="670" y="302" type="curve" smooth="yes"/>
      <point x="778" y="302"/>
      <point x="874" y="335"/>
      <point x="949" y="392" type="curve"/>
      <point x="1101" y="240" type="line"/>
      <point x="1180" y="318" type="line"/>
      <point x="1026" y="470" type="line"/>
      <point x="1083" y="545"/>
      <point x="1116" y="641"/>
      <point x="1116" y="750" type="curve" smooth="yes"/>
      <point x="1116" y="858"/>
      <point x="1084" y="953"/>
      <point x="1027" y="1027" type="curve"/>
      <point x="1180" y="1181" type="line"/>
      <point x="1101" y="1260" type="line"/>
      <point x="948" y="1107" type="line"/>
      <point x="874" y="1163"/>
      <point x="778" y="1196"/>
      <point x="670" y="1196" type="curve" smooth="yes"/>
      <point x="562" y="1196"/>
      <point x="466" y="1163"/>
      <point x="392" y="1106" type="curve"/>
      <point x="238" y="1260" type="line"/>
    </contour>
    <contour>
      <point x="334" y="750" type="curve" smooth="yes"/>
      <point x="334" y="943"/>
      <point x="472" y="1092"/>
      <point x="670" y="1092" type="curve" smooth="yes"/>
      <point x="865" y="1092"/>
      <point x="1006" y="948"/>
      <point x="1006" y="750" type="curve" smooth="yes"/>
      <point x="1006" y="552"/>
      <point x="867" y="406"/>
      <point x="670" y="406" type="curve" smooth="yes"/>
      <point x="475" y="406"/>
      <point x="334" y="551"/>
    </contour>
  </outline>
</glyph>
<glyph name="yen" format="1">
  <unicode hex="00A5"/>
  <advance width="1276"/>
  <outline>
    <contour>
      <point x="543" y="744" type="line"/>
      <point x="203" y="744" type="line"/>
      <point x="203" y="644" type="line"/>
      <point x="572" y="644" type="line"/>
      <point x="572" y="473" type="line"/>
      <point x="203" y="473" type="line"/>
      <point x="203" y="373" type="line"/>
      <point x="572" y="373" type="line"/>
      <point x="572" y="0" type="line"/>
      <point x="702" y="0" type="line"/>
      <point x="702" y="373" type="line"/>
      <point x="1070" y="373" type="line"/>
      <point x="1070" y="473" type="line"/>
      <point x="702" y="473" type="line"/>
      <point x="702" y="644" type="line"/>
      <point x="1070" y="644" type="line"/>
      <point x="1070" y="744" type="line"/>
      <point x="732" y="744" type="line"/>
      <point x="1176" y="1500" type="line"/>
      <point x="1033" y="1500" type="line"/>
      <point x="639" y="827" type="line"/>
      <point x="246" y="1500" type="line"/>
      <point x="100" y="1500" type="line"/>
    </contour>
  </outline>
</glyph>
<glyph name="brokenbar" format="1">
  <unicode hex="00A6"/>
  <advance width="460"/>
  <outline>
    <contour>
      <point x="290" y="820" type="line"/>
      <point x="290" y="1540" type="line" name="av01"/>
      <point x="170" y="1540" type="line" name="dh01"/>
      <point x="170" y="820" type="line"/>
    </contour>
    <contour>
      <point x="170" y="470" type="line" name="sh02"/>
      <point x="170" y="-250" type="line" name="av02"/>
      <point x="290" y="-250" type="line"/>
      <point x="290" y="470" type="line" name="sh01"/>
    </contour>
  </outline>
</glyph>
<glyph name="section" format="1">
  <unicode hex="00A7"/>
  <advance width="1060"/>
  <outline>
    <contour>
      <point x="160" y="724" type="curve" smooth="yes"/>
      <point x="160" y="354"/>
      <point x="725" y="406"/>
      <point x="725" y="154" type="curve" smooth="yes"/>
      <point x="725" y="49"/>
      <point x="628" y="-28"/>
      <point x="497" y="-28" type="curve" smooth="yes"/>
      <point x="426" y="-28"/>
      <point x="349" y="-5"/>
      <point x="252" y="45" type="curve"/>
      <point x="194" y="-62" type="line"/>
      <point x="297" y="-111"/>
      <point x="401" y="-136"/>
      <point x="500" y="-136" type="curve" smooth="yes"/>
      <point x="716" y="-136"/>
      <point x="861" y="-15"/>
      <point x="861" y="163" type="curve" smooth="yes"/>
      <point x="861" y="269"/>
      <point x="810" y="336"/>
      <point x="737" y="386" type="curve"/>
      <point x="851" y="474"/>
      <point x="900" y="561"/>
      <point x="900" y="670" type="curve" smooth="yes"/>
      <point x="900" y="1040"/>
      <point x="335" y="988"/>
      <point x="335" y="1240" type="curve" smooth="yes"/>
      <point x="335" y="1345"/>
      <point x="432" y="1422"/>
      <point x="563" y="1422" type="curve" smooth="yes"/>
      <point x="634" y="1422"/>
      <point x="711" y="1399"/>
      <point x="808" y="1349" type="curve"/>
      <point x="866" y="1456" type="line"/>
      <point x="763" y="1505"/>
      <point x="659" y="1530"/>
      <point x="560" y="1530" type="curve" smooth="yes"/>
      <point x="344" y="1530"/>
      <point x="199" y="1409"/>
      <point x="199" y="1231" type="curve" smooth="yes"/>
      <point x="199" y="1125"/>
      <point x="250" y="1058"/>
      <point x="323" y="1008" type="curve"/>
      <point x="209" y="920"/>
      <point x="160" y="833"/>
    </contour>
    <contour>
      <point x="780" y="656" type="curve" smooth="yes"/>
      <point x="780" y="571"/>
      <point x="735" y="494"/>
      <point x="653" y="433" type="curve"/>
      <point x="487" y="514"/>
      <point x="280" y="556"/>
      <point x="280" y="738" type="curve" smooth="yes"/>
      <point x="280" y="823"/>
      <point x="325" y="900"/>
      <point x="407" y="961" type="curve"/>
      <point x="573" y="880"/>
      <point x="780" y="838"/>
    </contour>
  </outline>
</glyph>
<glyph name="dieresis" format="1">
  <unicode hex="00A8"/>
  <advance width="940"/>
  <outline>
    <contour>
      <point x="160" y="1337" type="curve" smooth="yes"/>
      <point x="160" y="1279"/>
      <point x="199" y="1239"/>
      <point x="258" y="1239" type="curve" smooth="yes"/>
      <point x="317" y="1239"/>
      <point x="356" y="1279"/>
      <point x="356" y="1337" type="curve" smooth="yes"/>
      <point x="356" y="1396"/>
      <point x="317" y="1435"/>
      <point x="258" y="1435" type="curve" smooth="yes"/>
      <point x="199" y="1435"/>
      <point x="160" y="1396"/>
    </contour>
    <contour>
      <point x="582" y="1337" type="curve" smooth="yes"/>
      <point x="582" y="1279"/>
      <point x="621" y="1239"/>
      <point x="680" y="1239" type="curve" smooth="yes"/>
      <point x="739" y="1239"/>
      <point x="778" y="1279"/>
      <point x="778" y="1337" type="curve" smooth="yes"/>
      <point x="778" y="1396"/>
      <point x="739" y="1435"/>
      <point x="680" y="1435" type="curve" smooth="yes"/>
      <point x="621" y="1435"/>
      <point x="582" y="1396"/>
    </contour>
    <contour>
      <point x="468" y="1020" type="move" name="_top"/>
    </contour>
  </outline>
</glyph>
<glyph name="copyright" format="1">
  <unicode hex="00A9"/>
  <advance width="1399"/>
  <outline>
    <contour>
      <point x="886" y="337" type="line"/>
      <point x="836" y="291"/>
      <point x="777" y="266"/>
      <point x="716" y="266" type="curve" smooth="yes"/>
      <point x="595" y="266"/>
      <point x="507" y="362"/>
      <point x="507" y="493" type="curve" smooth="yes"/>
      <point x="507" y="625"/>
      <point x="598" y="723"/>
      <point x="719" y="723" type="curve" smooth="yes"/>
      <point x="780" y="723"/>
      <point x="838" y="698"/>
      <point x="886" y="652" type="curve"/>
      <point x="958" y="724" type="line"/>
      <point x="890" y="783"/>
      <point x="806" y="815"/>
      <point x="717" y="815" type="curve" smooth="yes"/>
      <point x="534" y="815"/>
      <point x="400" y="679"/>
      <point x="400" y="495" type="curve" smooth="yes"/>
      <point x="400" y="310"/>
      <point x="534" y="174"/>
      <point x="717" y="174" type="curve" smooth="yes"/>
      <point x="806" y="174"/>
      <point x="889" y="205"/>
      <point x="958" y="265" type="curve"/>
    </contour>
    <contour>
      <point x="195" y="495" type="curve" smooth="yes"/>
      <point x="195" y="788"/>
      <point x="410" y="1005"/>
      <point x="700" y="1005" type="curve" smooth="yes"/>
      <point x="989" y="1005"/>
      <point x="1204" y="787"/>
      <point x="1204" y="495" type="curve" smooth="yes"/>
      <point x="1204" y="201"/>
      <point x="991" y="-15"/>
      <point x="700" y="-15" type="curve" smooth="yes"/>
      <point x="408" y="-15"/>
      <point x="195" y="200"/>
    </contour>
    <contour>
      <point x="100" y="495" type="curve" smooth="yes"/>
      <point x="100" y="149"/>
      <point x="353" y="-104"/>
      <point x="700" y="-104" type="curve" smooth="yes"/>
      <point x="1046" y="-104"/>
      <point x="1299" y="149"/>
      <point x="1299" y="495" type="curve" smooth="yes"/>
      <point x="1299" y="840"/>
      <point x="1046" y="1093"/>
      <point x="700" y="1093" type="curve" smooth="yes"/>
      <point x="353" y="1093"/>
      <point x="100" y="840"/>
    </contour>
  </outline>
</glyph>
<glyph name="ordfeminine" format="1">
  <unicode hex="00AA"/>
  <advance width="874"/>
  <outline>
    <contour>
      <point x="100" y="1025" type="curve" smooth="yes"/>
      <point x="100" y="894"/>
      <point x="206" y="803"/>
      <point x="360" y="803" type="curve" smooth="yes"/>
      <point x="471" y="803"/>
      <point x="557" y="849"/>
      <point x="604" y="928" type="curve"/>
      <point x="612" y="810" type="line"/>
      <point x="701" y="810" type="line"/>
      <point x="701" y="1220" type="line" smooth="yes"/>
      <point x="701" y="1403"/>
      <point x="584" y="1520"/>
      <point x="396" y="1520" type="curve" smooth="yes"/>
      <point x="321" y="1520"/>
      <point x="253" y="1501"/>
      <point x="159" y="1454" type="curve"/>
      <point x="196" y="1370" type="line"/>
      <point x="270" y="1411"/>
      <point x="333" y="1430"/>
      <point x="396" y="1430" type="curve" smooth="yes"/>
      <point x="523" y="1430"/>
      <point x="601" y="1351"/>
      <point x="601" y="1224" type="curve" smooth="yes"/>
      <point x="601" y="1218" type="line"/>
      <point x="542" y="1239"/>
      <point x="472" y="1250"/>
      <point x="402" y="1250" type="curve" smooth="yes"/>
      <point x="216" y="1250"/>
      <point x="100" y="1164"/>
    </contour>
    <contour>
      <point x="207" y="1022" type="curve" smooth="yes"/>
      <point x="207" y="1108"/>
      <point x="282" y="1160"/>
      <point x="406" y="1160" type="curve" smooth="yes"/>
      <point x="468" y="1160"/>
      <point x="539" y="1147"/>
      <point x="601" y="1125" type="curve"/>
      <point x="601" y="1093" type="line"/>
      <point x="600" y="1093" type="line"/>
      <point x="600" y="983"/>
      <point x="496" y="893"/>
      <point x="369" y="893" type="curve" smooth="yes"/>
      <point x="271" y="893"/>
      <point x="207" y="944"/>
    </contour>
  </outline>
</glyph>
<glyph name="guillemotleft" format="1">
  <unicode hex="00AB"/>
  <advance width="1159"/>
  <outline>
    <contour>
      <point x="505" y="497" type="line"/>
      <point x="828" y="111" type="line"/>
      <point x="975" y="111" type="line"/>
      <point x="643" y="497" type="line"/>
      <point x="975" y="882" type="line"/>
      <point x="828" y="882" type="line"/>
    </contour>
    <contour>
      <point x="423" y="111" type="line"/>
      <point x="570" y="111" type="line"/>
      <point x="237" y="497" type="line"/>
      <point x="570" y="882" type="line"/>
      <point x="423" y="882" type="line"/>
      <point x="100" y="497" type="line"/>
    </contour>
  </outline>
</glyph>
<glyph name="logicalnot" format="1">
  <unicode hex="00AC"/>
  <advance width="1141"/>
  <outline>
    <contour>
      <point x="160" y="461" type="line"/>
      <point x="855" y="461" type="line"/>
      <point x="855" y="144" type="line"/>
      <point x="965" y="144" type="line"/>
      <point x="965" y="561" type="line"/>
      <point x="160" y="561" type="line"/>
    </contour>
  </outline>
</glyph>
<glyph name="registered" format="1">
  <unicode hex="00AE"/>
  <advance width="1399"/>
  <outline>
    <contour>
      <point x="700" y="424" type="curve" smooth="yes"/>
      <point x="1046" y="424"/>
      <point x="1299" y="677"/>
      <point x="1299" y="1023" type="curve" smooth="yes"/>
      <point x="1299" y="1369"/>
      <point x="1046" y="1622"/>
      <point x="700" y="1622" type="curve" smooth="yes"/>
      <point x="353" y="1622"/>
      <point x="100" y="1369"/>
      <point x="100" y="1023" type="curve" smooth="yes"/>
      <point x="100" y="677"/>
      <point x="353" y="424"/>
    </contour>
    <contour>
      <point x="195" y="1023" type="curve" smooth="yes"/>
      <point x="195" y="1316"/>
      <point x="409" y="1533"/>
      <point x="700" y="1533" type="curve" smooth="yes"/>
      <point x="989" y="1533"/>
      <point x="1204" y="1316"/>
      <point x="1204" y="1023" type="curve" smooth="yes"/>
      <point x="1204" y="729"/>
      <point x="991" y="513"/>
      <point x="700" y="513" type="curve" smooth="yes"/>
      <point x="408" y="513"/>
      <point x="195" y="728"/>
    </contour>
    <contour>
      <point x="587" y="702" type="line"/>
      <point x="587" y="969" type="line"/>
      <point x="702" y="969" type="line"/>
      <point x="890" y="702" type="line"/>
      <point x="1001" y="702" type="line"/>
      <point x="806" y="980" type="line"/>
      <point x="901" y="1004"/>
      <point x="953" y="1065"/>
      <point x="953" y="1156" type="curve" smooth="yes"/>
      <point x="953" y="1276"/>
      <point x="864" y="1344"/>
      <point x="706" y="1344" type="curve" smooth="yes"/>
      <point x="497" y="1344" type="line"/>
      <point x="497" y="702" type="line"/>
    </contour>
    <contour>
      <point x="587" y="1049" type="line"/>
      <point x="587" y="1264" type="line"/>
      <point x="716" y="1264" type="line" smooth="yes"/>
      <point x="806" y="1264"/>
      <point x="858" y="1225"/>
      <point x="858" y="1156" type="curve" smooth="yes"/>
      <point x="858" y="1088"/>
      <point x="807" y="1049"/>
      <point x="716" y="1049" type="curve" smooth="yes"/>
    </contour>
  </outline>
</glyph>
<glyph name="macron" format="1">
  <unicode hex="00AF"/>
  <advance width="940"/>
  <outline>
    <contour>
      <point x="160" y="1405" type="line" name="av01"/>
      <point x="780" y="1405" type="line"/>
      <point x="780" y="1305" type="line" name="av02"/>
      <point x="160" y="1305" type="line"/>
    </contour>
    <contour>
      <point x="470" y="1020" type="move" name="_top"/>
    </contour>
  </outline>
</glyph>
<glyph name="degree" format="1">
  <unicode hex="00B0"/>
  <advance width="819"/>
  <outline>
    <contour>
      <point x="260" y="1270" type="curve" smooth="yes" name="sh02"/>
      <point x="260" y="1177"/>
      <point x="322" y="1110"/>
      <point x="410" y="1110" type="curve" smooth="yes"/>
      <point x="497" y="1110"/>
      <point x="560" y="1177"/>
      <point x="560" y="1270" type="curve" smooth="yes" name="ah01"/>
      <point x="560" y="1363"/>
      <point x="497" y="1430"/>
      <point x="410" y="1430" type="curve" smooth="yes"/>
      <point x="322" y="1430"/>
      <point x="260" y="1363"/>
    </contour>
    <contour>
      <point x="160" y="1270" type="curve" smooth="yes" name="sh01"/>
      <point x="160" y="1415"/>
      <point x="266" y="1520"/>
      <point x="410" y="1520" type="curve" smooth="yes" name="at01"/>
      <point x="554" y="1520"/>
      <point x="660" y="1414"/>
      <point x="660" y="1270" type="curve" smooth="yes" name="sh03"/>
      <point x="660" y="1126"/>
      <point x="555" y="1020"/>
      <point x="410" y="1020" type="curve" smooth="yes" name="at02"/>
      <point x="265" y="1020"/>
      <point x="160" y="1125"/>
    </contour>
  </outline>
</glyph>
<glyph name="plusminus" format="1">
  <unicode hex="00B1"/>
  <advance width="1141"/>
  <outline>
    <contour>
      <point x="160" y="618" type="line"/>
      <point x="508" y="618" type="line"/>
      <point x="508" y="265" type="line"/>
      <point x="618" y="265" type="line"/>
      <point x="618" y="618" type="line"/>
      <point x="965" y="618" type="line"/>
      <point x="965" y="718" type="line"/>
      <point x="618" y="718" type="line"/>
      <point x="618" y="1071" type="line"/>
      <point x="508" y="1071" type="line"/>
      <point x="508" y="718" type="line"/>
      <point x="160" y="718" type="line"/>
    </contour>
    <contour>
      <point x="160" y="0" type="line"/>
      <point x="965" y="0" type="line"/>
      <point x="965" y="100" type="line"/>
      <point x="160" y="100" type="line"/>
    </contour>
  </outline>
</glyph>
<glyph name="twosuperior" format="1">
  <unicode hex="00B2"/>
  <advance width="823"/>
  <outline>
    <contour>
      <point x="179" y="1293" type="line"/>
      <point x="231" y="1373"/>
      <point x="299" y="1418"/>
      <point x="368" y="1418" type="curve" smooth="yes"/>
      <point x="448" y="1418"/>
      <point x="506" y="1357"/>
      <point x="506" y="1272" type="curve" smooth="yes"/>
      <point x="506" y="1160"/>
      <point x="403" y="1027"/>
      <point x="130" y="788" type="curve"/>
      <point x="130" y="700" type="line"/>
      <point x="640" y="700" type="line"/>
      <point x="640" y="790" type="line"/>
      <point x="248" y="790" type="line"/>
      <point x="499" y="982"/>
      <point x="607" y="1126"/>
      <point x="607" y="1271" type="curve" smooth="yes"/>
      <point x="607" y="1411"/>
      <point x="508" y="1510"/>
      <point x="366" y="1510" type="curve" smooth="yes"/>
      <point x="259" y="1510"/>
      <point x="167" y="1454"/>
      <point x="100" y="1349" type="curve"/>
    </contour>
  </outline>
</glyph>
<glyph name="threesuperior" format="1">
  <unicode hex="00B3"/>
  <advance width="836"/>
  <outline>
    <contour>
      <point x="143" y="807" type="line"/>
      <point x="237" y="723"/>
      <point x="312" y="690"/>
      <point x="408" y="690" type="curve" smooth="yes"/>
      <point x="561" y="690"/>
      <point x="674" y="776"/>
      <point x="674" y="913" type="curve" smooth="yes"/>
      <point x="674" y="1014"/>
      <point x="618" y="1090"/>
      <point x="520" y="1124" type="curve"/>
      <point x="592" y="1161"/>
      <point x="640" y="1234"/>
      <point x="640" y="1312" type="curve" smooth="yes"/>
      <point x="640" y="1426"/>
      <point x="542" y="1510"/>
      <point x="410" y="1510" type="curve" smooth="yes"/>
      <point x="324" y="1510"/>
      <point x="249" y="1475"/>
      <point x="172" y="1398" type="curve"/>
      <point x="241" y="1332" type="line"/>
      <point x="298" y="1393"/>
      <point x="350" y="1420"/>
      <point x="408" y="1420" type="curve" smooth="yes"/>
      <point x="485" y="1420"/>
      <point x="538" y="1373"/>
      <point x="538" y="1303" type="curve" smooth="yes"/>
      <point x="538" y="1222"/>
      <point x="465" y="1166"/>
      <point x="358" y="1166" type="curve" smooth="yes"/>
      <point x="311" y="1166" type="line"/>
      <point x="311" y="1076" type="line"/>
      <point x="358" y="1076" type="line" smooth="yes"/>
      <point x="491" y="1076"/>
      <point x="572" y="1020"/>
      <point x="572" y="929" type="curve" smooth="yes"/>
      <point x="572" y="841"/>
      <point x="497" y="781"/>
      <point x="407" y="781" type="curve" smooth="yes"/>
      <point x="338" y="781"/>
      <point x="273" y="815"/>
      <point x="210" y="883" type="curve"/>
    </contour>
  </outline>
</glyph>
<glyph name="mu" format="1">
  <unicode hex="00B5"/>
  <advance width="1260"/>
  <outline>
    <contour>
      <point x="160" y="1000" type="line"/>
      <point x="160" y="-247" type="line"/>
      <point x="179" y="-520" type="line"/>
      <point x="280" y="-520" type="line"/>
      <point x="280" y="153" type="line"/>
      <point x="347" y="44"/>
      <point x="452" y="-20"/>
      <point x="580" y="-20" type="curve" smooth="yes"/>
      <point x="716" y="-20"/>
      <point x="827" y="51"/>
      <point x="893" y="171" type="curve"/>
      <point x="924" y="45"/>
      <point x="1010" y="-21"/>
      <point x="1143" y="-21" type="curve"/>
      <point x="1157" y="69" type="line"/>
      <point x="1056" y="78"/>
      <point x="999" y="160"/>
      <point x="999" y="294" type="curve" smooth="yes"/>
      <point x="999" y="1000" type="line"/>
      <point x="879" y="1000" type="line"/>
      <point x="879" y="462" type="line"/>
      <point x="868" y="234"/>
      <point x="758" y="100"/>
      <point x="580" y="100" type="curve" smooth="yes"/>
      <point x="394" y="100"/>
      <point x="281" y="243"/>
      <point x="281" y="479" type="curve"/>
      <point x="280" y="479" type="line"/>
      <point x="280" y="1000" type="line"/>
    </contour>
  </outline>
</glyph>
<glyph name="paragraph" format="1">
  <unicode hex="00B6"/>
  <advance width="1225"/>
  <outline>
    <contour>
      <point x="100" y="1080" type="curve" smooth="yes"/>
      <point x="100" y="808"/>
      <point x="293" y="654"/>
      <point x="635" y="654" type="curve"/>
      <point x="635" y="-152" type="line"/>
      <point x="755" y="-152" type="line"/>
      <point x="755" y="1368" type="line"/>
      <point x="935" y="1368" type="line"/>
      <point x="935" y="-152" type="line"/>
      <point x="1055" y="-152" type="line"/>
      <point x="1055" y="1500" type="line"/>
      <point x="632" y="1500" type="line" smooth="yes"/>
      <point x="293" y="1500"/>
      <point x="100" y="1348"/>
    </contour>
  </outline>
</glyph>
<glyph name="periodcentered" format="1">
  <unicode hex="00B7"/>
  <advance width="551"/>
  <outline>
    <contour>
      <point x="179" y="499" type="curve" smooth="yes"/>
      <point x="179" y="558"/>
      <point x="218" y="597"/>
      <point x="277" y="597" type="curve" smooth="yes"/>
      <point x="335" y="597"/>
      <point x="375" y="558"/>
      <point x="375" y="499" type="curve" smooth="yes"/>
      <point x="375" y="440"/>
      <point x="335" y="401"/>
      <point x="277" y="401" type="curve" smooth="yes"/>
      <point x="218" y="401"/>
      <point x="179" y="440"/>
    </contour>
  </outline>
</glyph>
<glyph name="cedilla" format="1">
  <unicode hex="00B8"/>
  <advance width="705"/>
  <outline>
    <contour>
      <point x="170" y="-384" type="curve"/>
      <point x="216" y="-319" type="line"/>
      <point x="240" y="-332"/>
      <point x="267" y="-339"/>
      <point x="298" y="-339" type="curve" smooth="yes"/>
      <point x="381" y="-339"/>
      <point x="431" y="-286"/>
      <point x="431" y="-234" type="curve" smooth="yes"/>
      <point x="431" y="-184"/>
      <point x="385" y="-135"/>
      <point x="278" y="-135" type="curve"/>
      <point x="333" y="7" type="line"/>
      <point x="423" y="7" type="line" name="ih01"/>
      <point x="386" y="-78" type="line"/>
      <point x="474" y="-100"/>
      <point x="524" y="-156"/>
      <point x="524" y="-236" type="curve" smooth="yes" name="dh02"/>
      <point x="524" y="-341"/>
      <point x="437" y="-419"/>
      <point x="302" y="-419" type="curve" smooth="yes" name="av01"/>
      <point x="250" y="-419"/>
      <point x="204" y="-407"/>
    </contour>
    <contour>
      <point x="330" y="-20" type="move" name="_bottom"/>
    </contour>
  </outline>
</glyph>
<glyph name="onesuperior" format="1">
  <unicode hex="00B9"/>
  <advance width="555"/>
  <outline>
    <contour>
      <point x="129" y="1347" type="line"/>
      <point x="260" y="1395" type="line"/>
      <point x="260" y="700" type="line"/>
      <point x="360" y="700" type="line"/>
      <point x="360" y="1500" type="line"/>
      <point x="291" y="1500" type="line"/>
      <point x="100" y="1430" type="line"/>
    </contour>
  </outline>
</glyph>
<glyph name="ordmasculine" format="1">
  <unicode hex="00BA"/>
  <advance width="940"/>
  <outline>
    <contour>
      <point x="220" y="1150" type="curve" smooth="yes" name="sh02"/>
      <point x="220" y="1305"/>
      <point x="326" y="1420"/>
      <point x="471" y="1420" type="curve" smooth="yes"/>
      <point x="615" y="1420"/>
      <point x="720" y="1306"/>
      <point x="720" y="1150" type="curve" smooth="yes" name="ah01"/>
      <point x="720" y="994"/>
      <point x="615" y="880"/>
      <point x="471" y="880" type="curve" smooth="yes"/>
      <point x="326" y="880"/>
      <point x="220" y="995"/>
    </contour>
    <contour>
      <point x="100" y="1150" type="curve" smooth="yes" name="sh01"/>
      <point x="100" y="937"/>
      <point x="257" y="780"/>
      <point x="471" y="780" type="curve" smooth="yes" name="av01"/>
      <point x="684" y="780"/>
      <point x="840" y="936"/>
      <point x="840" y="1150" type="curve" smooth="yes" name="sh03"/>
      <point x="840" y="1364"/>
      <point x="685" y="1520"/>
      <point x="471" y="1520" type="curve" smooth="yes" name="at01"/>
      <point x="257" y="1520"/>
      <point x="100" y="1364"/>
    </contour>
  </outline>
</glyph>
<glyph name="guillemotright" format="1">
  <unicode hex="00BB"/>
  <advance width="1145"/>
  <outline>
    <contour>
      <point x="502" y="497" type="line"/>
      <point x="170" y="882" type="line"/>
      <point x="317" y="882" type="line"/>
      <point x="640" y="497" type="line"/>
      <point x="317" y="111" type="line"/>
      <point x="170" y="111" type="line"/>
    </contour>
    <contour>
      <point x="722" y="882" type="line"/>
      <point x="1045" y="497" type="line"/>
      <point x="722" y="111" type="line"/>
      <point x="575" y="111" type="line"/>
      <point x="908" y="497" type="line"/>
      <point x="575" y="882" type="line"/>
    </contour>
  </outline>
</glyph>
<glyph name="onequarter" format="1">
  <unicode hex="00BC"/>
  <advance width="1741"/>
  <outline>
    <contour>
      <point x="1003" y="265" type="line"/>
      <point x="1003" y="176" type="line"/>
      <point x="1385" y="176" type="line"/>
      <point x="1385" y="0" type="line"/>
      <point x="1485" y="0" type="line"/>
      <point x="1485" y="176" type="line"/>
      <point x="1581" y="176" type="line"/>
      <point x="1581" y="266" type="line"/>
      <point x="1485" y="266" type="line"/>
      <point x="1485" y="785" type="line"/>
      <point x="1385" y="785" type="line"/>
    </contour>
    <contour>
      <point x="297" y="0" type="line"/>
      <point x="416" y="0" type="line"/>
      <point x="1326" y="1500" type="line"/>
      <point x="1207" y="1500" type="line"/>
    </contour>
    <contour>
      <point x="189" y="1347" type="line"/>
      <point x="320" y="1395" type="line"/>
      <point x="320" y="700" type="line"/>
      <point x="420" y="700" type="line"/>
      <point x="420" y="1500" type="line"/>
      <point x="351" y="1500" type="line"/>
      <point x="160" y="1430" type="line"/>
    </contour>
    <contour>
      <point x="1109" y="266" type="line"/>
      <point x="1385" y="642" type="line"/>
      <point x="1385" y="266" type="line"/>
    </contour>
  </outline>
</glyph>
<glyph name="onehalf" format="1">
  <unicode hex="00BD"/>
  <advance width="1741"/>
  <outline>
    <contour>
      <point x="416" y="0" type="line"/>
      <point x="1326" y="1500" type="line"/>
      <point x="1207" y="1500" type="line"/>
      <point x="297" y="0" type="line"/>
    </contour>
    <contour>
      <point x="1120" y="593" type="line"/>
      <point x="1172" y="673"/>
      <point x="1240" y="718"/>
      <point x="1309" y="718" type="curve" smooth="yes"/>
      <point x="1389" y="718"/>
      <point x="1447" y="657"/>
      <point x="1447" y="572" type="curve" smooth="yes"/>
      <point x="1447" y="460"/>
      <point x="1344" y="327"/>
      <point x="1071" y="88" type="curve"/>
      <point x="1071" y="0" type="line"/>
      <point x="1581" y="0" type="line"/>
      <point x="1581" y="90" type="line"/>
      <point x="1189" y="90" type="line"/>
      <point x="1440" y="282"/>
      <point x="1548" y="426"/>
      <point x="1548" y="571" type="curve" smooth="yes"/>
      <point x="1548" y="711"/>
      <point x="1449" y="810"/>
      <point x="1307" y="810" type="curve" smooth="yes"/>
      <point x="1200" y="810"/>
      <point x="1108" y="754"/>
      <point x="1041" y="649" type="curve"/>
    </contour>
    <contour>
      <point x="160" y="1430" type="line"/>
      <point x="189" y="1347" type="line"/>
      <point x="320" y="1395" type="line"/>
      <point x="320" y="700" type="line"/>
      <point x="420" y="700" type="line"/>
      <point x="420" y="1500" type="line"/>
      <point x="351" y="1500" type="line"/>
    </contour>
  </outline>
</glyph>
<glyph name="threequarters" format="1">
  <unicode hex="00BE"/>
  <advance width="1838"/>
  <outline>
    <contour>
      <point x="1100" y="265" type="line"/>
      <point x="1100" y="176" type="line"/>
      <point x="1482" y="176" type="line"/>
      <point x="1482" y="0" type="line"/>
      <point x="1582" y="0" type="line"/>
      <point x="1582" y="176" type="line"/>
      <point x="1678" y="176" type="line"/>
      <point x="1678" y="266" type="line"/>
      <point x="1582" y="266" type="line"/>
      <point x="1582" y="785" type="line"/>
      <point x="1482" y="785" type="line"/>
    </contour>
    <contour>
      <point x="394" y="0" type="line"/>
      <point x="513" y="0" type="line"/>
      <point x="1423" y="1500" type="line"/>
      <point x="1304" y="1500" type="line"/>
    </contour>
    <contour>
      <point x="160" y="807" type="line"/>
      <point x="254" y="723"/>
      <point x="329" y="690"/>
      <point x="425" y="690" type="curve" smooth="yes"/>
      <point x="578" y="690"/>
      <point x="691" y="776"/>
      <point x="691" y="913" type="curve" smooth="yes"/>
      <point x="691" y="1014"/>
      <point x="635" y="1090"/>
      <point x="537" y="1124" type="curve"/>
      <point x="609" y="1161"/>
      <point x="657" y="1234"/>
      <point x="657" y="1312" type="curve" smooth="yes"/>
      <point x="657" y="1426"/>
      <point x="559" y="1510"/>
      <point x="427" y="1510" type="curve" smooth="yes"/>
      <point x="341" y="1510"/>
      <point x="266" y="1475"/>
      <point x="189" y="1398" type="curve"/>
      <point x="258" y="1332" type="line"/>
      <point x="315" y="1393"/>
      <point x="367" y="1420"/>
      <point x="425" y="1420" type="curve" smooth="yes"/>
      <point x="502" y="1420"/>
      <point x="555" y="1373"/>
      <point x="555" y="1303" type="curve" smooth="yes"/>
      <point x="555" y="1222"/>
      <point x="482" y="1166"/>
      <point x="375" y="1166" type="curve" smooth="yes"/>
      <point x="328" y="1166" type="line"/>
      <point x="328" y="1076" type="line"/>
      <point x="375" y="1076" type="line" smooth="yes"/>
      <point x="508" y="1076"/>
      <point x="589" y="1020"/>
      <point x="589" y="929" type="curve" smooth="yes"/>
      <point x="589" y="841"/>
      <point x="514" y="781"/>
      <point x="424" y="781" type="curve" smooth="yes"/>
      <point x="355" y="781"/>
      <point x="290" y="815"/>
      <point x="227" y="883" type="curve"/>
    </contour>
    <contour>
      <point x="1206" y="266" type="line"/>
      <point x="1482" y="642" type="line"/>
      <point x="1482" y="266" type="line"/>
    </contour>
  </outline>
</glyph>
<glyph name="questiondown" format="1">
  <unicode hex="00BF"/>
  <advance width="1073"/>
  <outline>
    <contour>
      <point x="855" y="-287" type="line"/>
      <point x="734" y="-372"/>
      <point x="648" y="-405"/>
      <point x="545" y="-405" type="curve" smooth="yes"/>
      <point x="376" y="-405"/>
      <point x="280" y="-317"/>
      <point x="280" y="-175" type="curve" smooth="yes"/>
      <point x="280" y="97"/>
      <point x="637" y="128"/>
      <point x="637" y="631" type="curve"/>
      <point x="527" y="631" type="line"/>
      <point x="527" y="159"/>
      <point x="160" y="154"/>
      <point x="160" y="-178" type="curve" smooth="yes"/>
      <point x="160" y="-383"/>
      <point x="300" y="-520"/>
      <point x="534" y="-520" type="curve" smooth="yes"/>
      <point x="661" y="-520"/>
      <point x="793" y="-474"/>
      <point x="913" y="-388" type="curve"/>
    </contour>
    <contour>
      <point x="681" y="932" type="curve" smooth="yes"/>
      <point x="681" y="991"/>
      <point x="642" y="1030"/>
      <point x="583" y="1030" type="curve" smooth="yes"/>
      <point x="524" y="1030"/>
      <point x="485" y="991"/>
      <point x="485" y="932" type="curve" smooth="yes"/>
      <point x="485" y="873"/>
      <point x="524" y="834"/>
      <point x="583" y="834" type="curve" smooth="yes"/>
      <point x="642" y="834"/>
      <point x="681" y="873"/>
    </contour>
  </outline>
</glyph>
<glyph name="AE" format="1">
  <unicode hex="00C6"/>
  <advance width="2093"/>
  <outline>
    <contour>
      <point x="10" y="0" type="line"/>
      <point x="159" y="0" type="line"/>
      <point x="397" y="445" type="line"/>
      <point x="1070" y="445" type="line"/>
      <point x="1131" y="0" type="line"/>
      <point x="1982" y="0" type="line"/>
      <point x="1965" y="125" type="line"/>
      <point x="1250" y="125" type="line"/>
      <point x="1170" y="709" type="line"/>
      <point x="1815" y="709" type="line"/>
      <point x="1798" y="834" type="line"/>
      <point x="1153" y="834" type="line"/>
      <point x="1079" y="1374" type="line"/>
      <point x="1764" y="1374" type="line"/>
      <point x="1747" y="1499" type="line"/>
      <point x="813" y="1499" type="line"/>
    </contour>
    <contour>
      <point x="894" y="1374" type="line"/>
      <point x="943" y="1374" type="line"/>
      <point x="1053" y="570" type="line"/>
      <point x="464" y="570" type="line"/>
    </contour>
  </outline>
</glyph>
<glyph name="Eth" format="1">
  <unicode hex="00D0"/>
  <advance width="1579"/>
  <outline>
    <contour>
      <point x="10" y="803" type="line" name="dv02"/>
      <point x="10" y="693" type="line" name="dv01"/>
      <point x="164" y="693" type="line"/>
      <point x="164" y="-2" type="line"/>
      <point x="549" y="-2" type="line" smooth="yes"/>
      <point x="1138" y="-2"/>
      <point x="1471" y="270"/>
      <point x="1471" y="750" type="curve" smooth="yes"/>
      <point x="1471" y="1228"/>
      <point x="1138" y="1498"/>
      <point x="549" y="1498" type="curve" smooth="yes"/>
      <point x="164" y="1498" type="line"/>
      <point x="164" y="803" type="line"/>
    </contour>
    <contour>
      <point x="299" y="803" type="line"/>
      <point x="299" y="1373" type="line"/>
      <point x="559" y="1373" type="line" smooth="yes"/>
      <point x="1056" y="1373"/>
      <point x="1331" y="1151"/>
      <point x="1331" y="750" type="curve" smooth="yes"/>
      <point x="1331" y="346"/>
      <point x="1057" y="123"/>
      <point x="559" y="123" type="curve" smooth="yes"/>
      <point x="299" y="123" type="line"/>
      <point x="299" y="693" type="line"/>
      <point x="810" y="693" type="line"/>
      <point x="810" y="803" type="line"/>
    </contour>
  </outline>
</glyph>
<glyph name="Oslash" format="1">
  <unicode hex="00D8"/>
  <advance width="1720"/>
  <outline>
    <contour>
      <point x="619" y="4" type="curve"/>
      <point x="563" y="-132" type="line"/>
      <point x="451" y="-87" type="line"/>
      <point x="507" y="47" type="line"/>
      <point x="249" y="170"/>
      <point x="84" y="429"/>
      <point x="84" y="750" type="curve" smooth="yes"/>
      <point x="84" y="1201"/>
      <point x="411" y="1530"/>
      <point x="861" y="1530" type="curve" smooth="yes"/>
      <point x="948" y="1530"/>
      <point x="1030" y="1518"/>
      <point x="1106" y="1495" type="curve"/>
      <point x="1161" y="1629" type="line"/>
      <point x="1273" y="1584" type="line"/>
      <point x="1218" y="1452" type="line"/>
      <point x="1475" y="1328"/>
      <point x="1639" y="1070"/>
      <point x="1639" y="750" type="curve" smooth="yes"/>
      <point x="1639" y="300"/>
      <point x="1312" y="-30"/>
      <point x="861" y="-30" type="curve" smooth="yes"/>
      <point x="776" y="-30"/>
      <point x="695" y="-18"/>
    </contour>
    <contour>
      <point x="556" y="167" type="curve"/>
      <point x="1057" y="1377" type="line"/>
      <point x="996" y="1395"/>
      <point x="930" y="1405"/>
      <point x="861" y="1405" type="curve" smooth="yes"/>
      <point x="492" y="1405"/>
      <point x="224" y="1129"/>
      <point x="224" y="750" type="curve" smooth="yes"/>
      <point x="224" y="487"/>
      <point x="353" y="273"/>
    </contour>
    <contour>
      <point x="861" y="95" type="curve" smooth="yes"/>
      <point x="1231" y="95"/>
      <point x="1499" y="372"/>
      <point x="1499" y="750" type="curve" smooth="yes"/>
      <point x="1499" y="1012"/>
      <point x="1370" y="1225"/>
      <point x="1169" y="1332" type="curve"/>
      <point x="668" y="122" type="line"/>
      <point x="728" y="104"/>
      <point x="793" y="95"/>
    </contour>
  </outline>
</glyph>
<glyph name="Thorn" format="1">
  <unicode hex="00DE"/>
  <advance width="1249"/>
  <outline>
    <contour>
      <point x="162" y="1500" type="line"/>
      <point x="162" y="0" type="line"/>
      <point x="297" y="0" type="line"/>
      <point x="297" y="328" type="line"/>
      <point x="614" y="328" type="line" smooth="yes"/>
      <point x="925" y="328"/>
      <point x="1112" y="486"/>
      <point x="1112" y="750" type="curve" smooth="yes"/>
      <point x="1112" y="1013"/>
      <point x="925" y="1171"/>
      <point x="614" y="1171" type="curve" smooth="yes"/>
      <point x="297" y="1171" type="line"/>
      <point x="297" y="1500" type="line"/>
    </contour>
    <contour>
      <point x="297" y="453" type="line"/>
      <point x="297" y="1046" type="line"/>
      <point x="579" y="1046" type="line" smooth="yes"/>
      <point x="835" y="1046"/>
      <point x="972" y="943"/>
      <point x="972" y="750" type="curve" smooth="yes"/>
      <point x="972" y="556"/>
      <point x="835" y="453"/>
      <point x="579" y="453" type="curve" smooth="yes"/>
    </contour>
  </outline>
</glyph>
<glyph name="germandbls" format="1">
  <unicode hex="00DF"/>
  <advance width="1066"/>
  <outline>
    <contour>
      <point x="280" y="0" type="line"/>
      <point x="280" y="1145" type="line" smooth="yes"/>
      <point x="280" y="1310"/>
      <point x="382" y="1430"/>
      <point x="523" y="1430" type="curve" smooth="yes"/>
      <point x="655" y="1430"/>
      <point x="754" y="1326"/>
      <point x="754" y="1188" type="curve" smooth="yes"/>
      <point x="754" y="973"/>
      <point x="522" y="942"/>
      <point x="522" y="788" type="curve" smooth="yes"/>
      <point x="522" y="608"/>
      <point x="830" y="593"/>
      <point x="830" y="365" type="curve" smooth="yes"/>
      <point x="830" y="217"/>
      <point x="697" y="94"/>
      <point x="527" y="85" type="curve"/>
      <point x="544" y="-21" type="line"/>
      <point x="773" y="-21"/>
      <point x="956" y="147"/>
      <point x="956" y="358" type="curve" smooth="yes"/>
      <point x="956" y="636"/>
      <point x="642" y="674"/>
      <point x="642" y="788" type="curve" smooth="yes"/>
      <point x="642" y="888"/>
      <point x="881" y="923"/>
      <point x="881" y="1180" type="curve" smooth="yes"/>
      <point x="881" y="1387"/>
      <point x="732" y="1535"/>
      <point x="524" y="1535" type="curve" smooth="yes"/>
      <point x="309" y="1535"/>
      <point x="160" y="1376"/>
      <point x="160" y="1145" type="curve" smooth="yes"/>
      <point x="160" y="0" type="line"/>
    </contour>
  </outline>
</glyph>
<glyph name="ae" format="1">
  <unicode hex="00E6"/>
  <advance width="1929"/>
  <outline>
    <contour>
      <point x="138" y="296" type="curve" smooth="yes"/>
      <point x="138" y="112"/>
      <point x="296" y="-20"/>
      <point x="516" y="-20" type="curve" smooth="yes"/>
      <point x="707" y="-20"/>
      <point x="851" y="77"/>
      <point x="906" y="233" type="curve"/>
      <point x="999" y="79"/>
      <point x="1172" y="-20"/>
      <point x="1377" y="-20" type="curve" smooth="yes"/>
      <point x="1524" y="-20"/>
      <point x="1666" y="32"/>
      <point x="1785" y="129" type="curve"/>
      <point x="1710" y="229" type="line"/>
      <point x="1618" y="145"/>
      <point x="1503" y="100"/>
      <point x="1385" y="100" type="curve" smooth="yes"/>
      <point x="1178" y="100"/>
      <point x="989" y="238"/>
      <point x="965" y="459" type="curve"/>
      <point x="1829" y="459" type="line"/>
      <point x="1829" y="518" type="line" smooth="yes"/>
      <point x="1829" y="808"/>
      <point x="1623" y="1020"/>
      <point x="1341" y="1020" type="curve" smooth="yes"/>
      <point x="1162" y="1020"/>
      <point x="1010" y="935"/>
      <point x="920" y="801" type="curve"/>
      <point x="857" y="939"/>
      <point x="729" y="1020"/>
      <point x="557" y="1020" type="curve" smooth="yes"/>
      <point x="450" y="1020"/>
      <point x="333" y="988"/>
      <point x="222" y="929" type="curve"/>
      <point x="268" y="819" type="line"/>
      <point x="362" y="872"/>
      <point x="456" y="900"/>
      <point x="542" y="900" type="curve" smooth="yes"/>
      <point x="719" y="900"/>
      <point x="832" y="778"/>
      <point x="832" y="587" type="curve" smooth="yes"/>
      <point x="832" y="563" type="line"/>
      <point x="745" y="598"/>
      <point x="649" y="617"/>
      <point x="555" y="617" type="curve" smooth="yes"/>
      <point x="306" y="617"/>
      <point x="138" y="487"/>
    </contour>
    <contour>
      <point x="966" y="569" type="line"/>
      <point x="992" y="762"/>
      <point x="1139" y="898"/>
      <point x="1334" y="898" type="curve" smooth="yes"/>
      <point x="1524" y="898"/>
      <point x="1664" y="767"/>
      <point x="1693" y="569" type="curve"/>
    </contour>
    <contour>
      <point x="569" y="497" type="curve" smooth="yes"/>
      <point x="656" y="497"/>
      <point x="751" y="478"/>
      <point x="832" y="447" type="curve"/>
      <point x="832" y="387" type="line" smooth="yes"/>
      <point x="832" y="220"/>
      <point x="704" y="100"/>
      <point x="526" y="100" type="curve" smooth="yes"/>
      <point x="379" y="100"/>
      <point x="274" y="183"/>
      <point x="274" y="299" type="curve" smooth="yes"/>
      <point x="274" y="421"/>
      <point x="388" y="497"/>
    </contour>
  </outline>
</glyph>
<glyph name="eth" format="1">
  <unicode hex="00F0"/>
  <advance width="1149"/>
  <outline>
    <contour>
      <point x="100" y="440" type="curve" smooth="yes"/>
      <point x="100" y="162"/>
      <point x="296" y="-31"/>
      <point x="576" y="-31" type="curve" smooth="yes"/>
      <point x="870" y="-31"/>
      <point x="1059" y="179"/>
      <point x="1059" y="504" type="curve" smooth="yes"/>
      <point x="1059" y="747"/>
      <point x="952" y="1009"/>
      <point x="780" y="1221" type="curve"/>
      <point x="995" y="1315" type="line"/>
      <point x="951" y="1415" type="line"/>
      <point x="704" y="1308" type="line"/>
      <point x="625" y="1390"/>
      <point x="535" y="1463"/>
      <point x="438" y="1520" type="curve"/>
      <point x="361" y="1414" type="line"/>
      <point x="438" y="1369"/>
      <point x="510" y="1314"/>
      <point x="575" y="1252" type="curve"/>
      <point x="288" y="1127" type="line" name="dv04"/>
      <point x="332" y="1026" type="line" name="dv03"/>
      <point x="656" y="1167" type="line"/>
      <point x="762" y="1046"/>
      <point x="843" y="905"/>
      <point x="888" y="764" type="curve"/>
      <point x="809" y="861"/>
      <point x="694" y="915"/>
      <point x="557" y="915" type="curve" smooth="yes"/>
      <point x="293" y="915"/>
      <point x="100" y="715"/>
    </contour>
    <contour>
      <point x="576" y="790" type="curve" smooth="yes"/>
      <point x="767" y="790"/>
      <point x="910" y="641"/>
      <point x="910" y="442" type="curve" smooth="yes"/>
      <point x="910" y="243"/>
      <point x="767" y="94"/>
      <point x="576" y="94" type="curve" smooth="yes"/>
      <point x="385" y="94"/>
      <point x="245" y="242"/>
      <point x="245" y="443" type="curve" smooth="yes"/>
      <point x="245" y="644"/>
      <point x="384" y="790"/>
    </contour>
  </outline>
</glyph>
<glyph name="oslash" format="1">
  <unicode hex="00F8"/>
  <advance width="1226"/>
  <outline>
    <contour>
      <point x="465" y="0" type="curve"/>
      <point x="419" y="-112" type="line"/>
      <point x="317" y="-71" type="line"/>
      <point x="363" y="40" type="line"/>
      <point x="203" y="125"/>
      <point x="100" y="294"/>
      <point x="100" y="500" type="curve" smooth="yes"/>
      <point x="100" y="800"/>
      <point x="317" y="1020"/>
      <point x="613" y="1020" type="curve" smooth="yes"/>
      <point x="665" y="1020"/>
      <point x="714" y="1013"/>
      <point x="760" y="1001" type="curve"/>
      <point x="806" y="1112" type="line"/>
      <point x="909" y="1072" type="line"/>
      <point x="863" y="960" type="line"/>
      <point x="1023" y="875"/>
      <point x="1126" y="706"/>
      <point x="1126" y="500" type="curve" smooth="yes"/>
      <point x="1126" y="200"/>
      <point x="909" y="-20"/>
      <point x="613" y="-20" type="curve" smooth="yes"/>
      <point x="561" y="-20"/>
      <point x="512" y="-13"/>
    </contour>
    <contour>
      <point x="613" y="100" type="curve" smooth="yes"/>
      <point x="831" y="100"/>
      <point x="990" y="269"/>
      <point x="990" y="500" type="curve" smooth="yes"/>
      <point x="990" y="651"/>
      <point x="922" y="775"/>
      <point x="814" y="843" type="curve"/>
      <point x="512" y="113" type="line"/>
      <point x="544" y="104"/>
      <point x="578" y="100"/>
    </contour>
    <contour>
      <point x="411" y="157" type="curve"/>
      <point x="713" y="887" type="line"/>
      <point x="682" y="896"/>
      <point x="648" y="900"/>
      <point x="613" y="900" type="curve" smooth="yes"/>
      <point x="395" y="900"/>
      <point x="236" y="731"/>
      <point x="236" y="500" type="curve" smooth="yes"/>
      <point x="236" y="349"/>
      <point x="304" y="225"/>
    </contour>
  </outline>
</glyph>
<glyph name="thorn" format="1">
  <unicode hex="00FE"/>
  <advance width="1314"/>
  <outline>
    <contour>
      <point x="180" y="-500" type="line"/>
      <point x="310" y="-500" type="line"/>
      <point x="310" y="174" type="line"/>
      <point x="400" y="54"/>
      <point x="542" y="-20"/>
      <point x="710" y="-20" type="curve" smooth="yes"/>
      <point x="1000" y="-20"/>
      <point x="1214" y="201"/>
      <point x="1214" y="500" type="curve" smooth="yes"/>
      <point x="1214" y="799"/>
      <point x="1000" y="1020"/>
      <point x="710" y="1020" type="curve" smooth="yes"/>
      <point x="542" y="1020"/>
      <point x="400" y="946"/>
      <point x="310" y="826" type="curve"/>
      <point x="310" y="1500" type="line"/>
      <point x="180" y="1500" type="line"/>
    </contour>
    <contour>
      <point x="310" y="500" type="curve" smooth="yes"/>
      <point x="310" y="731"/>
      <point x="472" y="900"/>
      <point x="695" y="900" type="curve" smooth="yes"/>
      <point x="918" y="900"/>
      <point x="1081" y="731"/>
      <point x="1081" y="500" type="curve" smooth="yes"/>
      <point x="1081" y="269"/>
      <point x="917" y="100"/>
      <point x="695" y="100" type="curve" smooth="yes"/>
      <point x="473" y="100"/>
      <point x="310" y="269"/>
    </contour>
  </outline>
</glyph>
<glyph name="dcroat" format="1">
  <unicode hex="0111"/>
  <advance width="1401"/>
  <outline>
    <contour>
      <point x="595" y="-20" type="curve" smooth="yes"/>
      <point x="757" y="-20"/>
      <point x="895" y="53"/>
      <point x="982" y="173" type="curve"/>
      <point x="993" y="0" type="line"/>
      <point x="1107" y="0" type="line"/>
      <point x="1107" y="1190" type="line"/>
      <point x="1240" y="1190" type="line"/>
      <point x="1240" y="1290" type="line"/>
      <point x="1107" y="1290" type="line"/>
      <point x="1107" y="1500" type="line"/>
      <point x="977" y="1500" type="line"/>
      <point x="977" y="1290" type="line"/>
      <point x="620" y="1290" type="line" name="dv04"/>
      <point x="620" y="1190" type="line" name="dv03"/>
      <point x="977" y="1190" type="line"/>
      <point x="977" y="834" type="line"/>
      <point x="889" y="950"/>
      <point x="754" y="1021"/>
      <point x="595" y="1021" type="curve" smooth="yes"/>
      <point x="314" y="1021"/>
      <point x="107" y="800"/>
      <point x="107" y="500" type="curve" smooth="yes"/>
      <point x="107" y="200"/>
      <point x="314" y="-20"/>
    </contour>
    <contour>
      <point x="243" y="500" type="curve" smooth="yes"/>
      <point x="243" y="731"/>
      <point x="398" y="900"/>
      <point x="610" y="900" type="curve" smooth="yes"/>
      <point x="822" y="900"/>
      <point x="977" y="731"/>
      <point x="977" y="500" type="curve" smooth="yes"/>
      <point x="977" y="269"/>
      <point x="822" y="100"/>
      <point x="610" y="100" type="curve" smooth="yes"/>
      <point x="398" y="100"/>
      <point x="243" y="269"/>
    </contour>
  </outline>
</glyph>
<glyph name="Hbar" format="1">
  <unicode hex="0126"/>
  <advance width="1526"/>
  <outline>
    <contour>
      <point x="1342" y="1110" type="line"/>
      <point x="1342" y="0" type="line"/>
      <point x="1207" y="0" type="line"/>
      <point x="1207" y="680" type="line"/>
      <point x="318" y="680" type="line"/>
      <point x="318" y="0" type="line"/>
      <point x="183" y="0" type="line"/>
      <point x="183" y="1110" type="line"/>
      <point x="55" y="1110" type="line" name="sv03"/>
      <point x="55" y="1210" type="line"/>
      <point x="183" y="1210" type="line"/>
      <point x="183" y="1500" type="line"/>
      <point x="318" y="1500" type="line"/>
      <point x="318" y="1210" type="line"/>
      <point x="1207" y="1210" type="line"/>
      <point x="1207" y="1500" type="line"/>
      <point x="1342" y="1500" type="line"/>
      <point x="1342" y="1210" type="line"/>
      <point x="1470" y="1210" type="line" name="sv02"/>
      <point x="1470" y="1110" type="line" name="sv01"/>
    </contour>
    <contour>
      <point x="318" y="1110" type="line"/>
      <point x="318" y="805" type="line"/>
      <point x="1207" y="805" type="line"/>
      <point x="1207" y="1110" type="line"/>
    </contour>
  </outline>
</glyph>
<glyph name="hbar" format="1">
  <unicode hex="0127"/>
  <advance width="1210"/>
  <outline>
    <contour>
      <point x="55" y="1290" type="line"/>
      <point x="178" y="1290" type="line"/>
      <point x="178" y="1500" type="line"/>
      <point x="308" y="1500" type="line"/>
      <point x="308" y="1290" type="line"/>
      <point x="675" y="1290" type="line" name="sv03"/>
      <point x="675" y="1190" type="line" name="sv02"/>
      <point x="308" y="1190" type="line"/>
      <point x="308" y="842" type="line"/>
      <point x="386" y="953"/>
      <point x="509" y="1020"/>
      <point x="652" y="1020" type="curve" smooth="yes"/>
      <point x="890" y="1020"/>
      <point x="1052" y="830"/>
      <point x="1052" y="551" type="curve" smooth="yes"/>
      <point x="1052" y="0" type="line"/>
      <point x="922" y="0" type="line"/>
      <point x="922" y="545" type="line" smooth="yes"/>
      <point x="922" y="763"/>
      <point x="809" y="900"/>
      <point x="629" y="900" type="curve" smooth="yes"/>
      <point x="449" y="900"/>
      <point x="315" y="764"/>
      <point x="308" y="573" type="curve"/>
      <point x="308" y="0" type="line"/>
      <point x="178" y="0" type="line"/>
      <point x="178" y="1190" type="line"/>
      <point x="55" y="1190" type="line"/>
    </contour>
  </outline>
</glyph>
<glyph name="dotlessi" format="1">
  <unicode hex="0131"/>
  <advance width="485"/>
  <outline>
    <contour>
      <point x="180" y="0" type="line"/>
      <point x="310" y="0" type="line"/>
      <point x="310" y="1000" type="line"/>
      <point x="180" y="1000" type="line"/>
    </contour>
  </outline>
</glyph>
<glyph name="jcircumflex" format="1">
  <unicode hex="0135"/>
  <advance width="485"/>
  <outline>
    <component base="circumflex" xOffset="-207"/>
    <contour>
      <point x="178" y="-190" type="line" smooth="yes"/>
      <point x="178" y="-328"/>
      <point x="107" y="-403"/>
      <point x="-22" y="-403" type="curve" smooth="yes"/>
      <point x="-48" y="-403"/>
      <point x="-76" y="-400"/>
      <point x="-106" y="-394" type="curve"/>
      <point x="-106" y="-500" type="line"/>
      <point x="-60" y="-513"/>
      <point x="-17" y="-520"/>
      <point x="24" y="-520" type="curve" smooth="yes"/>
      <point x="199" y="-520"/>
      <point x="308" y="-394"/>
      <point x="308" y="-190" type="curve" smooth="yes"/>
      <point x="308" y="1000" type="line"/>
      <point x="178" y="1000" type="line"/>
    </contour>
    <contour>
      <point x="243" y="1020" type="move" name="top"/>
    </contour>
    <contour>
      <point x="243" y="1020" type="move" name="_top"/>
    </contour>
  </outline>
</glyph>
<glyph name="kgreenlandic" format="1">
  <unicode hex="0138"/>
  <advance width="1018"/>
  <outline>
    <contour>
      <point x="160" y="1000" type="line"/>
      <point x="160" y="0" type="line"/>
      <point x="290" y="0" type="line"/>
      <point x="290" y="319" type="line"/>
      <point x="405" y="451" type="line"/>
      <point x="785" y="0" type="line"/>
      <point x="947" y="0" type="line"/>
      <point x="491" y="550" type="line"/>
      <point x="881" y="1000" type="line"/>
      <point x="731" y="1000" type="line"/>
      <point x="358" y="575" type="line"/>
      <point x="330" y="541"/>
      <point x="310" y="514"/>
      <point x="290" y="486" type="curve"/>
      <point x="290" y="1000" type="line"/>
    </contour>
    <contour>
      <point x="569" y="-20" type="move" name="bottom"/>
    </contour>
  </outline>
</glyph>
<glyph name="Lslash" format="1">
  <unicode hex="0141"/>
  <advance width="1159"/>
  <outline>
    <contour>
      <point x="65" y="542" type="line"/>
      <point x="197" y="618" type="line"/>
      <point x="197" y="0" type="line"/>
      <point x="1061" y="0" type="line"/>
      <point x="1061" y="125" type="line"/>
      <point x="332" y="125" type="line"/>
      <point x="332" y="696" type="line"/>
      <point x="656" y="883" type="line"/>
      <point x="602" y="977" type="line"/>
      <point x="332" y="821" type="line"/>
      <point x="332" y="1500" type="line"/>
      <point x="197" y="1500" type="line"/>
      <point x="197" y="744" type="line"/>
      <point x="10" y="636" type="line"/>
    </contour>
  </outline>
</glyph>
<glyph name="lslash" format="1">
  <unicode hex="0142"/>
  <advance width="535"/>
  <outline>
    <contour>
      <point x="75" y="541" type="line"/>
      <point x="208" y="618" type="line"/>
      <point x="208" y="0" type="line"/>
      <point x="338" y="0" type="line" name="ab01"/>
      <point x="338" y="693" type="line"/>
      <point x="525" y="801" type="line"/>
      <point x="471" y="896" type="line"/>
      <point x="338" y="819" type="line"/>
      <point x="338" y="1500" type="line" name="at01"/>
      <point x="208" y="1500" type="line" name="dh01"/>
      <point x="208" y="744" type="line"/>
      <point x="20" y="636" type="line"/>
    </contour>
  </outline>
</glyph>
<glyph name="OE" format="1">
  <unicode hex="0152"/>
  <advance width="2560"/>
  <outline>
    <contour>
      <point x="872" y="-30" type="curve" smooth="yes"/>
      <point x="1150" y="-30"/>
      <point x="1381" y="97"/>
      <point x="1516" y="302" type="curve"/>
      <point x="1516" y="0" type="line"/>
      <point x="2390" y="0" type="line"/>
      <point x="2390" y="125" type="line"/>
      <point x="1646" y="125" type="line"/>
      <point x="1646" y="707" type="line"/>
      <point x="2318" y="707" type="line"/>
      <point x="2318" y="832" type="line"/>
      <point x="1646" y="832" type="line"/>
      <point x="1646" y="1375" type="line"/>
      <point x="2359" y="1375" type="line"/>
      <point x="2359" y="1500" type="line"/>
      <point x="1516" y="1500" type="line"/>
      <point x="1516" y="1199" type="line"/>
      <point x="1381" y="1403"/>
      <point x="1150" y="1530"/>
      <point x="872" y="1530" type="curve" smooth="yes"/>
      <point x="425" y="1530"/>
      <point x="100" y="1201"/>
      <point x="100" y="750" type="curve" smooth="yes"/>
      <point x="100" y="299"/>
      <point x="425" y="-30"/>
    </contour>
    <contour>
      <point x="240" y="750" type="curve" smooth="yes"/>
      <point x="240" y="1129"/>
      <point x="508" y="1405"/>
      <point x="877" y="1405" type="curve" smooth="yes"/>
      <point x="1247" y="1405"/>
      <point x="1515" y="1128"/>
      <point x="1515" y="750" type="curve" smooth="yes"/>
      <point x="1515" y="372"/>
      <point x="1247" y="95"/>
      <point x="877" y="95" type="curve" smooth="yes"/>
      <point x="508" y="95"/>
      <point x="240" y="371"/>
    </contour>
  </outline>
</glyph>
<glyph name="oe" format="1">
  <unicode hex="0153"/>
  <advance width="2088"/>
  <outline>
    <contour>
      <point x="100" y="500" type="curve" smooth="yes"/>
      <point x="100" y="200"/>
      <point x="315" y="-20"/>
      <point x="608" y="-20" type="curve" smooth="yes"/>
      <point x="809" y="-20"/>
      <point x="974" y="84"/>
      <point x="1057" y="247" type="curve"/>
      <point x="1148" y="85"/>
      <point x="1325" y="-20"/>
      <point x="1536" y="-20" type="curve" smooth="yes"/>
      <point x="1683" y="-20"/>
      <point x="1825" y="32"/>
      <point x="1944" y="129" type="curve"/>
      <point x="1869" y="229" type="line"/>
      <point x="1777" y="145"/>
      <point x="1663" y="100"/>
      <point x="1545" y="100" type="curve" smooth="yes"/>
      <point x="1339" y="100"/>
      <point x="1151" y="238"/>
      <point x="1127" y="459" type="curve"/>
      <point x="1988" y="459" type="line"/>
      <point x="1988" y="518" type="line" smooth="yes"/>
      <point x="1988" y="808"/>
      <point x="1782" y="1020"/>
      <point x="1500" y="1020" type="curve" smooth="yes"/>
      <point x="1303" y="1020"/>
      <point x="1139" y="918"/>
      <point x="1054" y="760" type="curve"/>
      <point x="970" y="919"/>
      <point x="807" y="1020"/>
      <point x="608" y="1020" type="curve" smooth="yes"/>
      <point x="315" y="1020"/>
      <point x="100" y="800"/>
    </contour>
    <contour>
      <point x="236" y="500" type="curve" smooth="yes"/>
      <point x="236" y="731"/>
      <point x="395" y="900"/>
      <point x="613" y="900" type="curve" smooth="yes"/>
      <point x="831" y="900"/>
      <point x="990" y="731"/>
      <point x="990" y="500" type="curve" smooth="yes"/>
      <point x="990" y="269"/>
      <point x="831" y="100"/>
      <point x="613" y="100" type="curve" smooth="yes"/>
      <point x="395" y="100"/>
      <point x="236" y="269"/>
    </contour>
    <contour>
      <point x="1128" y="569" type="line"/>
      <point x="1154" y="762"/>
      <point x="1301" y="898"/>
      <point x="1494" y="898" type="curve" smooth="yes"/>
      <point x="1683" y="898"/>
      <point x="1823" y="767"/>
      <point x="1852" y="569" type="curve"/>
    </contour>
  </outline>
</glyph>
<glyph name="uni0162" format="1">
  <unicode hex="0162"/>
  <advance width="1180"/>
  <outline>
    <component base="T" xOffset="-19"/>
    <contour>
      <point x="376" y="-384" type="curve"/>
      <point x="422" y="-319" type="line"/>
      <point x="446" y="-332"/>
      <point x="473" y="-339"/>
      <point x="504" y="-339" type="curve" smooth="yes"/>
      <point x="587" y="-339"/>
      <point x="637" y="-286"/>
      <point x="637" y="-234" type="curve" smooth="yes"/>
      <point x="637" y="-184"/>
      <point x="591" y="-135"/>
      <point x="484" y="-135" type="curve"/>
      <point x="539" y="7" type="line"/>
      <point x="629" y="7" type="line" name="ih01"/>
      <point x="592" y="-78" type="line"/>
      <point x="680" y="-100"/>
      <point x="730" y="-156"/>
      <point x="730" y="-236" type="curve" smooth="yes" name="dh02"/>
      <point x="730" y="-341"/>
      <point x="643" y="-419"/>
      <point x="508" y="-419" type="curve" smooth="yes" name="av01"/>
      <point x="456" y="-419"/>
      <point x="410" y="-407"/>
    </contour>
    <contour>
      <point x="585" y="1542" type="move" name="top"/>
    </contour>
    <contour>
      <point x="585" y="-41" type="move" name="bottom"/>
    </contour>
  </outline>
</glyph>
<glyph name="uni0163" format="1">
  <unicode hex="0163"/>
  <advance width="811"/>
  <outline>
    <component base="t"/>
    <contour>
      <point x="269" y="-384" type="curve"/>
      <point x="315" y="-319" type="line"/>
      <point x="339" y="-332"/>
      <point x="366" y="-339"/>
      <point x="397" y="-339" type="curve" smooth="yes"/>
      <point x="480" y="-339"/>
      <point x="530" y="-286"/>
      <point x="530" y="-234" type="curve" smooth="yes"/>
      <point x="530" y="-184"/>
      <point x="484" y="-135"/>
      <point x="377" y="-135" type="curve"/>
      <point x="432" y="7" type="line"/>
      <point x="522" y="7" type="line" name="ih01"/>
      <point x="485" y="-78" type="line"/>
      <point x="573" y="-100"/>
      <point x="623" y="-156"/>
      <point x="623" y="-236" type="curve" smooth="yes" name="dh02"/>
      <point x="623" y="-341"/>
      <point x="536" y="-419"/>
      <point x="401" y="-419" type="curve" smooth="yes" name="av01"/>
      <point x="349" y="-419"/>
      <point x="303" y="-407"/>
    </contour>
    <contour>
      <point x="641" y="1042" type="move" name="top"/>
    </contour>
    <contour>
      <point x="403" y="-42" type="move" name="bottom"/>
    </contour>
  </outline>
</glyph>
<glyph name="Tbar" format="1">
  <unicode hex="0166"/>
  <advance width="1069"/>
  <outline>
    <contour>
      <point x="50" y="1375" type="line"/>
      <point x="50" y="1500" type="line"/>
      <point x="1019" y="1500" type="line"/>
      <point x="1019" y="1375" type="line"/>
      <point x="602" y="1375" type="line"/>
      <point x="602" y="805" type="line"/>
      <point x="951" y="805" type="line" name="dv02"/>
      <point x="951" y="695" type="line" name="dv01"/>
      <point x="602" y="695" type="line"/>
      <point x="602" y="0" type="line"/>
      <point x="467" y="0" type="line"/>
      <point x="467" y="695" type="line"/>
      <point x="117" y="695" type="line"/>
      <point x="117" y="805" type="line" name="dh01"/>
      <point x="467" y="805" type="line"/>
      <point x="467" y="1375" type="line"/>
    </contour>
  </outline>
</glyph>
<glyph name="tbar" format="1">
  <unicode hex="0167"/>
  <advance width="723"/>
  <outline>
    <component base="t"/>
    <contour>
      <point x="110" y="570" type="line" name="sh07"/>
      <point x="664" y="570" type="line" name="dv04"/>
      <point x="664" y="470" type="line" name="dv03"/>
      <point x="110" y="470" type="line"/>
    </contour>
    <contour>
      <point x="641" y="1042" type="move" name="top"/>
    </contour>
    <contour>
      <point x="403" y="-42" type="move" name="bottom"/>
    </contour>
  </outline>
</glyph>
<glyph name="longs" format="1">
  <unicode hex="017F"/>
  <advance width="485"/>
  <outline>
    <contour>
      <point x="544" y="1520" type="line"/>
      <point x="308" y="1520"/>
      <point x="160" y="1354"/>
      <point x="160" y="1089" type="curve" smooth="yes"/>
      <point x="160" y="0" type="line"/>
      <point x="295" y="0" type="line"/>
      <point x="295" y="1089" type="line" smooth="yes"/>
      <point x="295" y="1278"/>
      <point x="390" y="1395"/>
      <point x="544" y="1395" type="curve"/>
    </contour>
  </outline>
</glyph>
<glyph name="florin" format="1">
  <unicode hex="0192"/>
  <advance width="717"/>
  <outline>
    <contour>
      <point x="-220" y="-95" type="line"/>
      <point x="-171" y="-132"/>
      <point x="-113" y="-150"/>
      <point x="-51" y="-150" type="curve" smooth="yes"/>
      <point x="120" y="-150"/>
      <point x="248" y="-14"/>
      <point x="261" y="178" type="curve" smooth="yes"/>
      <point x="308" y="875" type="line"/>
      <point x="569" y="875" type="line"/>
      <point x="585" y="1000" type="line"/>
      <point x="317" y="1000" type="line"/>
      <point x="330" y="1193" type="line" smooth="yes"/>
      <point x="338" y="1311"/>
      <point x="412" y="1395"/>
      <point x="513" y="1395" type="curve" smooth="yes"/>
      <point x="556" y="1395"/>
      <point x="593" y="1380"/>
      <point x="620" y="1353" type="curve"/>
      <point x="678" y="1465" type="line"/>
      <point x="628" y="1502"/>
      <point x="572" y="1520"/>
      <point x="507" y="1520" type="curve" smooth="yes"/>
      <point x="330" y="1520"/>
      <point x="212" y="1385"/>
      <point x="199" y="1192" type="curve" smooth="yes"/>
      <point x="186" y="1000" type="line"/>
      <point x="24" y="1000" type="line"/>
      <point x="8" y="875" type="line"/>
      <point x="178" y="875" type="line"/>
      <point x="131" y="177" type="line" smooth="yes"/>
      <point x="123" y="60"/>
      <point x="47" y="-25"/>
      <point x="-50" y="-25" type="curve" smooth="yes"/>
      <point x="-92" y="-25"/>
      <point x="-132" y="-9"/>
      <point x="-162" y="17" type="curve"/>
    </contour>
  </outline>
</glyph>
<glyph name="uni021A" format="1">
  <unicode hex="021A"/>
  <advance width="1180"/>
  <outline>
    <component base="T" xOffset="-19"/>
    <contour>
      <point x="462" y="-357" type="line"/>
      <point x="520" y="-318"/>
      <point x="552" y="-256"/>
      <point x="552" y="-188" type="curve" smooth="yes"/>
      <point x="552" y="-153"/>
      <point x="543" y="-117"/>
      <point x="525" y="-80" type="curve"/>
      <point x="658" y="-53" type="line"/>
      <point x="671" y="-88"/>
      <point x="677" y="-126"/>
      <point x="677" y="-162" type="curve" smooth="yes"/>
      <point x="677" y="-266"/>
      <point x="629" y="-368"/>
      <point x="534" y="-418" type="curve"/>
    </contour>
    <contour>
      <point x="585" y="1542" type="move" name="top"/>
    </contour>
    <contour>
      <point x="585" y="-41" type="move" name="bottom"/>
    </contour>
  </outline>
</glyph>
<glyph name="uni0237" format="1">
  <unicode hex="0237"/>
  <advance width="485"/>
  <outline>
    <contour>
      <point x="178" y="-190" type="line" smooth="yes"/>
      <point x="178" y="-328"/>
      <point x="107" y="-403"/>
      <point x="-22" y="-403" type="curve" smooth="yes"/>
      <point x="-48" y="-403"/>
      <point x="-76" y="-400"/>
      <point x="-106" y="-394" type="curve"/>
      <point x="-106" y="-500" type="line"/>
      <point x="-60" y="-513"/>
      <point x="-17" y="-520"/>
      <point x="24" y="-520" type="curve" smooth="yes"/>
      <point x="199" y="-520"/>
      <point x="308" y="-394"/>
      <point x="308" y="-190" type="curve" smooth="yes"/>
      <point x="308" y="1000" type="line"/>
      <point x="178" y="1000" type="line"/>
    </contour>
    <contour>
      <point x="266" y="1020" type="move" name="top"/>
    </contour>
  </outline>
</glyph>
<glyph name="caron" format="1">
  <unicode hex="02C7"/>
  <advance width="899"/>
  <outline>
    <contour>
      <point x="165" y="1500" type="line"/>
      <point x="370" y="1170" type="line" name="av02"/>
      <point x="530" y="1170" type="line"/>
      <point x="735" y="1500" type="line" name="at02"/>
      <point x="635" y="1500" type="line"/>
      <point x="450" y="1261" type="line"/>
      <point x="265" y="1500" type="line" name="at01"/>
    </contour>
    <contour>
      <point x="450" y="1020" type="move" name="_top"/>
    </contour>
  </outline>
</glyph>
<glyph name="breve" format="1">
  <unicode hex="02D8"/>
  <advance width="780"/>
  <outline>
    <contour>
      <point x="193" y="1500" type="line" name="sh01"/>
      <point x="193" y="1382"/>
      <point x="277" y="1294"/>
      <point x="390" y="1294" type="curve" smooth="yes"/>
      <point x="503" y="1294"/>
      <point x="587" y="1382"/>
      <point x="587" y="1500" type="curve" name="ah01"/>
      <point x="690" y="1500" type="line" name="at01"/>
      <point x="690" y="1326"/>
      <point x="563" y="1194"/>
      <point x="390" y="1194" type="curve" smooth="yes" name="av01"/>
      <point x="217" y="1194"/>
      <point x="90" y="1326"/>
      <point x="90" y="1500" type="curve" name="at02"/>
    </contour>
    <contour>
      <point x="390" y="1020" type="move" name="_top"/>
    </contour>
  </outline>
</glyph>
<glyph name="ring" format="1">
  <unicode hex="02DA"/>
  <advance width="801"/>
  <outline>
    <contour>
      <point x="280" y="1300" type="curve" smooth="yes"/>
      <point x="280" y="1222"/>
      <point x="328" y="1170"/>
      <point x="400" y="1170" type="curve" smooth="yes"/>
      <point x="472" y="1170"/>
      <point x="520" y="1222"/>
      <point x="520" y="1300" type="curve" smooth="yes"/>
      <point x="520" y="1378"/>
      <point x="472" y="1430"/>
      <point x="400" y="1430" type="curve" smooth="yes"/>
      <point x="328" y="1430"/>
      <point x="280" y="1378"/>
    </contour>
    <contour>
      <point x="180" y="1300" type="curve" smooth="yes"/>
      <point x="180" y="1432"/>
      <point x="268" y="1520"/>
      <point x="400" y="1520" type="curve" smooth="yes"/>
      <point x="532" y="1520"/>
      <point x="620" y="1432"/>
      <point x="620" y="1300" type="curve" smooth="yes"/>
      <point x="620" y="1168"/>
      <point x="532" y="1080"/>
      <point x="400" y="1080" type="curve" smooth="yes"/>
      <point x="268" y="1080"/>
      <point x="180" y="1168"/>
    </contour>
    <contour>
      <point x="400" y="1020" type="move" name="_top"/>
    </contour>
  </outline>
</glyph>
<glyph name="ogonek" format="1">
  <unicode hex="02DB"/>
  <advance width="649"/>
  <outline>
    <contour>
      <point x="380" y="-420" type="line" name="av01"/>
      <point x="225" y="-420"/>
      <point x="162" y="-346"/>
      <point x="162" y="-258" type="curve" smooth="yes"/>
      <point x="162" y="-162"/>
      <point x="238" y="-50"/>
      <point x="355" y="0" type="curve" name="ab01"/>
      <point x="451" y="0" type="line"/>
      <point x="372" y="-18"/>
      <point x="278" y="-123"/>
      <point x="278" y="-208" type="curve" smooth="yes"/>
      <point x="278" y="-261"/>
      <point x="314" y="-307"/>
      <point x="412" y="-320" type="curve"/>
    </contour>
    <contour>
      <point x="401" y="-10" type="move" name="_bottom"/>
    </contour>
  </outline>
</glyph>
<glyph name="tilde" format="1">
  <unicode hex="02DC"/>
  <advance width="965"/>
  <outline>
    <contour>
      <point x="161" y="1282" type="line"/>
      <point x="168" y="1404"/>
      <point x="244" y="1480"/>
      <point x="347" y="1480" type="curve" smooth="yes" name="av01"/>
      <point x="418" y="1480"/>
      <point x="466" y="1443"/>
      <point x="509" y="1409" type="curve" smooth="yes"/>
      <point x="545" y="1380"/>
      <point x="579" y="1353"/>
      <point x="623" y="1353" type="curve" smooth="yes"/>
      <point x="673" y="1353"/>
      <point x="701" y="1387"/>
      <point x="704" y="1450" type="curve"/>
      <point x="803" y="1450" type="line"/>
      <point x="796" y="1328"/>
      <point x="718" y="1253"/>
      <point x="613" y="1253" type="curve" smooth="yes" name="av02"/>
      <point x="538" y="1253"/>
      <point x="493" y="1291"/>
      <point x="457" y="1321" type="curve" smooth="yes"/>
      <point x="418" y="1354"/>
      <point x="387" y="1380"/>
      <point x="343" y="1380" type="curve" smooth="yes"/>
      <point x="293" y="1380"/>
      <point x="263" y="1345"/>
      <point x="260" y="1282" type="curve"/>
    </contour>
    <contour>
      <point x="482" y="1020" type="move" name="_top"/>
    </contour>
  </outline>
</glyph>
<glyph name="hungarumlaut" format="1">
  <unicode hex="02DD"/>
  <advance width="920"/>
  <outline>
    <contour>
      <point x="462" y="1170" type="line"/>
      <point x="664" y="1500" type="line"/>
      <point x="820" y="1500" type="line"/>
      <point x="572" y="1170" type="line"/>
    </contour>
    <contour>
      <point x="110" y="1170" type="line"/>
      <point x="312" y="1500" type="line"/>
      <point x="468" y="1500" type="line"/>
      <point x="220" y="1170" type="line"/>
    </contour>
    <contour>
      <point x="332" y="1020" type="move" name="_top"/>
    </contour>
  </outline>
</glyph>
<glyph name="uni0394" format="1">
  <unicode hex="0394"/>
  <advance width="1458"/>
  <outline>
    <contour>
      <point x="30" y="0" type="line"/>
      <point x="1428" y="0" type="line"/>
      <point x="816" y="1499" type="line"/>
      <point x="642" y="1499" type="line"/>
    </contour>
    <contour>
      <point x="229" y="125" type="line"/>
      <point x="727" y="1343" type="line"/>
      <point x="1224" y="125" type="line"/>
    </contour>
  </outline>
</glyph>
<glyph name="uni03A9" format="1">
  <unicode hex="03A9"/>
  <advance width="1779"/>
  <outline>
    <contour>
      <point x="729" y="0" type="line"/>
      <point x="729" y="90" type="line"/>
      <point x="709" y="97" type="line"/>
      <point x="432" y="211"/>
      <point x="281" y="508"/>
      <point x="281" y="799" type="curve" smooth="yes"/>
      <point x="281" y="1167"/>
      <point x="519" y="1415"/>
      <point x="890" y="1415" type="curve" smooth="yes"/>
      <point x="1260" y="1415"/>
      <point x="1498" y="1169"/>
      <point x="1498" y="799" type="curve" smooth="yes"/>
      <point x="1498" y="504"/>
      <point x="1343" y="233"/>
      <point x="1121" y="120" type="curve" smooth="yes"/>
      <point x="1108" y="114"/>
      <point x="1096" y="108"/>
      <point x="1083" y="102" type="curve"/>
      <point x="1050" y="90" type="line"/>
      <point x="1050" y="0" type="line"/>
      <point x="1689" y="0" type="line"/>
      <point x="1689" y="120" type="line"/>
      <point x="1291" y="120" type="line"/>
      <point x="1504" y="260"/>
      <point x="1633" y="512"/>
      <point x="1633" y="802" type="curve" smooth="yes"/>
      <point x="1633" y="1241"/>
      <point x="1332" y="1530"/>
      <point x="890" y="1530" type="curve" smooth="yes"/>
      <point x="447" y="1530"/>
      <point x="146" y="1241"/>
      <point x="146" y="802" type="curve" smooth="yes"/>
      <point x="146" y="512"/>
      <point x="275" y="260"/>
      <point x="488" y="120" type="curve"/>
      <point x="90" y="120" type="line"/>
      <point x="90" y="0" type="line"/>
    </contour>
  </outline>
</glyph>
<glyph name="pi" format="1">
  <unicode hex="03C0"/>
  <advance width="1206"/>
  <outline>
    <contour>
      <point x="33" y="827" type="line"/>
      <point x="118" y="864"/>
      <point x="177" y="879"/>
      <point x="239" y="879" type="curve" smooth="yes"/>
      <point x="315" y="879" type="line"/>
      <point x="320" y="752"/>
      <point x="322" y="625"/>
      <point x="322" y="500" type="curve" smooth="yes"/>
      <point x="322" y="329"/>
      <point x="318" y="173"/>
      <point x="309" y="0" type="curve"/>
      <point x="449" y="0" type="line"/>
      <point x="457" y="166"/>
      <point x="461" y="335"/>
      <point x="461" y="500" type="curve" smooth="yes"/>
      <point x="461" y="630"/>
      <point x="459" y="752"/>
      <point x="454" y="879" type="curve"/>
      <point x="769" y="879" type="line"/>
      <point x="769" y="229" type="line" smooth="yes"/>
      <point x="769" y="74"/>
      <point x="848" y="-20"/>
      <point x="977" y="-20" type="curve" smooth="yes"/>
      <point x="1082" y="-20"/>
      <point x="1168" y="44"/>
      <point x="1175" y="128" type="curve"/>
      <point x="1123" y="144" type="line"/>
      <point x="1113" y="103"/>
      <point x="1071" y="74"/>
      <point x="1023" y="74" type="curve" smooth="yes"/>
      <point x="953" y="74"/>
      <point x="908" y="135"/>
      <point x="908" y="228" type="curve" smooth="yes"/>
      <point x="908" y="879" type="line"/>
      <point x="1186" y="879" type="line"/>
      <point x="1186" y="999" type="line"/>
      <point x="239" y="999" type="line" smooth="yes"/>
      <point x="148" y="999"/>
      <point x="65" y="974"/>
      <point x="-15" y="923" type="curve"/>
    </contour>
  </outline>
</glyph>
<glyph name="endash" format="1">
  <unicode hex="2013"/>
  <advance width="1340"/>
  <outline>
    <contour>
      <point x="160" y="560" type="line"/>
      <point x="1180" y="560" type="line" name="dv02"/>
      <point x="1180" y="450" type="line" name="dv01"/>
      <point x="160" y="450" type="line"/>
    </contour>
  </outline>
</glyph>
<glyph name="emdash" format="1">
  <unicode hex="2014"/>
  <advance width="2360"/>
  <outline>
    <contour>
      <point x="160" y="560" type="line"/>
      <point x="2200" y="560" type="line" name="dv02"/>
      <point x="2200" y="450" type="line" name="dv01"/>
      <point x="160" y="450" type="line"/>
    </contour>
  </outline>
</glyph>
<glyph name="quoteleft" format="1">
  <unicode hex="2018"/>
  <advance width="466" height="1660"/>
  <outline>
    <contour>
      <point x="255" y="1070" type="line" name="av01"/>
      <point x="110" y="1070" type="line"/>
      <point x="269" y="1520" type="line"/>
      <point x="356" y="1520" type="line"/>
    </contour>
    <contour>
      <point x="233" y="1040" type="move" name="top"/>
    </contour>
  </outline>
</glyph>
<glyph name="quotesinglbase" format="1">
  <unicode hex="201A"/>
  <advance width="466" height="1660"/>
  <outline>
    <contour>
      <point x="211" y="225" type="line" name="av01"/>
      <point x="356" y="225" type="line"/>
      <point x="197" y="-225" type="line"/>
      <point x="110" y="-225" type="line"/>
    </contour>
  </outline>
</glyph>
<glyph name="quotedblleft" format="1">
  <unicode hex="201C"/>
  <advance width="792" height="1660"/>
  <outline>
    <contour>
      <point x="595" y="1520" type="line" name="at01"/>
      <point x="682" y="1520" type="line"/>
      <point x="581" y="1070" type="line" name="av01"/>
      <point x="436" y="1070" type="line"/>
    </contour>
    <contour>
      <point x="110" y="1070" type="line"/>
      <point x="269" y="1520" type="line" name="at02"/>
      <point x="356" y="1520" type="line"/>
      <point x="255" y="1070" type="line" name="av02"/>
    </contour>
  </outline>
</glyph>
<glyph name="quotedblright" format="1">
  <unicode hex="201D"/>
  <advance width="792" height="1660"/>
  <outline>
    <contour>
      <point x="436" y="1070" type="line"/>
      <point x="537" y="1520" type="line" name="av02"/>
      <point x="682" y="1520" type="line"/>
      <point x="523" y="1070" type="line" name="av04"/>
    </contour>
    <contour>
      <point x="110" y="1070" type="line"/>
      <point x="211" y="1520" type="line" name="av01"/>
      <point x="356" y="1520" type="line"/>
      <point x="197" y="1070" type="line" name="av03"/>
    </contour>
  </outline>
</glyph>
<glyph name="quotedblbase" format="1">
  <unicode hex="201E"/>
  <advance width="792" height="1660"/>
  <outline>
    <contour>
      <point x="436" y="-225" type="line"/>
      <point x="537" y="225" type="line" name="av02"/>
      <point x="682" y="225" type="line"/>
      <point x="523" y="-225" type="line" name="av04"/>
    </contour>
    <contour>
      <point x="110" y="-225" type="line"/>
      <point x="211" y="225" type="line" name="av01"/>
      <point x="356" y="225" type="line"/>
      <point x="197" y="-225" type="line" name="av03"/>
    </contour>
  </outline>
</glyph>
<glyph name="dagger" format="1">
  <unicode hex="2020"/>
  <advance width="1000"/>
  <outline>
    <contour>
      <point x="545" y="1045" type="line"/>
      <point x="565" y="1500" type="line" name="at01"/>
      <point x="435" y="1500" type="line"/>
      <point x="455" y="1045" type="line"/>
      <point x="100" y="1065" type="line"/>
      <point x="100" y="935" type="line"/>
      <point x="455" y="955" type="line"/>
      <point x="435" y="0" type="line" name="ab01"/>
      <point x="565" y="0" type="line"/>
      <point x="545" y="955" type="line"/>
      <point x="900" y="935" type="line"/>
      <point x="900" y="1065" type="line"/>
    </contour>
  </outline>
</glyph>
<glyph name="daggerdbl" format="1">
  <unicode hex="2021"/>
  <advance width="1000"/>
  <outline>
    <contour>
      <point x="100" y="565" type="line"/>
      <point x="100" y="435" type="line"/>
      <point x="455" y="455" type="line"/>
      <point x="435" y="0" type="line" name="ab01"/>
      <point x="565" y="0" type="line"/>
      <point x="545" y="455" type="line"/>
      <point x="900" y="435" type="line"/>
      <point x="900" y="565" type="line"/>
      <point x="545" y="545" type="line"/>
      <point x="548" y="624"/>
      <point x="552" y="670"/>
      <point x="552" y="750" type="curve" smooth="yes"/>
      <point x="552" y="830"/>
      <point x="548" y="876"/>
      <point x="545" y="955" type="curve"/>
      <point x="900" y="935" type="line"/>
      <point x="900" y="1065" type="line"/>
      <point x="545" y="1045" type="line"/>
      <point x="565" y="1500" type="line" name="at01"/>
      <point x="435" y="1500" type="line"/>
      <point x="455" y="1045" type="line"/>
      <point x="100" y="1065" type="line"/>
      <point x="100" y="935" type="line"/>
      <point x="455" y="955" type="line"/>
      <point x="452" y="876"/>
      <point x="448" y="830"/>
      <point x="448" y="750" type="curve" smooth="yes"/>
      <point x="448" y="670"/>
      <point x="452" y="624"/>
      <point x="455" y="545" type="curve"/>
    </contour>
  </outline>
</glyph>
<glyph name="perthousand" format="1">
  <unicode hex="2030"/>
  <advance width="2649"/>
  <outline>
    <contour>
      <point x="404" y="0" type="line"/>
      <point x="521" y="0" type="line"/>
      <point x="1448" y="1500" type="line"/>
      <point x="1331" y="1500" type="line"/>
    </contour>
    <contour>
      <point x="160" y="1187" type="curve" smooth="yes"/>
      <point x="160" y="993"/>
      <point x="290" y="864"/>
      <point x="484" y="864" type="curve" smooth="yes"/>
      <point x="678" y="864"/>
      <point x="808" y="993"/>
      <point x="808" y="1187" type="curve" smooth="yes"/>
      <point x="808" y="1382"/>
      <point x="679" y="1511"/>
      <point x="484" y="1511" type="curve" smooth="yes"/>
      <point x="290" y="1511"/>
      <point x="160" y="1382"/>
    </contour>
    <contour>
      <point x="273" y="1187" type="curve" smooth="yes"/>
      <point x="273" y="1323"/>
      <point x="357" y="1414"/>
      <point x="484" y="1414" type="curve" smooth="yes"/>
      <point x="610" y="1414"/>
      <point x="695" y="1323"/>
      <point x="695" y="1187" type="curve" smooth="yes"/>
      <point x="695" y="1052"/>
      <point x="610" y="961"/>
      <point x="484" y="961" type="curve" smooth="yes"/>
      <point x="357" y="961"/>
      <point x="273" y="1051"/>
    </contour>
    <contour>
      <point x="1044" y="314" type="curve" smooth="yes"/>
      <point x="1044" y="120"/>
      <point x="1174" y="-10"/>
      <point x="1368" y="-10" type="curve" smooth="yes"/>
      <point x="1563" y="-10"/>
      <point x="1692" y="120"/>
      <point x="1692" y="314" type="curve" smooth="yes"/>
      <point x="1692" y="508"/>
      <point x="1562" y="637"/>
      <point x="1368" y="637" type="curve" smooth="yes"/>
      <point x="1174" y="637"/>
      <point x="1044" y="508"/>
    </contour>
    <contour>
      <point x="1157" y="314" type="curve" smooth="yes"/>
      <point x="1157" y="450"/>
      <point x="1241" y="540"/>
      <point x="1368" y="540" type="curve" smooth="yes"/>
      <point x="1494" y="540"/>
      <point x="1579" y="449"/>
      <point x="1579" y="314" type="curve" smooth="yes"/>
      <point x="1579" y="178"/>
      <point x="1494" y="87"/>
      <point x="1368" y="87" type="curve" smooth="yes"/>
      <point x="1241" y="87"/>
      <point x="1157" y="178"/>
    </contour>
    <contour>
      <point x="1841" y="314" type="curve" smooth="yes"/>
      <point x="1841" y="120"/>
      <point x="1971" y="-10"/>
      <point x="2165" y="-10" type="curve" smooth="yes"/>
      <point x="2360" y="-10"/>
      <point x="2489" y="120"/>
      <point x="2489" y="314" type="curve" smooth="yes"/>
      <point x="2489" y="508"/>
      <point x="2359" y="637"/>
      <point x="2165" y="637" type="curve" smooth="yes"/>
      <point x="1971" y="637"/>
      <point x="1841" y="508"/>
    </contour>
    <contour>
      <point x="1954" y="314" type="curve" smooth="yes"/>
      <point x="1954" y="450"/>
      <point x="2038" y="540"/>
      <point x="2165" y="540" type="curve" smooth="yes"/>
      <point x="2291" y="540"/>
      <point x="2376" y="449"/>
      <point x="2376" y="314" type="curve" smooth="yes"/>
      <point x="2376" y="178"/>
      <point x="2291" y="87"/>
      <point x="2165" y="87" type="curve" smooth="yes"/>
      <point x="2038" y="87"/>
      <point x="1954" y="178"/>
    </contour>
  </outline>
</glyph>
<glyph name="minute" format="1">
  <unicode hex="2032"/>
  <advance width="365"/>
  <outline>
    <contour>
      <point x="115" y="1520" type="line" name="at01"/>
      <point x="250" y="1520" type="line"/>
      <point x="221" y="1085" type="line"/>
      <point x="144" y="1085" type="line"/>
    </contour>
  </outline>
</glyph>
<glyph name="guilsinglleft" format="1">
  <unicode hex="2039"/>
  <advance width="759"/>
  <outline>
    <contour>
      <point x="431" y="890" type="line" name="av02"/>
      <point x="100" y="500" type="line"/>
      <point x="431" y="110" type="line" name="av01"/>
      <point x="589" y="110" type="line"/>
      <point x="252" y="500" type="line"/>
      <point x="589" y="890" type="line"/>
    </contour>
  </outline>
</glyph>
<glyph name="guilsinglright" format="1">
  <unicode hex="203A"/>
  <advance width="759"/>
  <outline>
    <contour>
      <point x="328" y="890" type="line" name="av02"/>
      <point x="659" y="500" type="line"/>
      <point x="328" y="110" type="line" name="av01"/>
      <point x="170" y="110" type="line"/>
      <point x="507" y="500" type="line"/>
      <point x="170" y="890" type="line"/>
    </contour>
  </outline>
</glyph>
<glyph name="fraction" format="1">
  <unicode hex="2044"/>
  <advance width="1108"/>
  <outline>
    <contour>
      <point x="1013" y="1655" type="line"/>
      <point x="1108" y="1600" type="line"/>
      <point x="95" y="-155" type="line"/>
      <point x="0" y="-100" type="line"/>
    </contour>
  </outline>
</glyph>
<glyph name="uni2074" format="1">
  <unicode hex="2074"/>
  <advance width="838"/>
  <outline>
    <contour>
      <point x="120" y="891" type="line"/>
      <point x="502" y="891" type="line"/>
      <point x="502" y="715" type="line"/>
      <point x="602" y="715" type="line"/>
      <point x="602" y="891" type="line"/>
      <point x="698" y="891" type="line"/>
      <point x="698" y="981" type="line"/>
      <point x="602" y="981" type="line"/>
      <point x="602" y="1500" type="line"/>
      <point x="502" y="1500" type="line"/>
      <point x="120" y="980" type="line"/>
    </contour>
    <contour>
      <point x="226" y="981" type="line"/>
      <point x="502" y="1357" type="line"/>
      <point x="502" y="981" type="line"/>
    </contour>
  </outline>
</glyph>
<glyph name="franc" format="1">
  <unicode hex="20A3"/>
  <advance width="1147"/>
  <outline>
    <contour>
      <point x="0" y="286" type="line" name="dv01"/>
      <point x="164" y="286" type="line"/>
      <point x="164" y="0" type="line"/>
      <point x="299" y="0" type="line"/>
      <point x="299" y="286" type="line"/>
      <point x="736" y="286" type="line"/>
      <point x="736" y="396" type="line" name="sv02"/>
      <point x="299" y="396" type="line"/>
      <point x="299" y="698" type="line"/>
      <point x="968" y="698" type="line"/>
      <point x="968" y="823" type="line"/>
      <point x="299" y="823" type="line"/>
      <point x="299" y="1375" type="line"/>
      <point x="1007" y="1375" type="line"/>
      <point x="1007" y="1500" type="line"/>
      <point x="164" y="1500" type="line"/>
      <point x="164" y="396" type="line"/>
      <point x="0" y="396" type="line" name="dv02"/>
    </contour>
  </outline>
</glyph>
<glyph name="uni20A8" format="1">
  <unicode hex="20A8"/>
  <advance width="1153"/>
  <outline>
    <contour>
      <point x="170" y="789" type="line"/>
      <point x="170" y="689" type="line"/>
      <point x="282" y="689" type="line"/>
      <point x="713" y="0" type="line"/>
      <point x="866" y="0" type="line"/>
      <point x="412" y="692" type="line"/>
      <point x="670" y="711"/>
      <point x="831" y="836"/>
      <point x="854" y="1033" type="curve"/>
      <point x="1023" y="1033" type="line"/>
      <point x="1023" y="1133" type="line"/>
      <point x="854" y="1133" type="line"/>
      <point x="842" y="1246"/>
      <point x="784" y="1337"/>
      <point x="691" y="1399" type="curve"/>
      <point x="1023" y="1399" type="line"/>
      <point x="1023" y="1499" type="line"/>
      <point x="170" y="1499" type="line"/>
      <point x="170" y="1399" type="line"/>
      <point x="302" y="1399" type="line" smooth="yes"/>
      <point x="551" y="1399"/>
      <point x="708" y="1300"/>
      <point x="733" y="1133" type="curve"/>
      <point x="170" y="1133" type="line"/>
      <point x="170" y="1033" type="line"/>
      <point x="733" y="1033" type="line"/>
      <point x="707" y="875"/>
      <point x="557" y="789"/>
      <point x="302" y="789" type="curve" smooth="yes"/>
    </contour>
  </outline>
</glyph>
<glyph name="Euro" format="1">
  <unicode hex="20AC"/>
  <advance width="988"/>
  <outline>
    <contour>
      <point x="309" y="949" type="line"/>
      <point x="365" y="1243"/>
      <point x="553" y="1408"/>
      <point x="845" y="1408" type="curve" smooth="yes"/>
      <point x="852" y="1408" type="line"/>
      <point x="868" y="1530" type="line"/>
      <point x="495" y="1530"/>
      <point x="240" y="1311"/>
      <point x="173" y="949" type="curve"/>
      <point x="12" y="949" type="line"/>
      <point x="12" y="849" type="line"/>
      <point x="160" y="849" type="line"/>
      <point x="157" y="817"/>
      <point x="156" y="784"/>
      <point x="156" y="750" type="curve" smooth="yes"/>
      <point x="156" y="716"/>
      <point x="157" y="683"/>
      <point x="160" y="651" type="curve"/>
      <point x="12" y="651" type="line"/>
      <point x="12" y="551" type="line"/>
      <point x="173" y="551" type="line"/>
      <point x="240" y="189"/>
      <point x="495" y="-31"/>
      <point x="868" y="-31" type="curve"/>
      <point x="852" y="92" type="line"/>
      <point x="845" y="92" type="line" smooth="yes"/>
      <point x="553" y="92"/>
      <point x="365" y="257"/>
      <point x="309" y="551" type="curve"/>
      <point x="766" y="551" type="line"/>
      <point x="766" y="651" type="line"/>
      <point x="295" y="651" type="line"/>
      <point x="292" y="683"/>
      <point x="291" y="716"/>
      <point x="291" y="750" type="curve" smooth="yes"/>
      <point x="291" y="784"/>
      <point x="292" y="817"/>
      <point x="295" y="849" type="curve"/>
      <point x="766" y="849" type="line"/>
      <point x="766" y="949" type="line"/>
    </contour>
  </outline>
</glyph>
<glyph name="uni2113" format="1">
  <unicode hex="2113"/>
  <advance width="918"/>
  <outline>
    <contour>
      <point x="31" y="539" type="line"/>
      <point x="96" y="563"/>
      <point x="159" y="590"/>
      <point x="218" y="622" type="curve"/>
      <point x="218" y="282" type="line" smooth="yes"/>
      <point x="218" y="88"/>
      <point x="320" y="-30"/>
      <point x="489" y="-30" type="curve" smooth="yes"/>
      <point x="645" y="-30"/>
      <point x="738" y="69"/>
      <point x="738" y="237" type="curve"/>
      <point x="629" y="237" type="line"/>
      <point x="623" y="149"/>
      <point x="565" y="90"/>
      <point x="485" y="90" type="curve" smooth="yes"/>
      <point x="398" y="90"/>
      <point x="348" y="160"/>
      <point x="348" y="283" type="curve" smooth="yes"/>
      <point x="348" y="699" type="line"/>
      <point x="589" y="862"/>
      <point x="748" y="1081"/>
      <point x="748" y="1279" type="curve" smooth="yes"/>
      <point x="748" y="1434"/>
      <point x="654" y="1530"/>
      <point x="500" y="1530" type="curve" smooth="yes"/>
      <point x="327" y="1530"/>
      <point x="218" y="1408"/>
      <point x="218" y="1214" type="curve" smooth="yes"/>
      <point x="218" y="742" type="line"/>
      <point x="148" y="698"/>
      <point x="72" y="661"/>
      <point x="-5" y="633" type="curve"/>
    </contour>
    <contour>
      <point x="348" y="833" type="curve"/>
      <point x="348" y="1212" type="line" smooth="yes"/>
      <point x="348" y="1336"/>
      <point x="402" y="1410"/>
      <point x="493" y="1410" type="curve" smooth="yes"/>
      <point x="576" y="1410"/>
      <point x="633" y="1348"/>
      <point x="633" y="1258" type="curve" smooth="yes"/>
      <point x="633" y="1129"/>
      <point x="517" y="967"/>
    </contour>
  </outline>
</glyph>
<glyph name="trademark" format="1">
  <unicode hex="2122"/>
  <advance width="1661"/>
  <outline>
    <contour>
      <point x="788" y="770" type="line"/>
      <point x="788" y="1395" type="line"/>
      <point x="1031" y="887" type="line"/>
      <point x="1137" y="887" type="line"/>
      <point x="1379" y="1395" type="line"/>
      <point x="1379" y="770" type="line"/>
      <point x="1469" y="770" type="line"/>
      <point x="1469" y="1500" type="line"/>
      <point x="1339" y="1500" type="line"/>
      <point x="1086" y="969" type="line"/>
      <point x="833" y="1500" type="line"/>
      <point x="698" y="1500" type="line"/>
      <point x="698" y="770" type="line"/>
    </contour>
    <contour>
      <point x="80" y="1415" type="line"/>
      <point x="287" y="1415" type="line"/>
      <point x="287" y="770" type="line"/>
      <point x="377" y="770" type="line"/>
      <point x="377" y="1415" type="line"/>
      <point x="584" y="1415" type="line"/>
      <point x="584" y="1500" type="line"/>
      <point x="80" y="1500" type="line"/>
    </contour>
  </outline>
</glyph>
<glyph name="estimated" format="1">
  <unicode hex="212E"/>
  <advance width="1202"/>
  <outline>
    <contour>
      <point x="606" y="1020" type="curve" smooth="yes" name="at01"/>
      <point x="901" y="1020"/>
      <point x="1112" y="803"/>
      <point x="1112" y="500" type="curve" smooth="yes" name="sh01"/>
      <point x="1112" y="464" type="line" name="dv03"/>
      <point x="292" y="464" type="line" name="sh04"/>
      <point x="292" y="258" type="line" smooth="yes"/>
      <point x="292" y="139"/>
      <point x="454" y="40"/>
      <point x="652" y="40" type="curve" smooth="yes" name="dv02"/>
      <point x="770" y="40"/>
      <point x="902" y="75"/>
      <point x="1036" y="185" type="curve"/>
      <point x="1074" y="139" type="line"/>
      <point x="928" y="18"/>
      <point x="782" y="-20"/>
      <point x="647" y="-20" type="curve" smooth="yes" name="dv01"/>
      <point x="323" y="-20"/>
      <point x="90" y="200"/>
      <point x="90" y="505" type="curve" smooth="yes" name="sh02"/>
      <point x="90" y="801"/>
      <point x="309" y="1020"/>
    </contour>
    <contour>
      <point x="292" y="771" type="curve" smooth="yes"/>
      <point x="292" y="524" type="line" name="sh03"/>
      <point x="910" y="524" type="line" name="dv04"/>
      <point x="910" y="771" type="line" smooth="yes"/>
      <point x="910" y="878"/>
      <point x="756" y="960"/>
      <point x="601" y="960" type="curve" smooth="yes" name="sv01"/>
      <point x="447" y="960"/>
      <point x="292" y="878"/>
    </contour>
  </outline>
</glyph>
<glyph name="partialdiff" format="1">
  <unicode hex="2202"/>
  <advance width="1183"/>
  <outline>
    <contour>
      <point x="530" y="-20" type="curve" smooth="yes"/>
      <point x="862" y="-20"/>
      <point x="1093" y="292"/>
      <point x="1093" y="739" type="curve" smooth="yes"/>
      <point x="1093" y="1190"/>
      <point x="862" y="1520"/>
      <point x="546" y="1520" type="curve" smooth="yes"/>
      <point x="362" y="1520"/>
      <point x="236" y="1408"/>
      <point x="227" y="1237" type="curve"/>
      <point x="340" y="1237" type="line"/>
      <point x="345" y="1337"/>
      <point x="426" y="1403"/>
      <point x="543" y="1403" type="curve" smooth="yes"/>
      <point x="752" y="1403"/>
      <point x="912" y="1194"/>
      <point x="951" y="888" type="curve"/>
      <point x="869" y="911"/>
      <point x="786" y="922"/>
      <point x="703" y="922" type="curve" smooth="yes"/>
      <point x="345" y="922"/>
      <point x="80" y="706"/>
      <point x="80" y="414" type="curve" smooth="yes"/>
      <point x="80" y="165"/>
      <point x="272" y="-20"/>
    </contour>
    <contour>
      <point x="212" y="409" type="curve" smooth="yes"/>
      <point x="212" y="637"/>
      <point x="431" y="812"/>
      <point x="716" y="812" type="curve" smooth="yes"/>
      <point x="799" y="812"/>
      <point x="882" y="797"/>
      <point x="960" y="768" type="curve"/>
      <point x="960" y="759"/>
      <point x="960" y="751"/>
      <point x="960" y="742" type="curve" smooth="yes"/>
      <point x="960" y="363"/>
      <point x="782" y="100"/>
      <point x="526" y="100" type="curve" smooth="yes"/>
      <point x="345" y="100"/>
      <point x="212" y="231"/>
    </contour>
  </outline>
</glyph>
<glyph name="Delta" format="1">
  <unicode hex="2206"/>
  <advance width="1114"/>
  <outline>
    <contour>
      <point x="1046" y="0" type="line"/>
      <point x="1114" y="119" type="line"/>
      <point x="667" y="1130" type="line"/>
      <point x="517" y="1130" type="line"/>
      <point x="70" y="119" type="line"/>
      <point x="138" y="0" type="line"/>
    </contour>
    <contour>
      <point x="971" y="120" type="line"/>
      <point x="213" y="120" type="line"/>
      <point x="532" y="839" type="line" smooth="yes"/>
      <point x="555" y="890"/>
      <point x="567" y="929"/>
      <point x="591" y="1017" type="curve"/>
      <point x="612" y="929"/>
      <point x="620" y="905"/>
      <point x="650" y="839" type="curve" smooth="yes"/>
    </contour>
  </outline>
</glyph>
<glyph name="product" format="1">
  <unicode hex="220F"/>
  <advance width="1660"/>
  <outline>
    <contour>
      <point x="100" y="1390" type="line"/>
      <point x="100" y="1500" type="line" name="at01"/>
      <point x="1560" y="1500" type="line"/>
      <point x="1560" y="1390" type="line" name="sv02"/>
      <point x="1400" y="1380" type="line" name="sv03"/>
      <point x="1400" y="-400" type="line" name="av02"/>
      <point x="1270" y="-400" type="line" name="ah01"/>
      <point x="1270" y="1380" type="line" name="sv04"/>
      <point x="390" y="1380" type="line" name="sv05"/>
      <point x="390" y="-400" type="line" name="sh01"/>
      <point x="260" y="-400" type="line" name="av01"/>
      <point x="260" y="1380" type="line" name="sv01"/>
    </contour>
  </outline>
</glyph>
<glyph name="summation" format="1">
  <unicode hex="2211"/>
  <advance width="1190"/>
  <outline>
    <contour>
      <point x="1100" y="1500" type="line"/>
      <point x="1100" y="1375" type="line" name="sv01"/>
      <point x="323" y="1375" type="line"/>
      <point x="743" y="750" type="line"/>
      <point x="323" y="125" type="line" name="sv02"/>
      <point x="1100" y="125" type="line"/>
      <point x="1100" y="0" type="line" name="ab01"/>
      <point x="160" y="0" type="line"/>
      <point x="160" y="125" type="line"/>
      <point x="590" y="750" type="line"/>
      <point x="160" y="1375" type="line"/>
      <point x="160" y="1500" type="line" name="at01"/>
    </contour>
  </outline>
</glyph>
<glyph name="minus" format="1">
  <unicode hex="2212"/>
  <advance width="1140"/>
  <outline>
    <contour>
      <point x="160" y="560" type="line"/>
      <point x="980" y="560" type="line" name="dv02"/>
      <point x="980" y="450" type="line" name="dv01"/>
      <point x="160" y="450" type="line"/>
    </contour>
  </outline>
</glyph>
<glyph name="uni2219" format="1">
  <unicode hex="2219"/>
  <advance width="620"/>
  <outline>
    <contour>
      <point x="160" y="700" type="curve" smooth="yes"/>
      <point x="160" y="790"/>
      <point x="220" y="850"/>
      <point x="310" y="850" type="curve" smooth="yes"/>
      <point x="400" y="850"/>
      <point x="460" y="790"/>
      <point x="460" y="700" type="curve" smooth="yes"/>
      <point x="460" y="610"/>
      <point x="400" y="550"/>
      <point x="310" y="550" type="curve" smooth="yes"/>
      <point x="220" y="550"/>
      <point x="160" y="610"/>
    </contour>
  </outline>
</glyph>
